AnekMalayalam-ExtraBold.ufo
<glyph name="exclam" format="2">
  <advance width="536"/>
  <unicode hex="0021"/>
  <outline>
    <contour>
      <point x="458" y="1278" type="line"/>
      <point x="78" y="1278" type="line"/>
      <point x="120" y="432" type="line"/>
      <point x="417" y="432" type="line"/>
    </contour>
    <contour>
      <point x="270" y="-30" type="curve" smooth="yes"/>
      <point x="396" y="-30"/>
      <point x="456" y="39"/>
      <point x="456" y="154" type="curve" smooth="yes"/>
      <point x="456" y="165" type="line" smooth="yes"/>
      <point x="456" y="279"/>
      <point x="396" y="349"/>
      <point x="270" y="349" type="curve" smooth="yes"/>
      <point x="143" y="349"/>
      <point x="85" y="279"/>
      <point x="85" y="165" type="curve" smooth="yes"/>
      <point x="85" y="154" type="line" smooth="yes"/>
      <point x="85" y="39"/>
      <point x="143" y="-30"/>
    </contour>
  </outline>
</glyph>
<glyph name="dollar" format="2">
  <advance width="1093"/>
  <unicode hex="0024"/>
  <outline>
    <component base="S"/>
    <contour>
      <point x="688" y="1474" type="line"/>
      <point x="391" y="1474" type="line"/>
      <point x="391" y="1123" type="line"/>
      <point x="688" y="1123" type="line"/>
    </contour>
    <contour>
      <point x="688" y="162" type="line"/>
      <point x="391" y="162" type="line"/>
      <point x="391" y="-200" type="line"/>
      <point x="688" y="-200" type="line"/>
    </contour>
  </outline>
</glyph>
<glyph name="plus" format="2">
  <advance width="1028"/>
  <unicode hex="002B"/>
  <outline>
    <contour>
      <point x="663" y="1052" type="line"/>
      <point x="366" y="1052" type="line"/>
      <point x="366" y="184" type="line"/>
      <point x="663" y="184" type="line"/>
    </contour>
    <contour>
      <point x="944" y="478" type="line"/>
      <point x="944" y="758" type="line"/>
      <point x="84" y="758" type="line"/>
      <point x="84" y="478" type="line"/>
    </contour>
  </outline>
</glyph>
<glyph name="six" format="2">
  <advance width="1187"/>
  <unicode hex="0036"/>
  <outline>
    <contour>
      <point x="611" y="-27" type="curve" smooth="yes"/>
      <point x="951" y="-27"/>
      <point x="1126" y="126"/>
      <point x="1126" y="413" type="curve" smooth="yes"/>
      <point x="1126" y="436" type="line" smooth="yes"/>
      <point x="1126" y="695"/>
      <point x="1009" y="839"/>
      <point x="767" y="839" type="curve" smooth="yes"/>
      <point x="564" y="839"/>
      <point x="468" y="744"/>
      <point x="436" y="622" type="curve"/>
      <point x="379" y="622" type="line"/>
      <point x="421" y="465" type="line"/>
      <point x="455" y="530"/>
      <point x="530" y="573"/>
      <point x="622" y="573" type="curve" smooth="yes"/>
      <point x="739" y="573"/>
      <point x="776" y="519"/>
      <point x="776" y="428" type="curve" smooth="yes"/>
      <point x="776" y="416" type="line" smooth="yes"/>
      <point x="776" y="320"/>
      <point x="730" y="270"/>
      <point x="619" y="270" type="curve" smooth="yes"/>
      <point x="486" y="270"/>
      <point x="426" y="343"/>
      <point x="426" y="501" type="curve" smooth="yes"/>
      <point x="426" y="700" type="line" smooth="yes"/>
      <point x="426" y="912"/>
      <point x="522" y="1007"/>
      <point x="732" y="1007" type="curve" smooth="yes"/>
      <point x="868" y="1007"/>
      <point x="976" y="978"/>
      <point x="1067" y="941" type="curve"/>
      <point x="1033" y="1238" type="line"/>
      <point x="945" y="1275"/>
      <point x="816" y="1306"/>
      <point x="656" y="1306" type="curve" smooth="yes"/>
      <point x="266" y="1306"/>
      <point x="68" y="1091"/>
      <point x="68" y="709" type="curve"/>
      <point x="68" y="506" type="line"/>
      <point x="68" y="162"/>
      <point x="260" y="-27"/>
    </contour>
  </outline>
</glyph>
<glyph name="eight" format="2">
  <advance width="1186"/>
  <unicode hex="0038"/>
  <outline>
    <contour>
      <point x="591" y="-36" type="curve" smooth="yes"/>
      <point x="1015" y="-36"/>
      <point x="1131" y="124"/>
      <point x="1131" y="335" type="curve" smooth="yes"/>
      <point x="1131" y="359" type="line" smooth="yes"/>
      <point x="1131" y="535"/>
      <point x="1045" y="627"/>
      <point x="867" y="663" type="curve"/>
      <point x="867" y="674" type="line"/>
      <point x="1030" y="703"/>
      <point x="1117" y="784"/>
      <point x="1117" y="945" type="curve" smooth="yes"/>
      <point x="1117" y="968" type="line" smooth="yes"/>
      <point x="1117" y="1178"/>
      <point x="962" y="1309"/>
      <point x="591" y="1309" type="curve" smooth="yes"/>
      <point x="226" y="1309"/>
      <point x="69" y="1178"/>
      <point x="69" y="968" type="curve" smooth="yes"/>
      <point x="69" y="945" type="line" smooth="yes"/>
      <point x="69" y="789"/>
      <point x="155" y="702"/>
      <point x="315" y="674" type="curve"/>
      <point x="315" y="663" type="line"/>
      <point x="142" y="629"/>
      <point x="55" y="531"/>
      <point x="55" y="359" type="curve" smooth="yes"/>
      <point x="55" y="335" type="line" smooth="yes"/>
      <point x="55" y="113"/>
      <point x="188" y="-36"/>
    </contour>
    <contour>
      <point x="596" y="245" type="curve" smooth="yes"/>
      <point x="455" y="245"/>
      <point x="411" y="292"/>
      <point x="411" y="371" type="curve" smooth="yes"/>
      <point x="411" y="376" type="line" smooth="yes"/>
      <point x="411" y="449"/>
      <point x="453" y="498"/>
      <point x="583" y="523" type="curve"/>
      <point x="725" y="498"/>
      <point x="775" y="458"/>
      <point x="775" y="376" type="curve" smooth="yes"/>
      <point x="775" y="371" type="line" smooth="yes"/>
      <point x="775" y="294"/>
      <point x="734" y="245"/>
    </contour>
    <contour>
      <point x="602" y="774" type="curve"/>
      <point x="460" y="794"/>
      <point x="416" y="843"/>
      <point x="416" y="917" type="curve" smooth="yes"/>
      <point x="416" y="923" type="line" smooth="yes"/>
      <point x="416" y="996"/>
      <point x="465" y="1041"/>
      <point x="591" y="1041" type="curve" smooth="yes"/>
      <point x="722" y="1041"/>
      <point x="770" y="996"/>
      <point x="770" y="921" type="curve" smooth="yes"/>
      <point x="770" y="915" type="line" smooth="yes"/>
      <point x="770" y="841"/>
      <point x="718" y="791"/>
    </contour>
  </outline>
</glyph>
<glyph name="less" format="2">
  <advance width="1028"/>
  <unicode hex="003C"/>
  <outline>
    <contour>
      <point x="943" y="720" type="line"/>
      <point x="943" y="1014" type="line"/>
      <point x="84" y="840" type="line"/>
      <point x="84" y="389" type="line"/>
      <point x="943" y="215" type="line"/>
      <point x="943" y="509" type="line"/>
      <point x="318" y="605" type="line"/>
      <point x="318" y="625" type="line"/>
    </contour>
  </outline>
</glyph>
<glyph name="J" format="2">
  <advance width="838"/>
  <unicode hex="004A"/>
  <anchor x="425" y="0" name="bottom"/>
  <anchor x="558" y="1278" name="top"/>
  <outline>
    <contour>
      <point x="295" y="-21" type="curve" smooth="yes"/>
      <point x="618" y="-21"/>
      <point x="742" y="136"/>
      <point x="742" y="442" type="curve" smooth="yes"/>
      <point x="742" y="1278" type="line"/>
      <point x="379" y="1278" type="line"/>
      <point x="379" y="464" type="line" smooth="yes"/>
      <point x="379" y="345"/>
      <point x="345" y="289"/>
      <point x="209" y="289" type="curve" smooth="yes"/>
      <point x="149" y="289"/>
      <point x="93" y="301"/>
      <point x="34" y="319" type="curve"/>
      <point x="60" y="17" type="line"/>
      <point x="127" y="-8"/>
      <point x="213" y="-21"/>
    </contour>
  </outline>
</glyph>
<glyph name="N" format="2">
  <advance width="1329"/>
  <unicode hex="004E"/>
  <anchor x="670" y="0" name="bottom"/>
  <anchor x="670" y="1278" name="top"/>
  <outline>
    <contour>
      <point x="104" y="1279" type="line"/>
      <point x="104" y="0" type="line"/>
      <point x="447" y="0" type="line"/>
      <point x="447" y="368" type="line"/>
      <point x="431" y="910" type="line"/>
      <point x="445" y="910" type="line"/>
      <point x="751" y="0" type="line"/>
      <point x="1225" y="0" type="line"/>
      <point x="1225" y="1279" type="line"/>
      <point x="883" y="1279" type="line"/>
      <point x="883" y="929" type="line"/>
      <point x="899" y="395" type="line"/>
      <point x="885" y="395" type="line"/>
      <point x="593" y="1279" type="line"/>
    </contour>
  </outline>
</glyph>
<glyph name="R" format="2">
  <advance width="1230"/>
  <unicode hex="0052"/>
  <anchor x="625" y="0" name="bottom"/>
  <anchor x="616" y="1278" name="top"/>
  <outline>
    <contour>
      <point x="1184" y="0" type="line"/>
      <point x="1150" y="276" type="line" smooth="yes"/>
      <point x="1123" y="494"/>
      <point x="1061" y="600"/>
      <point x="824" y="617" type="curve"/>
      <point x="880" y="569" type="line"/>
      <point x="880" y="621" type="line"/>
      <point x="1063" y="628"/>
      <point x="1158" y="720"/>
      <point x="1158" y="898" type="curve" smooth="yes"/>
      <point x="1158" y="921" type="line" smooth="yes"/>
      <point x="1158" y="1154"/>
      <point x="1014" y="1278"/>
      <point x="687" y="1278" type="curve" smooth="yes"/>
      <point x="355" y="1278" type="line"/>
      <point x="355" y="991" type="line"/>
      <point x="634" y="991" type="line" smooth="yes"/>
      <point x="752" y="991"/>
      <point x="799" y="944"/>
      <point x="799" y="841" type="curve" smooth="yes"/>
      <point x="799" y="824" type="line" smooth="yes"/>
      <point x="799" y="721"/>
      <point x="750" y="674"/>
      <point x="634" y="674" type="curve" smooth="yes"/>
      <point x="356" y="673" type="line"/>
      <point x="356" y="399" type="line"/>
      <point x="626" y="398" type="line" smooth="yes"/>
      <point x="740" y="398"/>
      <point x="784" y="354"/>
      <point x="794" y="233" type="curve" smooth="yes"/>
      <point x="814" y="0" type="line"/>
    </contour>
    <contour>
      <point x="457" y="0" type="line"/>
      <point x="457" y="440" type="line"/>
      <point x="455" y="574" type="line"/>
      <point x="455" y="1278" type="line"/>
      <point x="104" y="1278" type="line"/>
      <point x="104" y="0" type="line"/>
    </contour>
  </outline>
</glyph>
<glyph name="grave" format="2">
  <advance width="729"/>
  <unicode hex="0060"/>
  <anchor x="486" y="1370" name="top"/>
  <outline>
    <contour>
      <point x="644" y="1078" type="line"/>
      <point x="644" y="1075" type="line"/>
      <point x="357" y="1075" type="line"/>
      <point x="113" y="1372" type="line"/>
      <point x="113" y="1376" type="line"/>
      <point x="475" y="1376" type="line"/>
    </contour>
  </outline>
</glyph>
<glyph name="f" format="2">
  <advance width="775"/>
  <unicode hex="0066"/>
  <anchor x="388" y="0" name="bottom"/>
  <anchor x="388" y="1313" name="top"/>
  <outline>
    <contour>
      <point x="456" y="1354" type="curve" smooth="yes"/>
      <point x="212" y="1354"/>
      <point x="100" y="1274"/>
      <point x="100" y="1130" type="curve" smooth="yes"/>
      <point x="100" y="1125" type="line" smooth="yes"/>
      <point x="100" y="1029"/>
      <point x="163" y="972"/>
      <point x="242" y="947" type="curve"/>
      <point x="242" y="913" type="line"/>
      <point x="469" y="921" type="line"/>
      <point x="455" y="940"/>
      <point x="446" y="958"/>
      <point x="446" y="985" type="curve"/>
      <point x="446" y="987" type="line"/>
      <point x="446" y="1041"/>
      <point x="472" y="1076"/>
      <point x="593" y="1076" type="curve" smooth="yes"/>
      <point x="659" y="1076"/>
      <point x="716" y="1066"/>
      <point x="767" y="1054" type="curve"/>
      <point x="737" y="1312" type="line"/>
      <point x="667" y="1335"/>
      <point x="566" y="1354"/>
    </contour>
    <contour>
      <point x="486" y="0" type="line"/>
      <point x="486" y="841" type="line"/>
      <point x="134" y="841" type="line"/>
      <point x="134" y="0" type="line"/>
    </contour>
    <contour>
      <point x="738" y="662" type="line"/>
      <point x="767" y="940" type="line"/>
      <point x="422" y="940" type="line"/>
      <point x="290" y="937" type="line"/>
      <point x="11" y="940" type="line"/>
      <point x="11" y="662" type="line"/>
    </contour>
  </outline>
</glyph>
<glyph name="i" format="2">
  <advance width="537"/>
  <unicode hex="0069"/>
  <anchor x="269" y="0" name="bottom"/>
  <anchor x="480" y="0" name="ogonek"/>
  <outline>
    <contour>
      <point x="446" y="0" type="line"/>
      <point x="446" y="985" type="line"/>
      <point x="92" y="985" type="line"/>
      <point x="92" y="0" type="line"/>
    </contour>
    <contour>
      <point x="269" y="1056" type="curve" smooth="yes"/>
      <point x="397" y="1056"/>
      <point x="454" y="1117"/>
      <point x="454" y="1217" type="curve" smooth="yes"/>
      <point x="454" y="1225" type="line" smooth="yes"/>
      <point x="454" y="1323"/>
      <point x="397" y="1386"/>
      <point x="269" y="1386" type="curve" smooth="yes"/>
      <point x="139" y="1386"/>
      <point x="84" y="1323"/>
      <point x="84" y="1225" type="curve" smooth="yes"/>
      <point x="84" y="1217" type="line" smooth="yes"/>
      <point x="84" y="1118"/>
      <point x="139" y="1056"/>
    </contour>
  </outline>
</glyph>
<glyph name="o" format="2">
  <advance width="1112"/>
  <unicode hex="006F"/>
  <anchor x="557" y="0" name="bottom"/>
  <anchor x="557" y="493" name="center"/>
  <anchor x="857" y="10" name="ogonek"/>
  <anchor x="557" y="985" name="top"/>
  <anchor x="1101" y="985" name="topright"/>
  <outline>
    <contour>
      <point x="556" y="-30" type="curve" smooth="yes"/>
      <point x="887" y="-30"/>
      <point x="1054" y="139"/>
      <point x="1054" y="425" type="curve"/>
      <point x="1054" y="550" type="line"/>
      <point x="1054" y="842"/>
      <point x="885" y="1015"/>
      <point x="556" y="1015" type="curve" smooth="yes"/>
      <point x="228" y="1015"/>
      <point x="58" y="842"/>
      <point x="58" y="550" type="curve"/>
      <point x="58" y="425" type="line"/>
      <point x="58" y="139"/>
      <point x="226" y="-30"/>
    </contour>
    <contour>
      <point x="556" y="248" type="curve" smooth="yes"/>
      <point x="462" y="248"/>
      <point x="412" y="307"/>
      <point x="412" y="412" type="curve" smooth="yes"/>
      <point x="412" y="564" type="line" smooth="yes"/>
      <point x="412" y="677"/>
      <point x="462" y="737"/>
      <point x="556" y="737" type="curve" smooth="yes"/>
      <point x="651" y="737"/>
      <point x="700" y="677"/>
      <point x="700" y="564" type="curve" smooth="yes"/>
      <point x="700" y="412" type="line" smooth="yes"/>
      <point x="700" y="307"/>
      <point x="651" y="248"/>
    </contour>
  </outline>
</glyph>
<glyph name="x" format="2">
  <advance width="1091"/>
  <unicode hex="0078"/>
  <anchor x="546" y="0" name="bottom"/>
  <anchor x="546" y="985" name="top"/>
  <outline>
    <contour>
      <point x="389" y="0" type="line"/>
      <point x="536" y="340" type="line"/>
      <point x="556" y="340" type="line"/>
      <point x="702" y="0" type="line"/>
      <point x="1081" y="0" type="line"/>
      <point x="810" y="560" type="line"/>
      <point x="810" y="465" type="line"/>
      <point x="1073" y="985" type="line"/>
      <point x="695" y="985" type="line"/>
      <point x="556" y="659" type="line"/>
      <point x="536" y="659" type="line"/>
      <point x="397" y="985" type="line"/>
      <point x="18" y="985" type="line"/>
      <point x="282" y="465" type="line"/>
      <point x="282" y="560" type="line"/>
      <point x="10" y="0" type="line"/>
    </contour>
  </outline>
</glyph>
<glyph name="z" format="2">
  <advance width="966"/>
  <unicode hex="007A"/>
  <anchor x="483" y="0" name="bottom"/>
  <anchor x="483" y="493" name="center"/>
  <anchor x="483" y="985" name="top"/>
  <outline>
    <contour>
      <point x="486" y="290" type="line"/>
      <point x="899" y="723" type="line"/>
      <point x="899" y="985" type="line"/>
      <point x="65" y="985" type="line"/>
      <point x="65" y="696" type="line"/>
      <point x="472" y="696" type="line"/>
      <point x="61" y="263" type="line"/>
      <point x="61" y="0" type="line"/>
      <point x="905" y="0" type="line"/>
      <point x="905" y="290" type="line"/>
    </contour>
  </outline>
</glyph>
<glyph name="braceleft" format="2">
  <advance width="703"/>
  <unicode hex="007B"/>
  <outline>
    <contour>
      <point x="657" y="1335" type="line"/>
      <point x="606" y="1347"/>
      <point x="545" y="1357"/>
      <point x="485" y="1357" type="curve" smooth="yes"/>
      <point x="264" y="1357"/>
      <point x="157" y="1264"/>
      <point x="157" y="1033" type="curve" smooth="yes"/>
      <point x="157" y="976"/>
      <point x="170" y="846"/>
      <point x="170" y="797" type="curve" smooth="yes"/>
      <point x="170" y="727"/>
      <point x="137" y="693"/>
      <point x="50" y="689" type="curve"/>
      <point x="50" y="410" type="line"/>
      <point x="137" y="406"/>
      <point x="170" y="373"/>
      <point x="170" y="303" type="curve" smooth="yes"/>
      <point x="170" y="254"/>
      <point x="157" y="124"/>
      <point x="157" y="66" type="curve" smooth="yes"/>
      <point x="157" y="-167"/>
      <point x="264" y="-260"/>
      <point x="485" y="-260" type="curve" smooth="yes"/>
      <point x="545" y="-260"/>
      <point x="605" y="-251"/>
      <point x="657" y="-238" type="curve"/>
      <point x="657" y="9" type="line"/>
      <point x="639" y="5"/>
      <point x="616" y="1"/>
      <point x="591" y="1" type="curve" smooth="yes"/>
      <point x="515" y="1"/>
      <point x="486" y="32"/>
      <point x="486" y="105" type="curve" smooth="yes"/>
      <point x="486" y="150"/>
      <point x="499" y="271"/>
      <point x="499" y="322" type="curve" smooth="yes"/>
      <point x="499" y="447"/>
      <point x="455" y="527"/>
      <point x="307" y="546" type="curve"/>
      <point x="321" y="539" type="line"/>
      <point x="321" y="556" type="line"/>
      <point x="456" y="578"/>
      <point x="499" y="654"/>
      <point x="499" y="777" type="curve" smooth="yes"/>
      <point x="499" y="828"/>
      <point x="486" y="949"/>
      <point x="486" y="994" type="curve" smooth="yes"/>
      <point x="486" y="1067"/>
      <point x="514" y="1098"/>
      <point x="587" y="1098" type="curve" smooth="yes"/>
      <point x="614" y="1098"/>
      <point x="638" y="1094"/>
      <point x="657" y="1090" type="curve"/>
    </contour>
  </outline>
</glyph>
<glyph name="asciitilde" format="2">
  <advance width="1114"/>
  <unicode hex="007E"/>
  <outline>
    <contour>
      <point x="753" y="460" type="curve" smooth="yes"/>
      <point x="952" y="460"/>
      <point x="1030" y="579"/>
      <point x="1030" y="781" type="curve" smooth="yes"/>
      <point x="1030" y="848" type="line"/>
      <point x="782" y="848" type="line"/>
      <point x="782" y="844" type="line"/>
      <point x="779" y="779"/>
      <point x="764" y="747"/>
      <point x="705" y="747" type="curve" smooth="yes"/>
      <point x="618" y="747"/>
      <point x="506" y="818"/>
      <point x="360" y="818" type="curve" smooth="yes"/>
      <point x="162" y="818"/>
      <point x="84" y="702"/>
      <point x="84" y="497" type="curve" smooth="yes"/>
      <point x="84" y="429" type="line"/>
      <point x="332" y="429" type="line"/>
      <point x="332" y="438" type="line"/>
      <point x="335" y="501"/>
      <point x="350" y="530"/>
      <point x="409" y="530" type="curve" smooth="yes"/>
      <point x="496" y="530"/>
      <point x="612" y="460"/>
    </contour>
  </outline>
</glyph>
<glyph name="currency" format="2">
  <advance width="1146"/>
  <unicode hex="00A4"/>
  <outline>
    <contour>
      <point x="572" y="205" type="curve" smooth="yes"/>
      <point x="850" y="205"/>
      <point x="996" y="347"/>
      <point x="996" y="599" type="curve" smooth="yes"/>
      <point x="996" y="623" type="line" smooth="yes"/>
      <point x="996" y="874"/>
      <point x="850" y="1016"/>
      <point x="572" y="1016" type="curve" smooth="yes"/>
      <point x="294" y="1016"/>
      <point x="148" y="874"/>
      <point x="148" y="623" type="curve" smooth="yes"/>
      <point x="148" y="599" type="line" smooth="yes"/>
      <point x="148" y="347"/>
      <point x="294" y="205"/>
    </contour>
    <contour>
      <point x="572" y="466" type="curve" smooth="yes"/>
      <point x="498" y="466"/>
      <point x="462" y="509"/>
      <point x="462" y="592" type="curve" smooth="yes"/>
      <point x="462" y="629" type="line" smooth="yes"/>
      <point x="462" y="713"/>
      <point x="498" y="755"/>
      <point x="572" y="755" type="curve" smooth="yes"/>
      <point x="646" y="755"/>
      <point x="680" y="712"/>
      <point x="681" y="629" type="curve" smooth="yes"/>
      <point x="682" y="592" type="line" smooth="yes"/>
      <point x="683" y="509"/>
      <point x="646" y="466"/>
    </contour>
    <contour>
      <point x="685" y="311" type="line"/>
      <point x="898" y="84" type="line"/>
      <point x="1093" y="252" type="line"/>
      <point x="876" y="485" type="line"/>
    </contour>
    <contour>
      <point x="275" y="487" type="line"/>
      <point x="54" y="252" type="line"/>
      <point x="248" y="84" type="line"/>
      <point x="461" y="311" type="line"/>
    </contour>
    <contour>
      <point x="456" y="910" type="line"/>
      <point x="248" y="1131" type="line"/>
      <point x="54" y="963" type="line"/>
      <point x="257" y="745" type="line"/>
    </contour>
    <contour>
      <point x="872" y="726" type="line"/>
      <point x="1092" y="963" type="line"/>
      <point x="898" y="1131" type="line"/>
      <point x="685" y="903" type="line"/>
    </contour>
  </outline>
</glyph>
<glyph name="brokenbar" format="2">
  <advance width="541"/>
  <unicode hex="00A6"/>
  <outline>
    <contour>
      <point x="419" y="1421" type="line"/>
      <point x="122" y="1421" type="line"/>
      <point x="122" y="579" type="line"/>
      <point x="419" y="579" type="line"/>
    </contour>
    <contour>
      <point x="419" y="441" type="line"/>
      <point x="122" y="441" type="line"/>
      <point x="122" y="-413" type="line"/>
      <point x="419" y="-413" type="line"/>
    </contour>
  </outline>
</glyph>
<glyph name="micro" format="2">
  <advance width="1163"/>
  <unicode hex="00B5"/>
  <outline>
    <contour>
      <point x="717" y="985" type="line"/>
      <point x="717" y="289" type="line"/>
      <point x="748" y="262" type="line"/>
      <point x="737" y="0" type="line"/>
      <point x="1071" y="0" type="line"/>
      <point x="1071" y="985" type="line"/>
    </contour>
    <contour>
      <point x="446" y="985" type="line"/>
      <point x="92" y="985" type="line"/>
      <point x="92" y="-344" type="line"/>
      <point x="437" y="-344" type="line"/>
      <point x="437" y="-284" type="line"/>
      <point x="415" y="60" type="line"/>
      <point x="421" y="60" type="line"/>
      <point x="446" y="10"/>
      <point x="485" y="-21"/>
      <point x="558" y="-21" type="curve" smooth="yes"/>
      <point x="668" y="-21"/>
      <point x="711" y="58"/>
      <point x="733" y="212" type="curve"/>
      <point x="787" y="212" type="line"/>
      <point x="721" y="364" type="line"/>
      <point x="698" y="311"/>
      <point x="650" y="268"/>
      <point x="578" y="268" type="curve" smooth="yes"/>
      <point x="479" y="268"/>
      <point x="446" y="326"/>
      <point x="446" y="421" type="curve"/>
    </contour>
  </outline>
</glyph>
<glyph name="AE" format="2">
  <advance width="1877"/>
  <unicode hex="00C6"/>
  <anchor x="938" y="0" name="bottom"/>
  <anchor x="938" y="1278" name="top"/>
  <outline>
    <contour>
      <point x="393" y="0" type="line"/>
      <point x="837" y="1041" type="line"/>
      <point x="941" y="1041" type="line"/>
      <point x="943" y="1278" type="line"/>
      <point x="586" y="1278" type="line"/>
      <point x="8" y="0" type="line"/>
    </contour>
    <contour>
      <point x="916" y="277" type="line"/>
      <point x="916" y="553" type="line"/>
      <point x="343" y="553" type="line"/>
      <point x="343" y="277" type="line"/>
    </contour>
    <contour>
      <point x="1801" y="0" type="line"/>
      <point x="1801" y="301" type="line"/>
      <point x="978" y="301" type="line"/>
      <point x="978" y="0" type="line"/>
    </contour>
    <contour>
      <point x="1226" y="0" type="line"/>
      <point x="1226" y="1278" type="line"/>
      <point x="873" y="1278" type="line"/>
      <point x="873" y="0" type="line"/>
    </contour>
    <contour>
      <point x="1776" y="504" type="line"/>
      <point x="1776" y="791" type="line"/>
      <point x="1081" y="791" type="line"/>
      <point x="1081" y="504" type="line"/>
    </contour>
    <contour>
      <point x="1792" y="980" type="line"/>
      <point x="1792" y="1278" type="line"/>
      <point x="978" y="1278" type="line"/>
      <point x="978" y="980" type="line"/>
    </contour>
  </outline>
</glyph>
<glyph name="multiply" format="2">
  <advance width="971"/>
  <unicode hex="00D7"/>
  <outline>
    <contour>
      <point x="250" y="1035" type="line"/>
      <point x="49" y="856" type="line"/>
      <point x="725" y="190" type="line"/>
      <point x="925" y="369" type="line"/>
    </contour>
    <contour>
      <point x="246" y="190" type="line"/>
      <point x="921" y="856" type="line"/>
      <point x="721" y="1035" type="line"/>
      <point x="46" y="369" type="line"/>
    </contour>
  </outline>
</glyph>
<glyph name="ae" format="2">
  <advance width="1676"/>
  <unicode hex="00E6"/>
  <anchor x="838" y="0" name="bottom"/>
  <anchor x="838" y="985" name="top"/>
  <outline>
    <contour>
      <point x="1217" y="-27" type="curve" smooth="yes"/>
      <point x="1366" y="-27"/>
      <point x="1490" y="-1"/>
      <point x="1576" y="44" type="curve"/>
      <point x="1604" y="301" type="line"/>
      <point x="1501" y="266"/>
      <point x="1391" y="246"/>
      <point x="1276" y="246" type="curve" smooth="yes"/>
      <point x="1046" y="246"/>
      <point x="989" y="323"/>
      <point x="989" y="408" type="curve" smooth="yes"/>
      <point x="989" y="473" type="line"/>
      <point x="987" y="509" type="line"/>
      <point x="987" y="595" type="line" smooth="yes"/>
      <point x="987" y="691"/>
      <point x="1033" y="759"/>
      <point x="1141" y="759" type="curve" smooth="yes"/>
      <point x="1249" y="759"/>
      <point x="1295" y="703"/>
      <point x="1295" y="598" type="curve" smooth="yes"/>
      <point x="1295" y="541"/>
      <point x="1293" y="467"/>
      <point x="1288" y="386" type="curve"/>
      <point x="1605" y="386" type="line"/>
      <point x="1614" y="432"/>
      <point x="1619" y="491"/>
      <point x="1619" y="544" type="curve" smooth="yes"/>
      <point x="1619" y="575" type="line" smooth="yes"/>
      <point x="1619" y="854"/>
      <point x="1467" y="1017"/>
      <point x="1176" y="1017" type="curve" smooth="yes"/>
      <point x="1005" y="1017"/>
      <point x="889" y="954"/>
      <point x="821" y="835" type="curve"/>
      <point x="809" y="835" type="line"/>
      <point x="758" y="937"/>
      <point x="658" y="1012"/>
      <point x="480" y="1012" type="curve" smooth="yes"/>
      <point x="336" y="1012"/>
      <point x="214" y="975"/>
      <point x="125" y="931" type="curve"/>
      <point x="96" y="661" type="line"/>
      <point x="205" y="701"/>
      <point x="325" y="737"/>
      <point x="454" y="737" type="curve" smooth="yes"/>
      <point x="596" y="737"/>
      <point x="650" y="695"/>
      <point x="650" y="603" type="curve"/>
      <point x="656" y="471" type="line"/>
      <point x="656" y="416"/>
      <point x="658" y="355"/>
      <point x="675" y="289" type="curve"/>
      <point x="694" y="229" type="line"/>
      <point x="752" y="72"/>
      <point x="919" y="-27"/>
    </contour>
    <contour>
      <point x="359" y="-24" type="curve" smooth="yes"/>
      <point x="573" y="-24"/>
      <point x="653" y="62"/>
      <point x="715" y="166" type="curve"/>
      <point x="774" y="166" type="line"/>
      <point x="675" y="333" type="line"/>
      <point x="646" y="280"/>
      <point x="587" y="235"/>
      <point x="484" y="235" type="curve" smooth="yes"/>
      <point x="410" y="235"/>
      <point x="382" y="267"/>
      <point x="382" y="314" type="curve" smooth="yes"/>
      <point x="382" y="318" type="line" smooth="yes"/>
      <point x="382" y="368"/>
      <point x="407" y="392"/>
      <point x="485" y="403" type="curve" smooth="yes"/>
      <point x="698" y="434" type="line"/>
      <point x="677" y="636" type="line"/>
      <point x="426" y="604" type="line" smooth="yes"/>
      <point x="160" y="570"/>
      <point x="46" y="488"/>
      <point x="46" y="291" type="curve" smooth="yes"/>
      <point x="46" y="266" type="line" smooth="yes"/>
      <point x="46" y="82"/>
      <point x="145" y="-24"/>
    </contour>
    <contour>
      <point x="1534" y="386" type="line"/>
      <point x="1534" y="594" type="line"/>
      <point x="840" y="594" type="line"/>
      <point x="840" y="386" type="line"/>
    </contour>
  </outline>
</glyph>
<glyph name="Anuswara.mlm" format="2">
  <advance width="997"/>
  <unicode hex="0D02"/>
  <outline>
    <contour>
      <point x="614" y="408" type="curve" smooth="yes"/>
      <point x="614" y="376" type="line" smooth="yes"/>
      <point x="614" y="285.662"/>
      <point x="575" y="241"/>
      <point x="498" y="241" type="curve" smooth="yes"/>
      <point x="421" y="241"/>
      <point x="382" y="285.662"/>
      <point x="382" y="376" type="curve" smooth="yes"/>
      <point x="382" y="408" type="line" smooth="yes"/>
      <point x="382" y="498.348"/>
      <point x="421" y="542"/>
      <point x="498" y="542" type="curve" smooth="yes"/>
      <point x="575" y="542"/>
      <point x="614" y="498.348"/>
    </contour>
    <contour>
      <point x="62" y="409" type="curve" smooth="yes"/>
      <point x="62" y="375" type="line" smooth="yes"/>
      <point x="62" y="105.68"/>
      <point x="211" y="-33"/>
      <point x="498" y="-33" type="curve" smooth="yes"/>
      <point x="785" y="-33"/>
      <point x="934" y="105.68"/>
      <point x="934" y="375" type="curve" smooth="yes"/>
      <point x="934" y="409" type="line" smooth="yes"/>
      <point x="934" y="678.32"/>
      <point x="785" y="817"/>
      <point x="498" y="817" type="curve" smooth="yes"/>
      <point x="211" y="817"/>
      <point x="62" y="678.32"/>
    </contour>
  </outline>
</glyph>
<glyph name="uni0D04" format="2">
  <advance width="1298"/>
  <unicode hex="0D04"/>
  <outline>
    <contour>
      <point x="649" y="1046" type="curve" smooth="yes"/>
      <point x="548" y="1046"/>
      <point x="496" y="982"/>
      <point x="496" y="856" type="curve" smooth="yes"/>
      <point x="496" y="739" type="line" smooth="yes"/>
      <point x="496" y="615"/>
      <point x="548" y="550"/>
      <point x="649" y="550" type="curve" smooth="yes"/>
      <point x="751" y="550"/>
      <point x="802" y="615"/>
      <point x="802" y="739" type="curve" smooth="yes"/>
      <point x="802" y="856" type="line" smooth="yes"/>
      <point x="802" y="982"/>
      <point x="751" y="1046"/>
    </contour>
    <contour>
      <point x="649" y="113" type="curve" smooth="yes"/>
      <point x="1033" y="113"/>
      <point x="1231" y="297.594"/>
      <point x="1231" y="692" type="curve" smooth="yes"/>
      <point x="1231" y="843" type="line"/>
      <point x="932" y="843" type="line"/>
      <point x="932" y="722" type="line" smooth="yes"/>
      <point x="932" y="494.585"/>
      <point x="847" y="389"/>
      <point x="649" y="389" type="curve" smooth="yes"/>
      <point x="452" y="389"/>
      <point x="366" y="494.585"/>
      <point x="366" y="722" type="curve" smooth="yes"/>
      <point x="366" y="843" type="line"/>
      <point x="67" y="843" type="line"/>
      <point x="67" y="692" type="line" smooth="yes"/>
      <point x="67" y="297.594"/>
      <point x="265" y="113"/>
    </contour>
  </outline>
</glyph>
<glyph name="vowelAa.mlm" format="2">
  <advance width="3487"/>
  <unicode hex="0D06"/>
  <outline>
    <contour>
      <point x="2874" y="600" type="line"/>
      <point x="3038" y="587.92"/>
      <point x="3105" y="477.184"/>
      <point x="3105" y="299" type="curve" smooth="yes"/>
      <point x="3105" y="268" type="line" smooth="yes"/>
      <point x="3105" y="-1.34335"/>
      <point x="2973" y="-133"/>
      <point x="2645" y="-133" type="curve" smooth="yes"/>
      <point x="2493" y="-133"/>
      <point x="2368" y="-117"/>
      <point x="2235" y="-72" type="curve"/>
      <point x="2295" y="-338" type="line"/>
      <point x="2413" y="-378"/>
      <point x="2543" y="-395"/>
      <point x="2681" y="-395" type="curve" smooth="yes"/>
      <point x="3190" y="-395"/>
      <point x="3427" y="-183.348"/>
      <point x="3427" y="254" type="curve" smooth="yes"/>
      <point x="3427" y="290" type="line" smooth="yes"/>
      <point x="3427" y="620.188"/>
      <point x="3234" y="828.939"/>
      <point x="2874" y="846" type="curve"/>
    </contour>
    <contour>
      <point x="2334" y="922" type="curve" smooth="yes"/>
      <point x="2488" y="922"/>
      <point x="2590" y="877"/>
      <point x="2641" y="796" type="curve"/>
      <point x="2661" y="684" type="line"/>
      <point x="2661" y="649"/>
      <point x="2661" y="629"/>
      <point x="2661" y="593" type="curve" smooth="yes"/>
      <point x="2661" y="434" type="line" smooth="yes"/>
      <point x="2661" y="325.592"/>
      <point x="2632" y="280"/>
      <point x="2557" y="280" type="curve" smooth="yes"/>
      <point x="2489" y="280"/>
      <point x="2457" y="323.717"/>
      <point x="2457" y="402" type="curve" smooth="yes"/>
      <point x="2457" y="427" type="line" smooth="yes"/>
      <point x="2457" y="533.243"/>
      <point x="2510" y="598"/>
      <point x="2638" y="598" type="curve" smooth="yes"/>
      <point x="2670" y="598"/>
      <point x="2698" y="597"/>
      <point x="2731" y="595" type="curve"/>
      <point x="2753" y="835" type="line"/>
      <point x="2723" y="840"/>
      <point x="2658" y="847"/>
      <point x="2608" y="847" type="curve" smooth="yes"/>
      <point x="2312" y="847"/>
      <point x="2134" y="697.304"/>
      <point x="2134" y="417" type="curve" smooth="yes"/>
      <point x="2134" y="397" type="line" smooth="yes"/>
      <point x="2134" y="143.691"/>
      <point x="2279" y="10"/>
      <point x="2553" y="10" type="curve" smooth="yes"/>
      <point x="2842" y="10"/>
      <point x="2979" y="161.699"/>
      <point x="2979" y="444" type="curve" smooth="yes"/>
      <point x="2979" y="587" type="line" smooth="yes"/>
      <point x="2979" y="622"/>
      <point x="2979" y="647"/>
      <point x="2979" y="680" type="curve"/>
      <point x="2968" y="746" type="line" smooth="yes"/>
      <point x="2919" y="1039"/>
      <point x="2714" y="1204"/>
      <point x="2349" y="1204" type="curve" smooth="yes"/>
      <point x="2036" y="1204"/>
      <point x="1872" y="1088"/>
      <point x="1827" y="904" type="curve"/>
      <point x="1770" y="904" type="line"/>
      <point x="1783" y="544" type="line"/>
      <point x="1990" y="513" type="line"/>
      <point x="1990" y="617" type="line" smooth="yes"/>
      <point x="1990" y="824"/>
      <point x="2106" y="922"/>
    </contour>
    <contour>
      <point x="1653" y="4" type="line"/>
      <point x="1990" y="4" type="line"/>
      <point x="1990" y="629" type="line"/>
      <point x="1653" y="582" type="line"/>
    </contour>
    <contour>
      <point x="1818" y="904" type="line"/>
      <point x="1782" y="1080"/>
      <point x="1644" y="1202"/>
      <point x="1368" y="1202" type="curve" smooth="yes"/>
      <point x="1208" y="1202"/>
      <point x="1086" y="1151"/>
      <point x="1023" y="1089" type="curve"/>
      <point x="1176" y="927" type="line"/>
      <point x="1222" y="943"/>
      <point x="1284" y="949"/>
      <point x="1348" y="949" type="curve" smooth="yes"/>
      <point x="1550" y="949"/>
      <point x="1653" y="840"/>
      <point x="1653" y="606" type="curve" smooth="yes"/>
      <point x="1653" y="502" type="line"/>
      <point x="1825" y="502" type="line"/>
    </contour>
    <contour>
      <point x="416" y="558" type="line" smooth="yes"/>
      <point x="416" y="811.351"/>
      <point x="537.65" y="938"/>
      <point x="782" y="938" type="curve" smooth="yes"/>
      <point x="840" y="938"/>
      <point x="885" y="930"/>
      <point x="933" y="917" type="curve"/>
      <point x="961" y="913"/>
      <point x="1008" y="900"/>
      <point x="1030" y="896" type="curve"/>
      <point x="1126" y="874"/>
      <point x="1161" y="831"/>
      <point x="1161" y="769" type="curve" smooth="yes"/>
      <point x="1161" y="765" type="line" smooth="yes"/>
      <point x="1161" y="720"/>
      <point x="1138" y="694"/>
      <point x="1087" y="690" type="curve" smooth="yes"/>
      <point x="1028" y="685" type="line"/>
      <point x="1028" y="424" type="line"/>
      <point x="1105" y="420" type="line" smooth="yes"/>
      <point x="1164" y="417"/>
      <point x="1187" y="391"/>
      <point x="1187" y="340" type="curve" smooth="yes"/>
      <point x="1187" y="334" type="line" smooth="yes"/>
      <point x="1187" y="273"/>
      <point x="1150" y="240"/>
      <point x="1068" y="240" type="curve" smooth="yes"/>
      <point x="962" y="240"/>
      <point x="916" y="298.575"/>
      <point x="916" y="426" type="curve" smooth="yes"/>
      <point x="916" y="566" type="line" smooth="yes"/>
      <point x="916" y="718.294"/>
      <point x="959" y="841.144"/>
      <point x="1080" y="898" type="curve"/>
      <point x="831" y="978" type="line"/>
      <point x="667" y="911.216"/>
      <point x="589" y="759.435"/>
      <point x="589" y="552" type="curve" smooth="yes"/>
      <point x="589" y="414" type="line" smooth="yes"/>
      <point x="589" y="119.701"/>
      <point x="745" y="-32"/>
      <point x="1068" y="-32" type="curve" smooth="yes"/>
      <point x="1366" y="-32"/>
      <point x="1519" y="84"/>
      <point x="1519" y="309" type="curve" smooth="yes"/>
      <point x="1519" y="317" type="line" smooth="yes"/>
      <point x="1519" y="457"/>
      <point x="1451" y="540"/>
      <point x="1290" y="557" type="curve"/>
      <point x="1290" y="565" type="line"/>
      <point x="1425" y="583"/>
      <point x="1487" y="647"/>
      <point x="1487" y="754" type="curve" smooth="yes"/>
      <point x="1487" y="760" type="line" smooth="yes"/>
      <point x="1487" y="852"/>
      <point x="1431" y="935"/>
      <point x="1274" y="977" type="curve"/>
      <point x="1174" y="1069" type="line"/>
      <point x="1103" y="1140"/>
      <point x="953" y="1203"/>
      <point x="736" y="1203" type="curve" smooth="yes"/>
      <point x="299.32" y="1203"/>
      <point x="78" y="986.206"/>
      <point x="78" y="560" type="curve" smooth="yes"/>
      <point x="78" y="448" type="line" smooth="yes"/>
      <point x="78" y="277.093"/>
      <point x="110" y="107.196"/>
      <point x="170" y="0" type="curve"/>
      <point x="512" y="0" type="line"/>
      <point x="449" y="130.466"/>
      <point x="416" y="278.125"/>
      <point x="416" y="445" type="curve" smooth="yes"/>
    </contour>
  </outline>
</glyph>
<glyph name="vowelRu.mlm" format="2">
  <advance width="1773"/>
  <unicode hex="0D0B"/>
  <outline>
    <contour>
      <point x="465" y="1204" type="curve" smooth="yes"/>
      <point x="191.078" y="1204"/>
      <point x="62" y="1057.31"/>
      <point x="62" y="797" type="curve" smooth="yes"/>
      <point x="62" y="715" type="line" smooth="yes"/>
      <point x="62" y="449.462"/>
      <point x="200" y="288.205"/>
      <point x="403" y="248" type="curve" smooth="yes"/>
      <point x="439.769" y="240.718"/>
      <point x="471" y="216"/>
      <point x="506" y="203" type="curve"/>
      <point x="808" y="404" type="line"/>
      <point x="505" y="404"/>
      <point x="361" y="496.684"/>
      <point x="361" y="675" type="curve" smooth="yes"/>
      <point x="361" y="687" type="line"/>
      <point x="380" y="687" type="line"/>
      <point x="375" y="763" type="line"/>
      <point x="375" y="839" type="line" smooth="yes"/>
      <point x="375" y="907.355"/>
      <point x="403.696" y="945"/>
      <point x="463" y="945" type="curve" smooth="yes"/>
      <point x="518.65" y="945"/>
      <point x="547" y="913.782"/>
      <point x="547" y="848" type="curve" smooth="yes"/>
      <point x="547" y="832" type="line" smooth="yes"/>
      <point x="547" y="777.974"/>
      <point x="519.312" y="746"/>
      <point x="465" y="746" type="curve" smooth="yes"/>
      <point x="420.398" y="746"/>
      <point x="390.031" y="766"/>
      <point x="372" y="797" type="curve"/>
      <point x="369" y="702" type="line"/>
      <point x="386.204" y="592.751"/>
      <point x="461.708" y="527"/>
      <point x="585" y="527" type="curve" smooth="yes"/>
      <point x="757.561" y="527"/>
      <point x="848" y="630.303"/>
      <point x="848" y="822" type="curve" smooth="yes"/>
      <point x="848" y="850" type="line" smooth="yes"/>
      <point x="848" y="1079.48"/>
      <point x="723.042" y="1204"/>
    </contour>
    <contour>
      <point x="1009" y="-330" type="line" smooth="yes"/>
      <point x="1379" y="-330"/>
      <point x="1572" y="-221"/>
      <point x="1572" y="-9" type="curve" smooth="yes"/>
      <point x="1572" y="119"/>
      <point x="1507" y="203"/>
      <point x="1370" y="239" type="curve"/>
      <point x="1370" y="269" type="line"/>
      <point x="1039" y="404" type="line"/>
      <point x="734" y="404" type="line"/>
      <point x="403" y="269" type="line"/>
      <point x="403" y="239" type="line"/>
      <point x="267" y="203"/>
      <point x="202" y="119"/>
      <point x="202" y="-9" type="curve" smooth="yes"/>
      <point x="202" y="-221"/>
      <point x="395" y="-330"/>
      <point x="764" y="-330" type="curve" smooth="yes"/>
    </contour>
    <contour>
      <point x="1000" y="144" type="line" smooth="yes"/>
      <point x="1165" y="144"/>
      <point x="1242" y="111"/>
      <point x="1242" y="38" type="curve" smooth="yes"/>
      <point x="1242" y="-35"/>
      <point x="1165" y="-69"/>
      <point x="1000" y="-69" type="curve" smooth="yes"/>
      <point x="773" y="-69" type="line" smooth="yes"/>
      <point x="609" y="-69"/>
      <point x="532" y="-35"/>
      <point x="532" y="38" type="curve" smooth="yes"/>
      <point x="532" y="111"/>
      <point x="609" y="144"/>
      <point x="773" y="144" type="curve" smooth="yes"/>
    </contour>
    <contour>
      <point x="1412" y="675" type="line" smooth="yes"/>
      <point x="1412" y="496.684"/>
      <point x="1269" y="404"/>
      <point x="966" y="404" type="curve"/>
      <point x="1268" y="203" type="line"/>
      <point x="1304" y="216"/>
      <point x="1334.2" y="240.909"/>
      <point x="1370" y="248" type="curve" smooth="yes"/>
      <point x="1573" y="288.205"/>
      <point x="1712" y="449.462"/>
      <point x="1712" y="715" type="curve" smooth="yes"/>
      <point x="1712" y="797" type="line" smooth="yes"/>
      <point x="1712" y="1057.31"/>
      <point x="1582.92" y="1204"/>
      <point x="1308" y="1204" type="curve" smooth="yes"/>
      <point x="1049.96" y="1204"/>
      <point x="925" y="1079.48"/>
      <point x="925" y="850" type="curve" smooth="yes"/>
      <point x="925" y="822" type="line" smooth="yes"/>
      <point x="925" y="630.303"/>
      <point x="1015.44" y="527"/>
      <point x="1188" y="527" type="curve" smooth="yes"/>
      <point x="1312.27" y="527"/>
      <point x="1387.79" y="592.751"/>
      <point x="1405" y="702" type="curve"/>
      <point x="1401" y="797" type="line"/>
      <point x="1382.97" y="764.784"/>
      <point x="1352.6" y="744"/>
      <point x="1308" y="744" type="curve" smooth="yes"/>
      <point x="1254.75" y="744"/>
      <point x="1226" y="776.718"/>
      <point x="1226" y="832" type="curve" smooth="yes"/>
      <point x="1226" y="848" type="line" smooth="yes"/>
      <point x="1226" y="913.782"/>
      <point x="1256.43" y="945"/>
      <point x="1311" y="945" type="curve" smooth="yes"/>
      <point x="1370.3" y="945"/>
      <point x="1399" y="907.355"/>
      <point x="1399" y="839" type="curve" smooth="yes"/>
      <point x="1399" y="763" type="line"/>
      <point x="1393" y="687" type="line"/>
      <point x="1412" y="687" type="line"/>
    </contour>
  </outline>
</glyph>
<glyph name="vowelLru.mlm" format="2">
  <advance width="2488"/>
  <unicode hex="0D0C"/>
  <outline>
    <contour>
      <point x="724" y="1204" type="curve" smooth="yes"/>
      <point x="288" y="1204"/>
      <point x="72" y="978.607"/>
      <point x="72" y="557" type="curve" smooth="yes"/>
      <point x="72" y="411" type="line" smooth="yes"/>
      <point x="72" y="118.683"/>
      <point x="220" y="-33"/>
      <point x="505" y="-33" type="curve" smooth="yes"/>
      <point x="786" y="-33"/>
      <point x="929" y="99.0261"/>
      <point x="929" y="353" type="curve" smooth="yes"/>
      <point x="929" y="420" type="line" smooth="yes"/>
      <point x="929" y="663.525"/>
      <point x="833" y="776"/>
      <point x="660" y="776" type="curve" smooth="yes"/>
      <point x="505" y="776"/>
      <point x="419" y="696"/>
      <point x="393" y="538" type="curve"/>
      <point x="397" y="446" type="line"/>
      <point x="417.812" y="482"/>
      <point x="456.464" y="505"/>
      <point x="508" y="505" type="curve" smooth="yes"/>
      <point x="571.326" y="505"/>
      <point x="602" y="468.314"/>
      <point x="602" y="398" type="curve" smooth="yes"/>
      <point x="602" y="353" type="line" smooth="yes"/>
      <point x="602" y="275.655"/>
      <point x="568.343" y="238"/>
      <point x="504" y="238" type="curve" smooth="yes"/>
      <point x="434.667" y="238"/>
      <point x="400" y="277.542"/>
      <point x="400" y="384" type="curve" smooth="yes"/>
      <point x="400" y="468" type="line"/>
      <point x="405" y="557" type="line"/>
      <point x="386" y="557" type="line"/>
      <point x="386" y="565" type="line" smooth="yes"/>
      <point x="386" y="806.708"/>
      <point x="507" y="922"/>
      <point x="738" y="922" type="curve" smooth="yes"/>
      <point x="962" y="922"/>
      <point x="1074" y="824"/>
      <point x="1074" y="626" type="curve" smooth="yes"/>
      <point x="1074" y="546" type="line"/>
      <point x="1237" y="546" type="line"/>
      <point x="1239" y="904" type="line"/>
      <point x="1195" y="1089"/>
      <point x="1030" y="1204"/>
    </contour>
    <contour>
      <point x="1074" y="4" type="line"/>
      <point x="1411" y="4" type="line"/>
      <point x="1411" y="638" type="line"/>
      <point x="1074" y="604" type="line"/>
    </contour>
    <contour>
      <point x="1771" y="1204" type="curve" smooth="yes"/>
      <point x="1457" y="1204"/>
      <point x="1292" y="1088"/>
      <point x="1247" y="904" type="curve"/>
      <point x="1191" y="904" type="line"/>
      <point x="1204" y="544" type="line"/>
      <point x="1411" y="513" type="line"/>
      <point x="1411" y="617" type="line" smooth="yes"/>
      <point x="1411" y="822"/>
      <point x="1525" y="922"/>
      <point x="1750" y="922" type="curve" smooth="yes"/>
      <point x="1983" y="922"/>
      <point x="2098" y="796.211"/>
      <point x="2098" y="603" type="curve"/>
      <point x="2098" y="603" type="line"/>
      <point x="2082" y="603" type="line"/>
      <point x="2093" y="531" type="line"/>
      <point x="2093" y="389" type="line" smooth="yes"/>
      <point x="2093" y="283.604"/>
      <point x="2061" y="238"/>
      <point x="1988" y="238" type="curve" smooth="yes"/>
      <point x="1921" y="238"/>
      <point x="1886" y="281.729"/>
      <point x="1886" y="358" type="curve" smooth="yes"/>
      <point x="1886" y="420" type="line" smooth="yes"/>
      <point x="1886" y="497.31"/>
      <point x="1921" y="538"/>
      <point x="1989" y="538" type="curve" smooth="yes"/>
      <point x="2035" y="538"/>
      <point x="2070" y="524.212"/>
      <point x="2097" y="503" type="curve"/>
      <point x="2093" y="589" type="line"/>
      <point x="2066" y="719.252"/>
      <point x="1984" y="797"/>
      <point x="1844" y="797" type="curve" smooth="yes"/>
      <point x="1669" y="797"/>
      <point x="1560" y="678.331"/>
      <point x="1560" y="442" type="curve" smooth="yes"/>
      <point x="1560" y="356" type="line" smooth="yes"/>
      <point x="1560" y="101.693"/>
      <point x="1707" y="-33"/>
      <point x="1986" y="-33" type="curve" smooth="yes"/>
      <point x="2273" y="-33"/>
      <point x="2416" y="117.688"/>
      <point x="2416" y="405" type="curve" smooth="yes"/>
      <point x="2416" y="556" type="line" smooth="yes"/>
      <point x="2416" y="991.344"/>
      <point x="2201" y="1204"/>
    </contour>
  </outline>
</glyph>
<glyph name="vowelE.mlm" format="2">
  <advance width="2731"/>
  <unicode hex="0D0F"/>
  <outline>
    <contour>
      <point x="532" y="806" type="curve" smooth="yes"/>
      <point x="224" y="806"/>
      <point x="68" y="653.33"/>
      <point x="68" y="349" type="curve" smooth="yes"/>
      <point x="68" y="300" type="line" smooth="yes"/>
      <point x="68" y="182.034"/>
      <point x="85" y="74.2373"/>
      <point x="118" y="0" type="curve"/>
      <point x="444" y="0" type="line"/>
      <point x="416" y="81.3793"/>
      <point x="396" y="177"/>
      <point x="396" y="295" type="curve" smooth="yes"/>
      <point x="396" y="343" type="line" smooth="yes"/>
      <point x="396" y="461.343"/>
      <point x="438" y="520"/>
      <point x="531" y="520" type="curve" smooth="yes"/>
      <point x="625" y="520"/>
      <point x="667" y="461.343"/>
      <point x="667" y="343" type="curve" smooth="yes"/>
      <point x="667" y="295" type="line" smooth="yes"/>
      <point x="667" y="187.066"/>
      <point x="647" y="95.4234"/>
      <point x="614" y="16" type="curve"/>
      <point x="614" y="0" type="line"/>
      <point x="841" y="0" type="line"/>
      <point x="945" y="95.3056"/>
      <point x="998" y="236.236"/>
      <point x="998" y="365" type="curve" smooth="yes"/>
      <point x="998" y="388" type="line" smooth="yes"/>
      <point x="998" y="665.317"/>
      <point x="842" y="806"/>
    </contour>
    <contour>
      <point x="1955" y="1208" type="curve" smooth="yes"/>
      <point x="1442" y="1208"/>
      <point x="1187" y="949.731"/>
      <point x="1187" y="462" type="curve" smooth="yes"/>
      <point x="1187" y="106" type="line" smooth="yes"/>
      <point x="1187" y="-250.364"/>
      <point x="1339" y="-431"/>
      <point x="1647" y="-431" type="curve" smooth="yes"/>
      <point x="1933" y="-431"/>
      <point x="2077" y="-287.314"/>
      <point x="2077" y="-5" type="curve" smooth="yes"/>
      <point x="2077" y="820" type="line"/>
      <point x="1763" y="820" type="line"/>
      <point x="1745" y="205" type="line"/>
      <point x="1752" y="75" type="line"/>
      <point x="1752" y="-27" type="line" smooth="yes"/>
      <point x="1752" y="-131.435"/>
      <point x="1718" y="-179"/>
      <point x="1648" y="-179" type="curve" smooth="yes"/>
      <point x="1565" y="-179"/>
      <point x="1520" y="-116"/>
      <point x="1520" y="21" type="curve" smooth="yes"/>
      <point x="1520" y="65" type="line"/>
      <point x="1523" y="113" type="line"/>
      <point x="1523" y="136"/>
      <point x="1523" y="165"/>
      <point x="1523" y="190" type="curve" smooth="yes"/>
      <point x="1523" y="458" type="line" smooth="yes"/>
      <point x="1523" y="770.624"/>
      <point x="1659" y="921"/>
      <point x="1955" y="921" type="curve" smooth="yes"/>
      <point x="2210" y="921"/>
      <point x="2328" y="813.257"/>
      <point x="2328" y="612" type="curve" smooth="yes"/>
      <point x="2328" y="598" type="line" smooth="yes"/>
      <point x="2328" y="490"/>
      <point x="2291" y="445"/>
      <point x="2208" y="437" type="curve" smooth="yes"/>
      <point x="2154" y="432" type="line"/>
      <point x="2154" y="161" type="line"/>
      <point x="2213" y="154" type="line" smooth="yes"/>
      <point x="2300" y="144"/>
      <point x="2341" y="102"/>
      <point x="2341" y="9" type="curve" smooth="yes"/>
      <point x="2341" y="0" type="line" smooth="yes"/>
      <point x="2341" y="-103"/>
      <point x="2296" y="-153"/>
      <point x="2201" y="-153" type="curve" smooth="yes"/>
      <point x="2176" y="-153"/>
      <point x="2152" y="-151"/>
      <point x="2125" y="-146" type="curve"/>
      <point x="2167" y="-400" type="line"/>
      <point x="2213" y="-410"/>
      <point x="2262" y="-414"/>
      <point x="2307" y="-414" type="curve" smooth="yes"/>
      <point x="2554" y="-414"/>
      <point x="2681" y="-279"/>
      <point x="2681" y="-39" type="curve" smooth="yes"/>
      <point x="2681" y="-28" type="line" smooth="yes"/>
      <point x="2681" y="165"/>
      <point x="2596" y="274"/>
      <point x="2428" y="294" type="curve"/>
      <point x="2428" y="302" type="line"/>
      <point x="2590" y="332"/>
      <point x="2667" y="434"/>
      <point x="2667" y="618" type="curve" smooth="yes"/>
      <point x="2667" y="632" type="line" smooth="yes"/>
      <point x="2667" y="982.039"/>
      <point x="2430" y="1208"/>
    </contour>
    <contour>
      <point x="909" y="259" type="line"/>
      <point x="630" y="0" type="line"/>
      <point x="1368" y="0" type="line"/>
      <point x="1430" y="8" type="line"/>
      <point x="1848" y="8" type="line"/>
      <point x="1863" y="259" type="line"/>
    </contour>
  </outline>
</glyph>
<glyph name="vowelshortO.mlm" format="2">
  <advance width="1605"/>
  <unicode hex="0D12"/>
  <outline>
    <contour>
      <point x="1171" y="-29" type="curve" smooth="yes"/>
      <point x="1423" y="-29"/>
      <point x="1546" y="74"/>
      <point x="1546" y="278" type="curve" smooth="yes"/>
      <point x="1546" y="289" type="line" smooth="yes"/>
      <point x="1546" y="444"/>
      <point x="1463" y="534"/>
      <point x="1288" y="557" type="curve"/>
      <point x="1288" y="565" type="line"/>
      <point x="1447" y="589"/>
      <point x="1522" y="672"/>
      <point x="1522" y="810" type="curve" smooth="yes"/>
      <point x="1522" y="818" type="line" smooth="yes"/>
      <point x="1522" y="1076"/>
      <point x="1293" y="1208"/>
      <point x="857" y="1208" type="curve" smooth="yes"/>
      <point x="333" y="1208"/>
      <point x="72" y="980.293"/>
      <point x="72" y="541" type="curve" smooth="yes"/>
      <point x="72" y="406" type="line" smooth="yes"/>
      <point x="72" y="116.682"/>
      <point x="218" y="-33"/>
      <point x="500" y="-33" type="curve" smooth="yes"/>
      <point x="775" y="-33"/>
      <point x="915" y="97.0238"/>
      <point x="915" y="348" type="curve" smooth="yes"/>
      <point x="915" y="423" type="line" smooth="yes"/>
      <point x="915" y="660.53"/>
      <point x="823" y="770"/>
      <point x="655" y="770" type="curve" smooth="yes"/>
      <point x="503" y="770"/>
      <point x="418" y="692"/>
      <point x="393" y="538" type="curve"/>
      <point x="397" y="445" type="line"/>
      <point x="416.813" y="480"/>
      <point x="453.467" y="502"/>
      <point x="503" y="502" type="curve" smooth="yes"/>
      <point x="562.326" y="502"/>
      <point x="591" y="467.313"/>
      <point x="591" y="401" type="curve" smooth="yes"/>
      <point x="591" y="345" type="line" smooth="yes"/>
      <point x="591" y="270.648"/>
      <point x="559.344" y="235"/>
      <point x="499" y="235" type="curve" smooth="yes"/>
      <point x="432.67" y="235"/>
      <point x="400" y="272.532"/>
      <point x="400" y="376" type="curve" smooth="yes"/>
      <point x="400" y="468" type="line"/>
      <point x="405" y="557" type="line"/>
      <point x="386" y="557" type="line"/>
      <point x="386" y="557" type="line"/>
      <point x="386" y="809.368"/>
      <point x="547" y="926"/>
      <point x="858" y="926" type="curve" smooth="yes"/>
      <point x="1077" y="926"/>
      <point x="1183" y="879"/>
      <point x="1183" y="781" type="curve" smooth="yes"/>
      <point x="1183" y="778" type="line" smooth="yes"/>
      <point x="1183" y="725"/>
      <point x="1154" y="702"/>
      <point x="1093" y="699" type="curve" smooth="yes"/>
      <point x="1000" y="694" type="line"/>
      <point x="1000" y="425" type="line"/>
      <point x="1096" y="419" type="line" smooth="yes"/>
      <point x="1173" y="414"/>
      <point x="1206" y="389"/>
      <point x="1206" y="333" type="curve" smooth="yes"/>
      <point x="1206" y="328" type="line" smooth="yes"/>
      <point x="1206" y="268"/>
      <point x="1166" y="238"/>
      <point x="1080" y="238" type="curve" smooth="yes"/>
      <point x="1038" y="238"/>
      <point x="1012" y="240"/>
      <point x="974" y="246" type="curve"/>
      <point x="1013" y="-14" type="line"/>
      <point x="1063" y="-25"/>
      <point x="1113" y="-29"/>
    </contour>
  </outline>
</glyph>
<glyph name="Ka.mlm" format="2">
  <advance width="2113"/>
  <unicode hex="0D15"/>
  <outline>
    <contour>
      <point x="1068" y="245" type="curve" smooth="yes"/>
      <point x="957" y="245"/>
      <point x="903" y="313.65"/>
      <point x="903" y="453" type="curve" smooth="yes"/>
      <point x="903" y="729" type="line" smooth="yes"/>
      <point x="903" y="869.408"/>
      <point x="957" y="935"/>
      <point x="1068" y="935" type="curve" smooth="yes"/>
      <point x="1179" y="935"/>
      <point x="1233" y="869.408"/>
      <point x="1233" y="729" type="curve" smooth="yes"/>
      <point x="1233" y="453" type="line" smooth="yes"/>
      <point x="1233" y="313.65"/>
      <point x="1179" y="245"/>
    </contour>
    <contour>
      <point x="1068" y="1211" type="curve" smooth="yes"/>
      <point x="747" y="1211"/>
      <point x="580" y="1045.3"/>
      <point x="580" y="723" type="curve" smooth="yes"/>
      <point x="580" y="454" type="line" smooth="yes"/>
      <point x="580" y="365.439"/>
      <point x="593" y="290.112"/>
      <point x="617" y="227" type="curve"/>
      <point x="651" y="179" type="line"/>
      <point x="720" y="37.3318"/>
      <point x="865" y="-33"/>
      <point x="1068" y="-33" type="curve" smooth="yes"/>
      <point x="1390" y="-33"/>
      <point x="1558" y="133.712"/>
      <point x="1558" y="454" type="curve" smooth="yes"/>
      <point x="1558" y="723" type="line" smooth="yes"/>
      <point x="1558" y="1045.3"/>
      <point x="1390" y="1211"/>
    </contour>
    <contour>
      <point x="1718" y="349" type="curve" smooth="yes"/>
      <point x="1718" y="317" type="line" smooth="yes"/>
      <point x="1718" y="193.834"/>
      <point x="1686" y="82.7834"/>
      <point x="1641" y="0" type="curve"/>
      <point x="1974" y="0" type="line"/>
      <point x="2025" y="79.7248"/>
      <point x="2049" y="206.881"/>
      <point x="2049" y="330" type="curve" smooth="yes"/>
      <point x="2049" y="371" type="line" smooth="yes"/>
      <point x="2049" y="637.335"/>
      <point x="1911" y="770"/>
      <point x="1643" y="770" type="curve" smooth="yes"/>
      <point x="1474" y="770" type="line"/>
      <point x="1341" y="765" type="line"/>
      <point x="773" y="765" type="line"/>
      <point x="676" y="771" type="line"/>
      <point x="493" y="771" type="line" smooth="yes"/>
      <point x="208" y="771"/>
      <point x="62" y="636.316"/>
      <point x="62" y="377" type="curve" smooth="yes"/>
      <point x="62" y="336" type="line" smooth="yes"/>
      <point x="62" y="92.6812"/>
      <point x="175" y="-33"/>
      <point x="383" y="-33" type="curve" smooth="yes"/>
      <point x="545" y="-33"/>
      <point x="622" y="51.4019"/>
      <point x="644" y="177" type="curve"/>
      <point x="659" y="179" type="line"/>
      <point x="596" y="307" type="line"/>
      <point x="580" y="260.378"/>
      <point x="547" y="232"/>
      <point x="494" y="232" type="curve" smooth="yes"/>
      <point x="429" y="232"/>
      <point x="392" y="268.621"/>
      <point x="392" y="350" type="curve" smooth="yes"/>
      <point x="392" y="375" type="line" smooth="yes"/>
      <point x="392" y="471.407"/>
      <point x="435" y="512"/>
      <point x="517" y="512" type="curve" smooth="yes"/>
      <point x="692" y="512" type="line"/>
      <point x="761" y="507" type="line"/>
      <point x="1351" y="507" type="line"/>
      <point x="1431" y="510" type="line"/>
      <point x="1586" y="510" type="line" smooth="yes"/>
      <point x="1675" y="510"/>
      <point x="1718" y="460.384"/>
    </contour>
  </outline>
</glyph>
<glyph name="Ga.mlm" format="2">
  <advance width="1751"/>
  <unicode hex="0D17"/>
  <outline>
    <contour>
      <point x="1177" y="1205" type="curve" smooth="yes"/>
      <point x="858" y="1205"/>
      <point x="698" y="1052.34"/>
      <point x="698" y="744" type="curve" smooth="yes"/>
      <point x="698" y="631.636"/>
      <point x="707" y="545.426"/>
      <point x="707" y="435" type="curve" smooth="yes"/>
      <point x="707" y="318.576"/>
      <point x="664" y="265"/>
      <point x="571" y="265" type="curve" smooth="yes"/>
      <point x="468" y="265"/>
      <point x="419" y="330.569"/>
      <point x="419" y="474" type="curve" smooth="yes"/>
      <point x="419" y="673" type="line" smooth="yes"/>
      <point x="419" y="858.909"/>
      <point x="464" y="1025.62"/>
      <point x="547" y="1160" type="curve"/>
      <point x="213" y="1160" type="line"/>
      <point x="122" y="1037.76"/>
      <point x="79" y="859.963"/>
      <point x="79" y="666" type="curve" smooth="yes"/>
      <point x="79" y="472" type="line" smooth="yes"/>
      <point x="79" y="133.657"/>
      <point x="245" y="-34"/>
      <point x="571" y="-34" type="curve" smooth="yes"/>
      <point x="887" y="-34"/>
      <point x="1045" y="118.67"/>
      <point x="1045" y="423" type="curve" smooth="yes"/>
      <point x="1045" y="535.364"/>
      <point x="1036" y="621.574"/>
      <point x="1036" y="732" type="curve" smooth="yes"/>
      <point x="1036" y="852.462"/>
      <point x="1082" y="906"/>
      <point x="1178" y="906" type="curve" smooth="yes"/>
      <point x="1280" y="906"/>
      <point x="1331" y="837.427"/>
      <point x="1331" y="688" type="curve" smooth="yes"/>
      <point x="1331" y="486" type="line" smooth="yes"/>
      <point x="1331" y="301.098"/>
      <point x="1286" y="133.372"/>
      <point x="1209" y="0" type="curve"/>
      <point x="1554" y="0" type="line"/>
      <point x="1632" y="114.167"/>
      <point x="1672" y="298.048"/>
      <point x="1672" y="489" type="curve" smooth="yes"/>
      <point x="1672" y="691" type="line" smooth="yes"/>
      <point x="1672" y="1034.34"/>
      <point x="1504" y="1205"/>
    </contour>
  </outline>
</glyph>
<glyph name="Nga.mlm" format="2">
  <advance width="2278"/>
  <unicode hex="0D19"/>
  <outline>
    <contour>
      <point x="1075" y="4" type="line"/>
      <point x="1412" y="4" type="line"/>
      <point x="1412" y="666" type="line"/>
      <point x="1075" y="595" type="line"/>
    </contour>
    <contour>
      <point x="721" y="1204" type="curve" smooth="yes"/>
      <point x="287" y="1204"/>
      <point x="72" y="976.516"/>
      <point x="72" y="551" type="curve" smooth="yes"/>
      <point x="72" y="413" type="line" smooth="yes"/>
      <point x="72" y="119.367"/>
      <point x="220" y="-33"/>
      <point x="505" y="-33" type="curve" smooth="yes"/>
      <point x="786" y="-33"/>
      <point x="929" y="99.7102"/>
      <point x="929" y="355" type="curve" smooth="yes"/>
      <point x="929" y="418" type="line" smooth="yes"/>
      <point x="929" y="662.893"/>
      <point x="833" y="776"/>
      <point x="660" y="776" type="curve" smooth="yes"/>
      <point x="505" y="776"/>
      <point x="419" y="696"/>
      <point x="393" y="538" type="curve"/>
      <point x="397" y="446" type="line"/>
      <point x="417.812" y="482"/>
      <point x="456.464" y="505"/>
      <point x="508" y="505" type="curve" smooth="yes"/>
      <point x="571.326" y="505"/>
      <point x="602" y="467.629"/>
      <point x="602" y="396" type="curve" smooth="yes"/>
      <point x="602" y="355" type="line" smooth="yes"/>
      <point x="602" y="276.31"/>
      <point x="568.343" y="238"/>
      <point x="504" y="238" type="curve" smooth="yes"/>
      <point x="434.667" y="238"/>
      <point x="400" y="278.083"/>
      <point x="400" y="386" type="curve" smooth="yes"/>
      <point x="400" y="468" type="line"/>
      <point x="405" y="557" type="line"/>
      <point x="386" y="557" type="line"/>
      <point x="386" y="559" type="line"/>
      <point x="386" y="804.771"/>
      <point x="507" y="922"/>
      <point x="739" y="922" type="curve" smooth="yes"/>
      <point x="963" y="922"/>
      <point x="1075" y="826"/>
      <point x="1075" y="632" type="curve" smooth="yes"/>
      <point x="1075" y="550" type="line"/>
      <point x="1237" y="550" type="line"/>
      <point x="1236" y="913" type="line"/>
      <point x="1192" y="1093"/>
      <point x="1030" y="1204"/>
    </contour>
    <contour>
      <point x="1702" y="1204" type="curve" smooth="yes"/>
      <point x="1428" y="1204"/>
      <point x="1269" y="1098"/>
      <point x="1245" y="913" type="curve"/>
      <point x="1155" y="913" type="line"/>
      <point x="1155" y="538" type="line"/>
      <point x="1412" y="529" type="line"/>
      <point x="1412" y="704" type="line" smooth="yes"/>
      <point x="1412" y="849"/>
      <point x="1489" y="918"/>
      <point x="1664" y="918" type="curve" smooth="yes"/>
      <point x="1797" y="918"/>
      <point x="1856" y="883"/>
      <point x="1856" y="812" type="curve" smooth="yes"/>
      <point x="1856" y="803" type="line" smooth="yes"/>
      <point x="1856" y="755"/>
      <point x="1822" y="729"/>
      <point x="1740" y="726" type="curve" smooth="yes"/>
      <point x="1596" y="720" type="line"/>
      <point x="1596" y="448" type="line"/>
      <point x="1742" y="443" type="line" smooth="yes"/>
      <point x="1834" y="439.849"/>
      <point x="1870" y="408.888"/>
      <point x="1870" y="351" type="curve" smooth="yes"/>
      <point x="1870" y="342" type="line" smooth="yes"/>
      <point x="1870" y="280"/>
      <point x="1827" y="249"/>
      <point x="1733" y="249" type="curve" smooth="yes"/>
      <point x="1661" y="249"/>
      <point x="1615" y="254"/>
      <point x="1549" y="270" type="curve"/>
      <point x="1585" y="1" type="line"/>
      <point x="1658" y="-17"/>
      <point x="1728" y="-25"/>
      <point x="1815" y="-25" type="curve" smooth="yes"/>
      <point x="2083" y="-25"/>
      <point x="2212" y="80.3485"/>
      <point x="2212" y="289" type="curve" smooth="yes"/>
      <point x="2212" y="306" type="line" smooth="yes"/>
      <point x="2212" y="468.93"/>
      <point x="2125" y="561.597"/>
      <point x="1944" y="584" type="curve"/>
      <point x="1944" y="591" type="line"/>
      <point x="2117" y="612"/>
      <point x="2197" y="699"/>
      <point x="2197" y="843" type="curve" smooth="yes"/>
      <point x="2197" y="850" type="line" smooth="yes"/>
      <point x="2197" y="1083"/>
      <point x="2034" y="1204"/>
    </contour>
  </outline>
</glyph>
<glyph name="Ja.mlm" format="2">
  <advance width="1931"/>
  <unicode hex="0D1C"/>
  <outline>
    <contour>
      <point x="1172" y="-36" type="line"/>
      <point x="1267" y="-69"/>
      <point x="1372" y="-86"/>
      <point x="1485" y="-86" type="curve" smooth="yes"/>
      <point x="1739" y="-86"/>
      <point x="1858" y="13"/>
      <point x="1858" y="202" type="curve" smooth="yes"/>
      <point x="1858" y="208" type="line" smooth="yes"/>
      <point x="1858" y="339"/>
      <point x="1791" y="429"/>
      <point x="1648" y="460" type="curve"/>
      <point x="1632" y="465"/>
      <point x="1602" y="484"/>
      <point x="1584" y="490" type="curve" smooth="yes"/>
      <point x="1552" y="500"/>
      <point x="1517" y="502"/>
      <point x="1478" y="502" type="curve" smooth="yes"/>
      <point x="1320" y="502"/>
      <point x="1210" y="458"/>
      <point x="1063" y="398" type="curve" smooth="yes"/>
      <point x="717" y="256" type="line" smooth="yes"/>
      <point x="648" y="228"/>
      <point x="559" y="195"/>
      <point x="482" y="195" type="curve" smooth="yes"/>
      <point x="429" y="195"/>
      <point x="404" y="212.28"/>
      <point x="404" y="249" type="curve"/>
      <point x="404" y="250" type="line"/>
      <point x="404" y="282.264"/>
      <point x="424" y="303.774"/>
      <point x="462" y="307" type="curve"/>
      <point x="229" y="381" type="line"/>
      <point x="229" y="355" type="line"/>
      <point x="125" y="327.449"/>
      <point x="73" y="265.204"/>
      <point x="73" y="155" type="curve" smooth="yes"/>
      <point x="73" y="152" type="line" smooth="yes"/>
      <point x="73" y="-0.564102"/>
      <point x="190" y="-86"/>
      <point x="427" y="-86" type="curve" smooth="yes"/>
      <point x="574" y="-86"/>
      <point x="721" y="-40"/>
      <point x="851" y="18" type="curve" smooth="yes"/>
      <point x="1188" y="169" type="line" smooth="yes"/>
      <point x="1335" y="235"/>
      <point x="1399" y="259"/>
      <point x="1462" y="259" type="curve" smooth="yes"/>
      <point x="1510" y="259"/>
      <point x="1534" y="245"/>
      <point x="1534" y="212" type="curve"/>
      <point x="1534" y="210" type="line"/>
      <point x="1534" y="179"/>
      <point x="1506" y="164"/>
      <point x="1440" y="164" type="curve" smooth="yes"/>
      <point x="1327" y="164"/>
      <point x="1217" y="192"/>
      <point x="1131" y="222" type="curve"/>
    </contour>
    <contour>
      <point x="71" y="696" type="curve" smooth="yes"/>
      <point x="71" y="655" type="line" smooth="yes"/>
      <point x="71" y="494"/>
      <point x="131" y="387"/>
      <point x="273" y="348" type="curve"/>
      <point x="289" y="342"/>
      <point x="313" y="321"/>
      <point x="328" y="313" type="curve"/>
      <point x="362" y="301"/>
      <point x="402" y="301"/>
      <point x="445" y="301" type="curve" smooth="yes"/>
      <point x="692" y="301"/>
      <point x="815" y="404"/>
      <point x="815" y="595" type="curve" smooth="yes"/>
      <point x="815" y="612" type="line" smooth="yes"/>
      <point x="815" y="782"/>
      <point x="738" y="870"/>
      <point x="586" y="870" type="curve" smooth="yes"/>
      <point x="458" y="870"/>
      <point x="388" y="805"/>
      <point x="366" y="694" type="curve"/>
      <point x="370" y="607" type="line"/>
      <point x="384" y="633"/>
      <point x="411" y="649"/>
      <point x="448" y="649" type="curve" smooth="yes"/>
      <point x="490" y="649"/>
      <point x="514" y="626"/>
      <point x="514" y="585" type="curve" smooth="yes"/>
      <point x="514" y="577" type="line" smooth="yes"/>
      <point x="514" y="532"/>
      <point x="490" y="509"/>
      <point x="447" y="509" type="curve" smooth="yes"/>
      <point x="396" y="509"/>
      <point x="373" y="538"/>
      <point x="373" y="592" type="curve" smooth="yes"/>
      <point x="373" y="652" type="line"/>
      <point x="375" y="704" type="line"/>
      <point x="359" y="704" type="line"/>
      <point x="359" y="710" type="line" smooth="yes"/>
      <point x="359" y="872.492"/>
      <point x="455" y="946"/>
      <point x="648" y="946" type="curve" smooth="yes"/>
      <point x="834" y="946"/>
      <point x="923" y="866"/>
      <point x="930" y="700" type="curve" smooth="yes"/>
      <point x="938" y="485" type="line"/>
      <point x="1252" y="523" type="line"/>
      <point x="1261" y="762" type="line" smooth="yes"/>
      <point x="1265" y="864"/>
      <point x="1300" y="914"/>
      <point x="1388" y="914" type="curve" smooth="yes"/>
      <point x="1476" y="914"/>
      <point x="1517" y="864.421"/>
      <point x="1517" y="757" type="curve" smooth="yes"/>
      <point x="1517" y="697" type="line" smooth="yes"/>
      <point x="1517" y="572.929"/>
      <point x="1478" y="514.482"/>
      <point x="1401" y="495" type="curve"/>
      <point x="1693" y="427" type="line"/>
      <point x="1693" y="456" type="line"/>
      <point x="1819" y="494.679"/>
      <point x="1855" y="597.482"/>
      <point x="1855" y="741" type="curve" smooth="yes"/>
      <point x="1855" y="797" type="line" smooth="yes"/>
      <point x="1855" y="1067.32"/>
      <point x="1712" y="1204"/>
      <point x="1441" y="1204" type="curve" smooth="yes"/>
      <point x="1240" y="1204"/>
      <point x="1119" y="1111"/>
      <point x="1095" y="938" type="curve"/>
      <point x="1086" y="938" type="line"/>
      <point x="1045" y="1112"/>
      <point x="886" y="1204"/>
      <point x="630" y="1204" type="curve" smooth="yes"/>
      <point x="258" y="1204"/>
      <point x="71" y="1029.74"/>
    </contour>
  </outline>
</glyph>
<glyph name="Jha.mlm" format="2">
  <advance width="3320"/>
  <unicode hex="0D1D"/>
  <outline>
    <contour>
      <point x="2584" y="529" type="line"/>
      <point x="2584" y="1151" type="line"/>
      <point x="2246" y="1151" type="line"/>
      <point x="2246" y="524" type="line"/>
    </contour>
    <contour>
      <point x="1979" y="444" type="curve" smooth="yes"/>
      <point x="1979" y="532.489"/>
      <point x="1986" y="608.473"/>
      <point x="1986" y="696" type="curve" smooth="yes"/>
      <point x="1986" y="1035.35"/>
      <point x="1803" y="1203"/>
      <point x="1418" y="1203" type="curve" smooth="yes"/>
      <point x="1187.5" y="1203"/>
      <point x="1035.83" y="1125"/>
      <point x="960" y="1041" type="curve"/>
      <point x="845" y="971" type="line"/>
      <point x="674" y="882.988"/>
      <point x="599" y="733.267"/>
      <point x="599" y="536" type="curve" smooth="yes"/>
      <point x="599" y="389" type="line" smooth="yes"/>
      <point x="599" y="111.715"/>
      <point x="747" y="-33"/>
      <point x="1040" y="-33" type="curve" smooth="yes"/>
      <point x="1332.34" y="-33"/>
      <point x="1481" y="111.715"/>
      <point x="1481" y="389" type="curve" smooth="yes"/>
      <point x="1481" y="536" type="line" smooth="yes"/>
      <point x="1481" y="733.267"/>
      <point x="1406" y="882.988"/>
      <point x="1235" y="971" type="curve"/>
      <point x="1120" y="1041" type="line"/>
      <point x="1047.16" y="1130"/>
      <point x="892.506" y="1203"/>
      <point x="670" y="1203" type="curve" smooth="yes"/>
      <point x="273" y="1203"/>
      <point x="78" y="995.341"/>
      <point x="78" y="577" type="curve" smooth="yes"/>
      <point x="78" y="457" type="line" smooth="yes"/>
      <point x="78" y="283.097"/>
      <point x="112" y="109.195"/>
      <point x="173" y="0" type="curve"/>
      <point x="516" y="0" type="line"/>
      <point x="451" y="133.47"/>
      <point x="417" y="284.129"/>
      <point x="417" y="454" type="curve" smooth="yes"/>
      <point x="417" y="579" type="line" smooth="yes"/>
      <point x="417" y="821.405"/>
      <point x="517" y="935"/>
      <point x="726" y="935" type="curve" smooth="yes"/>
      <point x="789" y="935"/>
      <point x="838" y="921"/>
      <point x="883" y="899" type="curve"/>
      <point x="891" y="896"/>
      <point x="985" y="864"/>
      <point x="991" y="862" type="curve"/>
      <point x="1104.27" y="803.519"/>
      <point x="1147" y="692.714"/>
      <point x="1147" y="546" type="curve" smooth="yes"/>
      <point x="1147" y="399" type="line" smooth="yes"/>
      <point x="1147" y="291.51"/>
      <point x="1112.32" y="245"/>
      <point x="1040" y="245" type="curve" smooth="yes"/>
      <point x="968" y="245"/>
      <point x="933" y="291.51"/>
      <point x="933" y="399" type="curve" smooth="yes"/>
      <point x="933" y="546" type="line" smooth="yes"/>
      <point x="933" y="692.714"/>
      <point x="975.726" y="803.519"/>
      <point x="1089" y="862" type="curve"/>
      <point x="1096" y="864"/>
      <point x="1189" y="896"/>
      <point x="1197" y="899" type="curve"/>
      <point x="1250" y="921"/>
      <point x="1306" y="935"/>
      <point x="1380" y="935" type="curve" smooth="yes"/>
      <point x="1565" y="935"/>
      <point x="1648" y="847.431"/>
      <point x="1648" y="656" type="curve" smooth="yes"/>
      <point x="1648" y="570.45"/>
      <point x="1641" y="494.512"/>
      <point x="1641" y="408" type="curve" smooth="yes"/>
      <point x="1641" y="113.663"/>
      <point x="1781" y="-33"/>
      <point x="2058" y="-33" type="curve" smooth="yes"/>
      <point x="2273" y="-33"/>
      <point x="2388" y="78"/>
      <point x="2409" y="246" type="curve"/>
      <point x="2499" y="246" type="line"/>
      <point x="2506" y="614" type="line"/>
      <point x="2246" y="634" type="line"/>
      <point x="2246" y="453" type="line" smooth="yes"/>
      <point x="2246" y="332"/>
      <point x="2202" y="274"/>
      <point x="2112" y="274" type="curve" smooth="yes"/>
      <point x="2022" y="274"/>
      <point x="1979" y="328.606"/>
    </contour>
    <contour>
      <point x="2419" y="246" type="line"/>
      <point x="2442" y="76"/>
      <point x="2562" y="-33"/>
      <point x="2790" y="-33" type="curve" smooth="yes"/>
      <point x="3091" y="-33"/>
      <point x="3241" y="139.638"/>
      <point x="3241" y="494" type="curve" smooth="yes"/>
      <point x="3241" y="678" type="line" smooth="yes"/>
      <point x="3241" y="866.96"/>
      <point x="3199" y="1039.75"/>
      <point x="3117" y="1160" type="curve"/>
      <point x="2781" y="1160" type="line"/>
      <point x="2858" y="1030.64"/>
      <point x="2901" y="865.904"/>
      <point x="2901" y="685" type="curve" smooth="yes"/>
      <point x="2901" y="498" type="line" smooth="yes"/>
      <point x="2901" y="345.598"/>
      <point x="2849" y="274"/>
      <point x="2738" y="274" type="curve" smooth="yes"/>
      <point x="2633" y="274"/>
      <point x="2584" y="335"/>
      <point x="2584" y="467" type="curve" smooth="yes"/>
      <point x="2584" y="635" type="line"/>
      <point x="2411" y="635" type="line"/>
    </contour>
  </outline>
</glyph>
<glyph name="Nya.mlm" format="2">
  <advance width="3059"/>
  <unicode hex="0D1E"/>
  <outline>
    <contour>
      <point x="724" y="1204" type="curve" smooth="yes"/>
      <point x="288" y="1204"/>
      <point x="72" y="978.607"/>
      <point x="72" y="557" type="curve" smooth="yes"/>
      <point x="72" y="411" type="line" smooth="yes"/>
      <point x="72" y="118.683"/>
      <point x="220" y="-33"/>
      <point x="505" y="-33" type="curve" smooth="yes"/>
      <point x="786" y="-33"/>
      <point x="929" y="99.0261"/>
      <point x="929" y="353" type="curve" smooth="yes"/>
      <point x="929" y="420" type="line" smooth="yes"/>
      <point x="929" y="663.525"/>
      <point x="833" y="776"/>
      <point x="660" y="776" type="curve" smooth="yes"/>
      <point x="505" y="776"/>
      <point x="419" y="696"/>
      <point x="393" y="538" type="curve"/>
      <point x="397" y="446" type="line"/>
      <point x="417.812" y="482"/>
      <point x="456.464" y="505"/>
      <point x="508" y="505" type="curve" smooth="yes"/>
      <point x="571.326" y="505"/>
      <point x="602" y="468.314"/>
      <point x="602" y="398" type="curve" smooth="yes"/>
      <point x="602" y="353" type="line" smooth="yes"/>
      <point x="602" y="275.655"/>
      <point x="568.343" y="238"/>
      <point x="504" y="238" type="curve" smooth="yes"/>
      <point x="434.667" y="238"/>
      <point x="400" y="277.542"/>
      <point x="400" y="384" type="curve" smooth="yes"/>
      <point x="400" y="468" type="line"/>
      <point x="405" y="557" type="line"/>
      <point x="386" y="557" type="line"/>
      <point x="386" y="565" type="line" smooth="yes"/>
      <point x="386" y="806.708"/>
      <point x="507" y="922"/>
      <point x="738" y="922" type="curve" smooth="yes"/>
      <point x="962" y="922"/>
      <point x="1074" y="824"/>
      <point x="1074" y="626" type="curve" smooth="yes"/>
      <point x="1074" y="546" type="line"/>
      <point x="1237" y="546" type="line"/>
      <point x="1239" y="904" type="line"/>
      <point x="1195" y="1089"/>
      <point x="1030" y="1204"/>
    </contour>
    <contour>
      <point x="1074" y="4" type="line"/>
      <point x="1411" y="4" type="line"/>
      <point x="1411" y="638" type="line"/>
      <point x="1074" y="604" type="line"/>
    </contour>
    <contour>
      <point x="1700" y="1203" type="curve" smooth="yes"/>
      <point x="1429.4" y="1203"/>
      <point x="1286.09" y="1087"/>
      <point x="1246" y="904" type="curve"/>
      <point x="1190" y="904" type="line"/>
      <point x="1202" y="544" type="line"/>
      <point x="1411" y="513" type="line"/>
      <point x="1411" y="617" type="line" smooth="yes"/>
      <point x="1411" y="833"/>
      <point x="1515.34" y="935"/>
      <point x="1721" y="935" type="curve" smooth="yes"/>
      <point x="1782" y="935"/>
      <point x="1828" y="921"/>
      <point x="1871" y="899" type="curve"/>
      <point x="1879" y="896"/>
      <point x="1964" y="864"/>
      <point x="1970" y="862" type="curve"/>
      <point x="2083.27" y="803.519"/>
      <point x="2126" y="692.714"/>
      <point x="2126" y="546" type="curve" smooth="yes"/>
      <point x="2126" y="399" type="line" smooth="yes"/>
      <point x="2126" y="291.51"/>
      <point x="2091.32" y="245"/>
      <point x="2019" y="245" type="curve" smooth="yes"/>
      <point x="1947" y="245"/>
      <point x="1912" y="291.51"/>
      <point x="1912" y="399" type="curve" smooth="yes"/>
      <point x="1912" y="546" type="line" smooth="yes"/>
      <point x="1912" y="692.714"/>
      <point x="1954.73" y="803.519"/>
      <point x="2068" y="862" type="curve"/>
      <point x="2075" y="864"/>
      <point x="2168" y="896"/>
      <point x="2176" y="899" type="curve"/>
      <point x="2222" y="921"/>
      <point x="2269" y="935"/>
      <point x="2332" y="935" type="curve" smooth="yes"/>
      <point x="2542" y="935"/>
      <point x="2642" y="821.405"/>
      <point x="2642" y="579" type="curve" smooth="yes"/>
      <point x="2642" y="454" type="line" smooth="yes"/>
      <point x="2642" y="284.129"/>
      <point x="2609" y="133.47"/>
      <point x="2543" y="0" type="curve"/>
      <point x="2886" y="0" type="line"/>
      <point x="2948" y="109.195"/>
      <point x="2981" y="283.097"/>
      <point x="2981" y="457" type="curve" smooth="yes"/>
      <point x="2981" y="577" type="line" smooth="yes"/>
      <point x="2981" y="995.341"/>
      <point x="2786" y="1203"/>
      <point x="2389" y="1203" type="curve" smooth="yes"/>
      <point x="2166.49" y="1203"/>
      <point x="2012.84" y="1130"/>
      <point x="1939" y="1041" type="curve"/>
      <point x="1824" y="971" type="line"/>
      <point x="1654" y="882.988"/>
      <point x="1578" y="733.267"/>
      <point x="1578" y="536" type="curve" smooth="yes"/>
      <point x="1578" y="389" type="line" smooth="yes"/>
      <point x="1578" y="111.715"/>
      <point x="1727" y="-33"/>
      <point x="2019" y="-33" type="curve" smooth="yes"/>
      <point x="2311.34" y="-33"/>
      <point x="2460" y="111.715"/>
      <point x="2460" y="389" type="curve" smooth="yes"/>
      <point x="2460" y="536" type="line" smooth="yes"/>
      <point x="2460" y="733.267"/>
      <point x="2385" y="882.988"/>
      <point x="2214" y="971" type="curve"/>
      <point x="2090" y="1041" type="line"/>
      <point x="2027.16" y="1130"/>
      <point x="1893.5" y="1203"/>
    </contour>
  </outline>
</glyph>
<glyph name="Ddha.mlm" format="2">
  <advance width="2717"/>
  <unicode hex="0D22"/>
  <outline>
    <contour>
      <point x="1649" y="560" type="line"/>
      <point x="1649" y="1151" type="line"/>
      <point x="1312" y="1151" type="line"/>
      <point x="1312" y="524" type="line"/>
    </contour>
    <contour>
      <point x="1121" y="-33" type="curve" smooth="yes"/>
      <point x="1347" y="-33"/>
      <point x="1466" y="81"/>
      <point x="1489" y="253" type="curve"/>
      <point x="1575" y="253" type="line"/>
      <point x="1576" y="614" type="line"/>
      <point x="1312" y="634" type="line"/>
      <point x="1312" y="448" type="line" smooth="yes"/>
      <point x="1312" y="331"/>
      <point x="1269" y="274"/>
      <point x="1177" y="274" type="curve" smooth="yes"/>
      <point x="1086" y="274"/>
      <point x="1042" y="328.596"/>
      <point x="1042" y="445" type="curve" smooth="yes"/>
      <point x="1042" y="551.417"/>
      <point x="1052" y="634.616"/>
      <point x="1052" y="742" type="curve" smooth="yes"/>
      <point x="1052" y="1051.34"/>
      <point x="891" y="1205"/>
      <point x="573" y="1205" type="curve" smooth="yes"/>
      <point x="245" y="1205"/>
      <point x="79" y="1035.35"/>
      <point x="79" y="691" type="curve" smooth="yes"/>
      <point x="79" y="489" type="line" smooth="yes"/>
      <point x="79" y="299.058"/>
      <point x="119" y="114.167"/>
      <point x="197" y="0" type="curve"/>
      <point x="542" y="0" type="line"/>
      <point x="465" y="133.372"/>
      <point x="419" y="302.108"/>
      <point x="419" y="486" type="curve" smooth="yes"/>
      <point x="419" y="688" type="line" smooth="yes"/>
      <point x="419" y="837.427"/>
      <point x="468" y="906"/>
      <point x="574" y="906" type="curve" smooth="yes"/>
      <point x="669" y="906"/>
      <point x="714" y="849.438"/>
      <point x="714" y="725" type="curve" smooth="yes"/>
      <point x="714" y="614.585"/>
      <point x="705" y="528.384"/>
      <point x="705" y="417" type="curve" smooth="yes"/>
      <point x="705" y="118.685"/>
      <point x="844" y="-33"/>
    </contour>
    <contour>
      <point x="2008" y="-33" type="curve" smooth="yes"/>
      <point x="2433" y="-33"/>
      <point x="2639" y="184.714"/>
      <point x="2639" y="602" type="curve" smooth="yes"/>
      <point x="2639" y="763" type="line" smooth="yes"/>
      <point x="2639" y="1053.32"/>
      <point x="2493" y="1204"/>
      <point x="2211" y="1204" type="curve" smooth="yes"/>
      <point x="1932" y="1204"/>
      <point x="1791" y="1071.95"/>
      <point x="1791" y="818" type="curve" smooth="yes"/>
      <point x="1791" y="745" type="line" smooth="yes"/>
      <point x="1791" y="514.512"/>
      <point x="1885" y="409"/>
      <point x="2056" y="409" type="curve" smooth="yes"/>
      <point x="2208" y="409"/>
      <point x="2294" y="485"/>
      <point x="2319" y="635" type="curve"/>
      <point x="2314" y="727" type="line"/>
      <point x="2293.19" y="691"/>
      <point x="2256.53" y="668"/>
      <point x="2206" y="668" type="curve" smooth="yes"/>
      <point x="2143.68" y="668"/>
      <point x="2114" y="702.673"/>
      <point x="2114" y="771" type="curve" smooth="yes"/>
      <point x="2114" y="819" type="line" smooth="yes"/>
      <point x="2114" y="896.357"/>
      <point x="2146.66" y="933"/>
      <point x="2210" y="933" type="curve" smooth="yes"/>
      <point x="2277.33" y="933"/>
      <point x="2311" y="895.456"/>
      <point x="2311" y="795" type="curve" smooth="yes"/>
      <point x="2311" y="705" type="line"/>
      <point x="2307" y="616" type="line"/>
      <point x="2326" y="616" type="line"/>
      <point x="2326" y="606" type="line" smooth="yes"/>
      <point x="2326" y="363.508"/>
      <point x="2214" y="258"/>
      <point x="1989" y="258" type="curve" smooth="yes"/>
      <point x="1762" y="258"/>
      <point x="1649" y="352"/>
      <point x="1649" y="546" type="curve" smooth="yes"/>
      <point x="1649" y="631" type="line"/>
      <point x="1488" y="631" type="line"/>
      <point x="1498" y="253" type="line"/>
      <point x="1547" y="79"/>
      <point x="1705" y="-33"/>
    </contour>
  </outline>
</glyph>
<glyph name="Nna.mlm" format="2">
  <advance width="2811"/>
  <unicode hex="0D23"/>
  <outline>
    <contour>
      <point x="1075" y="4" type="line"/>
      <point x="1412" y="4" type="line"/>
      <point x="1412" y="666" type="line"/>
      <point x="1075" y="595" type="line"/>
    </contour>
    <contour>
      <point x="721" y="1204" type="curve" smooth="yes"/>
      <point x="287" y="1204"/>
      <point x="72" y="976.516"/>
      <point x="72" y="551" type="curve" smooth="yes"/>
      <point x="72" y="413" type="line" smooth="yes"/>
      <point x="72" y="119.367"/>
      <point x="220" y="-33"/>
      <point x="505" y="-33" type="curve" smooth="yes"/>
      <point x="786" y="-33"/>
      <point x="929" y="99.7102"/>
      <point x="929" y="355" type="curve" smooth="yes"/>
      <point x="929" y="418" type="line" smooth="yes"/>
      <point x="929" y="662.893"/>
      <point x="833" y="776"/>
      <point x="660" y="776" type="curve" smooth="yes"/>
      <point x="505" y="776"/>
      <point x="419" y="696"/>
      <point x="393" y="538" type="curve"/>
      <point x="397" y="446" type="line"/>
      <point x="417.812" y="482"/>
      <point x="456.464" y="505"/>
      <point x="508" y="505" type="curve" smooth="yes"/>
      <point x="571.326" y="505"/>
      <point x="602" y="467.629"/>
      <point x="602" y="396" type="curve" smooth="yes"/>
      <point x="602" y="355" type="line" smooth="yes"/>
      <point x="602" y="276.31"/>
      <point x="568.343" y="238"/>
      <point x="504" y="238" type="curve" smooth="yes"/>
      <point x="434.667" y="238"/>
      <point x="400" y="278.083"/>
      <point x="400" y="386" type="curve" smooth="yes"/>
      <point x="400" y="468" type="line"/>
      <point x="405" y="557" type="line"/>
      <point x="386" y="557" type="line"/>
      <point x="386" y="559" type="line"/>
      <point x="386" y="804.771"/>
      <point x="507" y="922"/>
      <point x="739" y="922" type="curve" smooth="yes"/>
      <point x="963" y="922"/>
      <point x="1075" y="826"/>
      <point x="1075" y="632" type="curve" smooth="yes"/>
      <point x="1075" y="550" type="line"/>
      <point x="1237" y="550" type="line"/>
      <point x="1236" y="913" type="line"/>
      <point x="1192" y="1093"/>
      <point x="1030" y="1204"/>
    </contour>
    <contour>
      <point x="1724" y="643" type="line"/>
      <point x="1724" y="4" type="line"/>
      <point x="2062" y="4" type="line"/>
      <point x="2062" y="643" type="line"/>
    </contour>
    <contour>
      <point x="1891" y="924" type="line"/>
      <point x="1872" y="1095"/>
      <point x="1762" y="1204"/>
      <point x="1569" y="1204" type="curve" smooth="yes"/>
      <point x="1376" y="1204"/>
      <point x="1264" y="1097"/>
      <point x="1245" y="913" type="curve"/>
      <point x="1155" y="913" type="line"/>
      <point x="1155" y="538" type="line"/>
      <point x="1412" y="529" type="line"/>
      <point x="1412" y="704" type="line" smooth="yes"/>
      <point x="1412" y="833"/>
      <point x="1461" y="896"/>
      <point x="1568" y="896" type="curve" smooth="yes"/>
      <point x="1676" y="896"/>
      <point x="1724" y="833"/>
      <point x="1724" y="704" type="curve" smooth="yes"/>
      <point x="1724" y="529" type="line"/>
      <point x="1904" y="529" type="line"/>
    </contour>
    <contour>
      <point x="2062" y="525" type="line"/>
      <point x="2062" y="702" type="line" smooth="yes"/>
      <point x="2062" y="835"/>
      <point x="2112" y="898"/>
      <point x="2222" y="898" type="curve" smooth="yes"/>
      <point x="2338" y="898"/>
      <point x="2392" y="825.732"/>
      <point x="2392" y="670" type="curve" smooth="yes"/>
      <point x="2392" y="478" type="line" smooth="yes"/>
      <point x="2392" y="296.097"/>
      <point x="2352" y="132.385"/>
      <point x="2281" y="0" type="curve"/>
      <point x="2623" y="0" type="line"/>
      <point x="2697" y="114.187"/>
      <point x="2732" y="293.046"/>
      <point x="2732" y="481" type="curve" smooth="yes"/>
      <point x="2732" y="669" type="line" smooth="yes"/>
      <point x="2732" y="1026.67"/>
      <point x="2578" y="1204"/>
      <point x="2270" y="1204" type="curve" smooth="yes"/>
      <point x="2040" y="1204"/>
      <point x="1927" y="1095"/>
      <point x="1899" y="924" type="curve"/>
      <point x="1808" y="924" type="line"/>
      <point x="1800" y="546" type="line"/>
    </contour>
  </outline>
</glyph>
<glyph name="Tha.mlm" format="2">
  <advance width="1758"/>
  <unicode hex="0D25"/>
  <outline>
    <contour>
      <point x="441" y="0" type="line"/>
      <point x="441" y="1163" type="line"/>
      <point x="103" y="1163" type="line"/>
      <point x="103" y="0" type="line"/>
    </contour>
    <contour>
      <point x="321" y="264" type="line"/>
      <point x="321" y="0" type="line"/>
      <point x="862" y="0" type="line"/>
      <point x="862" y="264" type="line"/>
    </contour>
    <contour>
      <point x="875" y="264" type="line"/>
      <point x="769" y="0" type="line"/>
      <point x="1664" y="0" type="line"/>
      <point x="1664" y="728" type="line" smooth="yes"/>
      <point x="1664" y="1046"/>
      <point x="1501" y="1207"/>
      <point x="1176" y="1207" type="curve" smooth="yes"/>
      <point x="851" y="1207"/>
      <point x="684" y="1044"/>
      <point x="684" y="727" type="curve" smooth="yes"/>
      <point x="684" y="0" type="line"/>
      <point x="1022" y="0" type="line"/>
      <point x="1022" y="730" type="line" smooth="yes"/>
      <point x="1022" y="849"/>
      <point x="1072" y="908"/>
      <point x="1175" y="908" type="curve" smooth="yes"/>
      <point x="1278" y="908"/>
      <point x="1326" y="849"/>
      <point x="1326" y="730" type="curve" smooth="yes"/>
      <point x="1326" y="264" type="line"/>
    </contour>
  </outline>
</glyph>
<glyph name="Dha.mlm" format="2">
  <advance width="1818"/>
  <unicode hex="0D27"/>
  <outline>
    <contour>
      <point x="1078" y="525" type="line"/>
      <point x="1078" y="1154" type="line"/>
      <point x="740" y="1154" type="line"/>
      <point x="740" y="525" type="line"/>
    </contour>
    <contour>
      <point x="740" y="635" type="line"/>
      <point x="740" y="466" type="line" smooth="yes"/>
      <point x="740" y="335"/>
      <point x="691" y="274"/>
      <point x="585" y="274" type="curve" smooth="yes"/>
      <point x="473" y="274"/>
      <point x="419" y="345.598"/>
      <point x="419" y="498" type="curve" smooth="yes"/>
      <point x="419" y="685" type="line" smooth="yes"/>
      <point x="419" y="865.904"/>
      <point x="461" y="1030.64"/>
      <point x="538" y="1160" type="curve"/>
      <point x="203" y="1160" type="line"/>
      <point x="119" y="1039.75"/>
      <point x="79" y="866.96"/>
      <point x="79" y="678" type="curve" smooth="yes"/>
      <point x="79" y="494" type="line" smooth="yes"/>
      <point x="79" y="139.638"/>
      <point x="230" y="-33"/>
      <point x="532" y="-33" type="curve" smooth="yes"/>
      <point x="762" y="-33"/>
      <point x="883" y="76"/>
      <point x="905" y="246" type="curve"/>
      <point x="994" y="246" type="line"/>
      <point x="1001" y="614" type="line"/>
    </contour>
    <contour>
      <point x="914" y="246" type="line"/>
      <point x="937" y="76"/>
      <point x="1056" y="-33"/>
      <point x="1286" y="-33" type="curve" smooth="yes"/>
      <point x="1588" y="-33"/>
      <point x="1739" y="139.638"/>
      <point x="1739" y="494" type="curve" smooth="yes"/>
      <point x="1739" y="678" type="line" smooth="yes"/>
      <point x="1739" y="866.96"/>
      <point x="1698" y="1039.75"/>
      <point x="1616" y="1160" type="curve"/>
      <point x="1280" y="1160" type="line"/>
      <point x="1357" y="1030.64"/>
      <point x="1399" y="865.904"/>
      <point x="1399" y="685" type="curve" smooth="yes"/>
      <point x="1399" y="498" type="line" smooth="yes"/>
      <point x="1399" y="345.598"/>
      <point x="1345" y="274"/>
      <point x="1233" y="274" type="curve" smooth="yes"/>
      <point x="1128" y="274"/>
      <point x="1078" y="335"/>
      <point x="1078" y="466" type="curve" smooth="yes"/>
      <point x="1078" y="635" type="line"/>
      <point x="905" y="635" type="line"/>
    </contour>
  </outline>
</glyph>
<glyph name="Pha.mlm" format="2">
  <advance width="2284"/>
  <unicode hex="0D2B"/>
  <outline>
    <contour>
      <point x="748" y="264" type="line"/>
      <point x="748" y="0" type="line"/>
      <point x="1390" y="0" type="line"/>
      <point x="1390" y="264" type="line"/>
    </contour>
    <contour>
      <point x="532" y="806" type="curve" smooth="yes"/>
      <point x="224" y="806"/>
      <point x="68" y="653.33"/>
      <point x="68" y="349" type="curve" smooth="yes"/>
      <point x="68" y="300" type="line" smooth="yes"/>
      <point x="68" y="182.034"/>
      <point x="85" y="74.2373"/>
      <point x="118" y="0" type="curve"/>
      <point x="444" y="0" type="line"/>
      <point x="416" y="81.3793"/>
      <point x="396" y="177"/>
      <point x="396" y="295" type="curve" smooth="yes"/>
      <point x="396" y="343" type="line" smooth="yes"/>
      <point x="396" y="461.343"/>
      <point x="438" y="520"/>
      <point x="531" y="520" type="curve" smooth="yes"/>
      <point x="625" y="520"/>
      <point x="667" y="461.343"/>
      <point x="667" y="343" type="curve" smooth="yes"/>
      <point x="667" y="295" type="line" smooth="yes"/>
      <point x="667" y="187.066"/>
      <point x="647" y="95.4234"/>
      <point x="614" y="16" type="curve"/>
      <point x="614" y="0" type="line"/>
      <point x="841" y="0" type="line"/>
      <point x="945" y="95.3056"/>
      <point x="998" y="236.236"/>
      <point x="998" y="365" type="curve" smooth="yes"/>
      <point x="998" y="388" type="line" smooth="yes"/>
      <point x="998" y="665.317"/>
      <point x="842" y="806"/>
    </contour>
    <contour>
      <point x="1401" y="264" type="line"/>
      <point x="1295" y="0" type="line"/>
      <point x="2190" y="0" type="line"/>
      <point x="2190" y="728" type="line" smooth="yes"/>
      <point x="2190" y="1046"/>
      <point x="2027" y="1207"/>
      <point x="1702" y="1207" type="curve" smooth="yes"/>
      <point x="1377" y="1207"/>
      <point x="1210" y="1044"/>
      <point x="1210" y="727" type="curve" smooth="yes"/>
      <point x="1210" y="0" type="line"/>
      <point x="1548" y="0" type="line"/>
      <point x="1548" y="730" type="line" smooth="yes"/>
      <point x="1548" y="849"/>
      <point x="1598" y="908"/>
      <point x="1701" y="908" type="curve" smooth="yes"/>
      <point x="1804" y="908"/>
      <point x="1852" y="849"/>
      <point x="1852" y="730" type="curve" smooth="yes"/>
      <point x="1852" y="264" type="line"/>
    </contour>
  </outline>
</glyph>
<glyph name="Ba.mlm" format="2">
  <advance width="2752"/>
  <unicode hex="0D2C"/>
  <outline>
    <contour>
      <point x="1075" y="4" type="line"/>
      <point x="1412" y="4" type="line"/>
      <point x="1412" y="666" type="line"/>
      <point x="1075" y="595" type="line"/>
    </contour>
    <contour>
      <point x="721" y="1204" type="curve" smooth="yes"/>
      <point x="287" y="1204"/>
      <point x="72" y="976.516"/>
      <point x="72" y="551" type="curve" smooth="yes"/>
      <point x="72" y="413" type="line" smooth="yes"/>
      <point x="72" y="119.367"/>
      <point x="220" y="-33"/>
      <point x="505" y="-33" type="curve" smooth="yes"/>
      <point x="786" y="-33"/>
      <point x="929" y="99.7102"/>
      <point x="929" y="355" type="curve" smooth="yes"/>
      <point x="929" y="418" type="line" smooth="yes"/>
      <point x="929" y="662.893"/>
      <point x="833" y="776"/>
      <point x="660" y="776" type="curve" smooth="yes"/>
      <point x="505" y="776"/>
      <point x="419" y="696"/>
      <point x="393" y="538" type="curve"/>
      <point x="397" y="446" type="line"/>
      <point x="417.812" y="482"/>
      <point x="456.464" y="505"/>
      <point x="508" y="505" type="curve" smooth="yes"/>
      <point x="571.326" y="505"/>
      <point x="602" y="467.629"/>
      <point x="602" y="396" type="curve" smooth="yes"/>
      <point x="602" y="355" type="line" smooth="yes"/>
      <point x="602" y="276.31"/>
      <point x="568.343" y="238"/>
      <point x="504" y="238" type="curve" smooth="yes"/>
      <point x="434.667" y="238"/>
      <point x="400" y="278.083"/>
      <point x="400" y="386" type="curve" smooth="yes"/>
      <point x="400" y="468" type="line"/>
      <point x="405" y="557" type="line"/>
      <point x="386" y="557" type="line"/>
      <point x="386" y="559" type="line"/>
      <point x="386" y="804.771"/>
      <point x="507" y="922"/>
      <point x="739" y="922" type="curve" smooth="yes"/>
      <point x="963" y="922"/>
      <point x="1075" y="826"/>
      <point x="1075" y="632" type="curve" smooth="yes"/>
      <point x="1075" y="550" type="line"/>
      <point x="1237" y="550" type="line"/>
      <point x="1236" y="913" type="line"/>
      <point x="1192" y="1093"/>
      <point x="1030" y="1204"/>
    </contour>
    <contour>
      <point x="1576" y="898" type="curve" smooth="yes"/>
      <point x="1698" y="898"/>
      <point x="1753" y="825.415"/>
      <point x="1753" y="669" type="curve" smooth="yes"/>
      <point x="1753" y="478" type="line" smooth="yes"/>
      <point x="1753" y="303.107"/>
      <point x="1716" y="145.4"/>
      <point x="1645" y="16" type="curve"/>
      <point x="1645" y="0" type="line"/>
      <point x="1914" y="0" type="line"/>
      <point x="2029" y="118.184"/>
      <point x="2093" y="293.945"/>
      <point x="2093" y="499" type="curve" smooth="yes"/>
      <point x="2093" y="695" type="line" smooth="yes"/>
      <point x="2093" y="1037.36"/>
      <point x="1939" y="1204"/>
      <point x="1623" y="1204" type="curve" smooth="yes"/>
      <point x="1395" y="1204"/>
      <point x="1269" y="1098"/>
      <point x="1246" y="913" type="curve"/>
      <point x="1155" y="913" type="line"/>
      <point x="1155" y="538" type="line"/>
      <point x="1412" y="529" type="line"/>
      <point x="1412" y="699" type="line" smooth="yes"/>
      <point x="1412" y="834"/>
      <point x="1463" y="898"/>
    </contour>
    <contour>
      <point x="2311" y="1163" type="line"/>
      <point x="2311" y="0" type="line"/>
      <point x="2649" y="0" type="line"/>
      <point x="2649" y="1163" type="line"/>
    </contour>
    <contour>
      <point x="1939" y="263" type="line"/>
      <point x="1644" y="0" type="line"/>
      <point x="2608" y="0" type="line"/>
      <point x="2608" y="263" type="line"/>
    </contour>
  </outline>
</glyph>
<glyph name="Ma.mlm" format="2">
  <advance width="1509"/>
  <unicode hex="0D2E"/>
  <outline>
    <contour>
      <point x="260" y="247" type="line"/>
      <point x="118" y="0" type="line"/>
      <point x="1375" y="0" type="line"/>
      <point x="1308" y="247" type="line"/>
    </contour>
    <contour>
      <point x="755" y="937" type="curve" smooth="yes"/>
      <point x="976" y="937"/>
      <point x="1092" y="836.578"/>
      <point x="1092" y="584" type="curve" smooth="yes"/>
      <point x="1092" y="0" type="line"/>
      <point x="1415" y="0" type="line"/>
      <point x="1415" y="583" type="line" smooth="yes"/>
      <point x="1415" y="996.306"/>
      <point x="1198" y="1208"/>
      <point x="755" y="1208" type="curve" smooth="yes"/>
      <point x="313" y="1208"/>
      <point x="95" y="996.304"/>
      <point x="95" y="584" type="curve" smooth="yes"/>
      <point x="95" y="0" type="line"/>
      <point x="416" y="0" type="line"/>
      <point x="416" y="584" type="line" smooth="yes"/>
      <point x="416" y="838.606"/>
      <point x="514" y="937"/>
    </contour>
    <contour>
      <point x="942" y="616" type="line" smooth="yes"/>
      <point x="942" y="817.067"/>
      <point x="820.718" y="935"/>
      <point x="599" y="935" type="curve" smooth="yes"/>
      <point x="549.092" y="935"/>
      <point x="489.234" y="926.231"/>
      <point x="432" y="899" type="curve"/>
      <point x="396" y="731" type="line"/>
      <point x="430.438" y="755.444"/>
      <point x="466.531" y="765"/>
      <point x="502" y="765" type="curve" smooth="yes"/>
      <point x="586.926" y="765"/>
      <point x="616" y="700.174"/>
      <point x="616" y="618" type="curve" smooth="yes"/>
      <point x="616" y="603" type="line" smooth="yes"/>
      <point x="616" y="467.622"/>
      <point x="554.573" y="335.252"/>
      <point x="472" y="245" type="curve"/>
      <point x="750" y="198" type="line"/>
      <point x="868.618" y="289.915"/>
      <point x="942" y="434.352"/>
      <point x="942" y="600" type="curve" smooth="yes"/>
    </contour>
  </outline>
</glyph>
<glyph name="La.mlm" format="2">
  <advance width="1701"/>
  <unicode hex="0D32"/>
  <outline>
    <contour>
      <point x="749" y="657" type="line"/>
      <point x="426" y="657" type="line"/>
      <point x="426" y="748" type="line" smooth="yes"/>
      <point x="426" y="873.389"/>
      <point x="479" y="933"/>
      <point x="588" y="933" type="curve" smooth="yes"/>
      <point x="697" y="933"/>
      <point x="749" y="873.389"/>
      <point x="749" y="748" type="curve" smooth="yes"/>
    </contour>
    <contour>
      <point x="95" y="0" type="line"/>
      <point x="1598" y="0" type="line"/>
      <point x="1598" y="1163" type="line"/>
      <point x="1260" y="1163" type="line"/>
      <point x="1260" y="255" type="line"/>
      <point x="426" y="255" type="line"/>
      <point x="426" y="405" type="line"/>
      <point x="1076" y="405" type="line"/>
      <point x="1076" y="743" type="line" smooth="yes"/>
      <point x="1076" y="1049.32"/>
      <point x="911" y="1205"/>
      <point x="586" y="1205" type="curve" smooth="yes"/>
      <point x="261" y="1205"/>
      <point x="95" y="1049.32"/>
      <point x="95" y="743" type="curve" smooth="yes"/>
    </contour>
  </outline>
</glyph>
<glyph name="Ssa.mlm" format="2">
  <advance width="2441"/>
  <unicode hex="0D37"/>
  <outline>
    <contour>
      <point x="532" y="806" type="curve" smooth="yes"/>
      <point x="224" y="806"/>
      <point x="68" y="653.33"/>
      <point x="68" y="349" type="curve" smooth="yes"/>
      <point x="68" y="300" type="line" smooth="yes"/>
      <point x="68" y="182.034"/>
      <point x="85" y="74.2373"/>
      <point x="118" y="0" type="curve"/>
      <point x="444" y="0" type="line"/>
      <point x="416" y="81.3793"/>
      <point x="396" y="177"/>
      <point x="396" y="295" type="curve" smooth="yes"/>
      <point x="396" y="343" type="line" smooth="yes"/>
      <point x="396" y="461.343"/>
      <point x="438" y="520"/>
      <point x="531" y="520" type="curve" smooth="yes"/>
      <point x="625" y="520"/>
      <point x="667" y="461.343"/>
      <point x="667" y="343" type="curve" smooth="yes"/>
      <point x="667" y="295" type="line" smooth="yes"/>
      <point x="667" y="187.066"/>
      <point x="647" y="95.4234"/>
      <point x="614" y="16" type="curve"/>
      <point x="614" y="0" type="line"/>
      <point x="841" y="0" type="line"/>
      <point x="945" y="95.3056"/>
      <point x="998" y="236.236"/>
      <point x="998" y="365" type="curve" smooth="yes"/>
      <point x="998" y="388" type="line" smooth="yes"/>
      <point x="998" y="665.317"/>
      <point x="842" y="806"/>
    </contour>
    <contour>
      <point x="719" y="0" type="line"/>
      <point x="2338" y="0" type="line"/>
      <point x="2338" y="1163" type="line"/>
      <point x="2002" y="1163" type="line"/>
      <point x="2002" y="248" type="line"/>
      <point x="924" y="248" type="line"/>
    </contour>
    <contour>
      <point x="1514" y="815" type="line" smooth="yes"/>
      <point x="1514" y="749.152"/>
      <point x="1496.36" y="677.226"/>
      <point x="1462" y="582" type="curve" smooth="yes"/>
      <point x="1455.45" y="563.833"/>
      <point x="1418" y="460"/>
      <point x="1411" y="442" type="curve"/>
      <point x="1306" y="196" type="line"/>
      <point x="1636" y="202" type="line"/>
      <point x="1735" y="437" type="line"/>
      <point x="1739" y="453"/>
      <point x="1765" y="550"/>
      <point x="1769" y="565" type="curve"/>
      <point x="1809.61" y="666.079"/>
      <point x="1837" y="761.094"/>
      <point x="1837" y="846" type="curve" smooth="yes"/>
      <point x="1837" y="864" type="line" smooth="yes"/>
      <point x="1837" y="1086.65"/>
      <point x="1693.36" y="1204"/>
      <point x="1416" y="1204" type="curve" smooth="yes"/>
      <point x="1142.63" y="1204"/>
      <point x="1001" y="1073.65"/>
      <point x="1001" y="827" type="curve" smooth="yes"/>
      <point x="1001" y="804" type="line" smooth="yes"/>
      <point x="1001" y="548.056"/>
      <point x="1177.64" y="409"/>
      <point x="1520" y="409" type="curve" smooth="yes"/>
      <point x="1562" y="409" type="line" smooth="yes"/>
      <point x="1594" y="409"/>
      <point x="1636" y="408.906"/>
      <point x="1671" y="410" type="curve" smooth="yes"/>
      <point x="1796" y="413.906"/>
      <point x="1908" y="438"/>
      <point x="2033" y="490" type="curve"/>
      <point x="2022" y="752" type="line"/>
      <point x="1929" y="704"/>
      <point x="1835.96" y="675.381"/>
      <point x="1737" y="665" type="curve" smooth="yes"/>
      <point x="1692.96" y="660.38"/>
      <point x="1647" y="660"/>
      <point x="1606" y="660" type="curve" smooth="yes"/>
      <point x="1527" y="660" type="line" smooth="yes"/>
      <point x="1389.67" y="660"/>
      <point x="1321" y="703.86"/>
      <point x="1321" y="813" type="curve" smooth="yes"/>
      <point x="1321" y="828" type="line" smooth="yes"/>
      <point x="1321" y="906.69"/>
      <point x="1353.64" y="942"/>
      <point x="1417" y="942" type="curve" smooth="yes"/>
      <point x="1481.35" y="942"/>
      <point x="1514" y="905.673"/>
      <point x="1514" y="831" type="curve" smooth="yes"/>
    </contour>
  </outline>
</glyph>
<glyph name="Sa.mlm" format="2">
  <advance width="2411"/>
  <unicode hex="0D38"/>
  <outline>
    <contour>
      <point x="79" y="668" type="curve" smooth="yes"/>
      <point x="79" y="481" type="line" smooth="yes"/>
      <point x="79" y="293.046"/>
      <point x="115" y="114.187"/>
      <point x="188" y="0" type="curve"/>
      <point x="530" y="0" type="line"/>
      <point x="459" y="132.385"/>
      <point x="419" y="296.097"/>
      <point x="419" y="478" type="curve" smooth="yes"/>
      <point x="419" y="669" type="line" smooth="yes"/>
      <point x="419" y="825.415"/>
      <point x="474" y="898"/>
      <point x="589" y="898" type="curve" smooth="yes"/>
      <point x="698" y="898"/>
      <point x="747" y="835"/>
      <point x="747" y="702" type="curve" smooth="yes"/>
      <point x="747" y="525" type="line"/>
      <point x="912" y="519" type="line"/>
      <point x="912" y="924" type="line"/>
      <point x="884" y="1094"/>
      <point x="772" y="1204"/>
      <point x="540" y="1204" type="curve" smooth="yes"/>
      <point x="234" y="1204"/>
      <point x="79" y="1026.34"/>
    </contour>
    <contour>
      <point x="747" y="632" type="line"/>
      <point x="747" y="4" type="line"/>
      <point x="1085" y="4" type="line"/>
      <point x="1085" y="632" type="line"/>
    </contour>
    <contour>
      <point x="1231" y="898" type="curve" smooth="yes"/>
      <point x="1333" y="898"/>
      <point x="1377" y="839.399"/>
      <point x="1377" y="715" type="curve" smooth="yes"/>
      <point x="1377" y="609.574"/>
      <point x="1368" y="527.361"/>
      <point x="1368" y="420" type="curve" smooth="yes"/>
      <point x="1368" y="117.67"/>
      <point x="1528" y="-34"/>
      <point x="1847" y="-34" type="curve" smooth="yes"/>
      <point x="2170" y="-34"/>
      <point x="2332" y="133.657"/>
      <point x="2332" y="472" type="curve" smooth="yes"/>
      <point x="2332" y="666" type="line" smooth="yes"/>
      <point x="2332" y="859.963"/>
      <point x="2289" y="1037.76"/>
      <point x="2198" y="1160" type="curve"/>
      <point x="1863" y="1160" type="line"/>
      <point x="1946" y="1025.62"/>
      <point x="1992" y="858.909"/>
      <point x="1992" y="673" type="curve" smooth="yes"/>
      <point x="1992" y="474" type="line" smooth="yes"/>
      <point x="1992" y="330.569"/>
      <point x="1947" y="265"/>
      <point x="1848" y="265" type="curve" smooth="yes"/>
      <point x="1751" y="265"/>
      <point x="1706" y="320.561"/>
      <point x="1706" y="443" type="curve" smooth="yes"/>
      <point x="1706" y="548.414"/>
      <point x="1715" y="630.618"/>
      <point x="1715" y="737" type="curve" smooth="yes"/>
      <point x="1715" y="1050.35"/>
      <point x="1573" y="1204"/>
      <point x="1283" y="1204" type="curve" smooth="yes"/>
      <point x="1059" y="1204"/>
      <point x="944" y="1095"/>
      <point x="921" y="924" type="curve"/>
      <point x="831" y="924" type="line"/>
      <point x="824" y="546" type="line"/>
      <point x="1085" y="524" type="line"/>
      <point x="1085" y="720" type="line" smooth="yes"/>
      <point x="1085" y="840"/>
      <point x="1130" y="898"/>
    </contour>
  </outline>
</glyph>
<glyph name="Ha.mlm" format="2">
  <advance width="2361"/>
  <unicode hex="0D39"/>
  <outline>
    <contour>
      <point x="532" y="806" type="curve" smooth="yes"/>
      <point x="224" y="806"/>
      <point x="68" y="653.33"/>
      <point x="68" y="349" type="curve" smooth="yes"/>
      <point x="68" y="300" type="line" smooth="yes"/>
      <point x="68" y="182.034"/>
      <point x="85" y="74.2373"/>
      <point x="118" y="0" type="curve"/>
      <point x="444" y="0" type="line"/>
      <point x="416" y="81.3793"/>
      <point x="396" y="177"/>
      <point x="396" y="295" type="curve" smooth="yes"/>
      <point x="396" y="343" type="line" smooth="yes"/>
      <point x="396" y="461.343"/>
      <point x="438" y="520"/>
      <point x="531" y="520" type="curve" smooth="yes"/>
      <point x="625" y="520"/>
      <point x="667" y="461.343"/>
      <point x="667" y="343" type="curve" smooth="yes"/>
      <point x="667" y="295" type="line" smooth="yes"/>
      <point x="667" y="187.066"/>
      <point x="647" y="95.4234"/>
      <point x="614" y="16" type="curve"/>
      <point x="614" y="0" type="line"/>
      <point x="841" y="0" type="line"/>
      <point x="945" y="95.3056"/>
      <point x="998" y="236.236"/>
      <point x="998" y="365" type="curve" smooth="yes"/>
      <point x="998" y="388" type="line" smooth="yes"/>
      <point x="998" y="665.317"/>
      <point x="842" y="806"/>
    </contour>
    <contour>
      <point x="937" y="264" type="line"/>
      <point x="621" y="0" type="line"/>
      <point x="1627" y="0" type="line"/>
      <point x="1369" y="264" type="line"/>
    </contour>
    <contour>
      <point x="1734" y="909" type="curve" smooth="yes"/>
      <point x="1872" y="909"/>
      <point x="1941" y="825.398"/>
      <point x="1941" y="648" type="curve" smooth="yes"/>
      <point x="1941" y="451" type="line" smooth="yes"/>
      <point x="1941" y="280.105"/>
      <point x="1904" y="124.379"/>
      <point x="1842" y="0" type="curve"/>
      <point x="2183" y="0" type="line"/>
      <point x="2248" y="109.189"/>
      <point x="2282" y="279.04"/>
      <point x="2282" y="459" type="curve" smooth="yes"/>
      <point x="2282" y="651" type="line" smooth="yes"/>
      <point x="2282" y="1020.32"/>
      <point x="2096" y="1208"/>
      <point x="1736" y="1208" type="curve" smooth="yes"/>
      <point x="1373" y="1208"/>
      <point x="1189" y="1019.26"/>
      <point x="1189" y="665" type="curve" smooth="yes"/>
      <point x="1189" y="472" type="line" smooth="yes"/>
      <point x="1189" y="287.041"/>
      <point x="1244" y="112.188"/>
      <point x="1353" y="0" type="curve"/>
      <point x="1627" y="0" type="line"/>
      <point x="1627" y="16" type="line"/>
      <point x="1565" y="137.395"/>
      <point x="1529" y="287.116"/>
      <point x="1529" y="451" type="curve" smooth="yes"/>
      <point x="1529" y="648" type="line" smooth="yes"/>
      <point x="1529" y="825.398"/>
      <point x="1597" y="909"/>
    </contour>
  </outline>
</glyph>
<glyph name="Praslesham.mlm" format="2">
  <advance width="714"/>
  <unicode hex="0D3D"/>
  <outline>
    <contour>
      <point x="486" y="14" type="curve" smooth="yes"/>
      <point x="553" y="1052" type="line" smooth="yes"/>
      <point x="565" y="1223"/>
      <point x="607" y="1290"/>
      <point x="724" y="1290" type="curve" smooth="yes"/>
      <point x="763" y="1290"/>
      <point x="808" y="1282"/>
      <point x="849" y="1268" type="curve"/>
      <point x="805" y="1541" type="line"/>
      <point x="758" y="1559"/>
      <point x="693" y="1571"/>
      <point x="627" y="1571" type="curve" smooth="yes"/>
      <point x="352" y="1571"/>
      <point x="244.967" y="1392"/>
      <point x="223" y="1057" type="curve" smooth="yes"/>
      <point x="155" y="20" type="line" smooth="yes"/>
      <point x="143.392" y="-157.026"/>
      <point x="95" y="-228"/>
      <point x="-34" y="-228" type="curve" smooth="yes"/>
      <point x="-78" y="-228"/>
      <point x="-133" y="-219"/>
      <point x="-179" y="-205" type="curve"/>
      <point x="-135" y="-477" type="line"/>
      <point x="-83" y="-496"/>
      <point x="-11" y="-509"/>
      <point x="62" y="-509" type="curve" smooth="yes"/>
      <point x="350" y="-509"/>
      <point x="464" y="-326"/>
    </contour>
  </outline>
</glyph>
<glyph name="matraA.mlm" format="2">
  <advance width="905"/>
  <unicode hex="0D3E"/>
  <outline>
    <contour>
      <point x="265" y="262" type="curve" smooth="yes"/>
      <point x="184" y="262"/>
      <point x="105" y="286"/>
      <point x="45" y="322" type="curve"/>
      <point x="75" y="22" type="line"/>
      <point x="149" y="-14"/>
      <point x="239" y="-37"/>
      <point x="353" y="-37" type="curve" smooth="yes"/>
      <point x="673" y="-37"/>
      <point x="826" y="139.626"/>
      <point x="826" y="506" type="curve" smooth="yes"/>
      <point x="826" y="659" type="line" smooth="yes"/>
      <point x="826" y="1029.03"/>
      <point x="669" y="1205"/>
      <point x="343" y="1205" type="curve" smooth="yes"/>
      <point x="241" y="1205"/>
      <point x="152" y="1183"/>
      <point x="79" y="1151" type="curve"/>
      <point x="48" y="861" type="line"/>
      <point x="109" y="890"/>
      <point x="183" y="907"/>
      <point x="256" y="907" type="curve" smooth="yes"/>
      <point x="413" y="907"/>
      <point x="486" y="826.055"/>
      <point x="486" y="650" type="curve" smooth="yes"/>
      <point x="486" y="516" type="line" smooth="yes"/>
      <point x="486" y="341.566"/>
      <point x="411" y="262"/>
    </contour>
  </outline>
</glyph>
<glyph name="matraI.mlm" format="2">
  <advance width="557"/>
  <unicode hex="0D3F"/>
  <outline>
    <contour>
      <point x="454" y="0" type="line"/>
      <point x="454" y="1074" type="line" smooth="yes"/>
      <point x="454" y="1457"/>
      <point x="276.474" y="1649"/>
      <point x="-89" y="1649" type="curve" smooth="yes"/>
      <point x="-229.714" y="1649"/>
      <point x="-356.938" y="1618.66"/>
      <point x="-459" y="1566" type="curve"/>
      <point x="-505" y="1280" type="line"/>
      <point x="-396.082" y="1330.04"/>
      <point x="-263.76" y="1361"/>
      <point x="-157" y="1361" type="curve" smooth="yes"/>
      <point x="34.7849" y="1361"/>
      <point x="116" y="1282.59"/>
      <point x="116" y="1068" type="curve" smooth="yes"/>
      <point x="116" y="0" type="line"/>
    </contour>
  </outline>
</glyph>
<glyph name="matraUu.mlm" format="2">
  <advance width="912"/>
  <unicode hex="0D42"/>
  <outline>
    <contour>
      <point x="434" y="126" type="curve" smooth="yes"/>
      <point x="376" y="126"/>
      <point x="324" y="140"/>
      <point x="299" y="166" type="curve"/>
      <point x="244" y="106" type="line"/>
      <point x="261" y="15" type="line"/>
      <point x="293" y="-43"/>
      <point x="358" y="-72"/>
      <point x="434" y="-72" type="curve" smooth="yes"/>
      <point x="509" y="-72"/>
      <point x="574" y="-43"/>
      <point x="606" y="15" type="curve"/>
      <point x="626" y="106" type="line"/>
      <point x="568" y="166" type="line"/>
      <point x="543" y="140"/>
      <point x="492" y="126"/>
    </contour>
    <contour>
      <point x="434" y="-166" type="curve" smooth="yes"/>
      <point x="338" y="-166"/>
      <point x="287" y="-113.952"/>
      <point x="287" y="-17" type="curve" smooth="yes"/>
      <point x="287" y="80" type="line" smooth="yes"/>
      <point x="287" y="176.952"/>
      <point x="338" y="229"/>
      <point x="434" y="229" type="curve" smooth="yes"/>
      <point x="531" y="229"/>
      <point x="581" y="176.952"/>
      <point x="581" y="80" type="curve" smooth="yes"/>
      <point x="581" y="-17" type="line" smooth="yes"/>
      <point x="581" y="-113.952"/>
      <point x="531" y="-166"/>
    </contour>
    <contour>
      <point x="431" y="449" type="curve" smooth="yes"/>
      <point x="161" y="449"/>
      <point x="19" y="316.984"/>
      <point x="19" y="59" type="curve" smooth="yes"/>
      <point x="19" y="6" type="line" smooth="yes"/>
      <point x="19" y="-268.045"/>
      <point x="163" y="-396"/>
      <point x="434" y="-396" type="curve" smooth="yes"/>
      <point x="706" y="-396"/>
      <point x="848" y="-270.038"/>
      <point x="848" y="-3" type="curve" smooth="yes"/>
      <point x="848" y="50" type="line" smooth="yes"/>
      <point x="848" y="282.809"/>
      <point x="730" y="409.796"/>
      <point x="507" y="436" type="curve"/>
      <point x="483" y="441"/>
      <point x="459" y="449"/>
    </contour>
    <contour>
      <point x="808" y="756" type="curve" smooth="yes"/>
      <point x="808" y="777" type="line" smooth="yes"/>
      <point x="808" y="1063"/>
      <point x="668" y="1204"/>
      <point x="393" y="1204" type="curve" smooth="yes"/>
      <point x="284" y="1204"/>
      <point x="193" y="1181"/>
      <point x="122" y="1147" type="curve"/>
      <point x="92" y="853" type="line"/>
      <point x="153" y="886"/>
      <point x="221" y="907"/>
      <point x="301" y="907" type="curve" smooth="yes"/>
      <point x="417" y="907"/>
      <point x="472" y="846"/>
      <point x="472" y="737" type="curve" smooth="yes"/>
      <point x="472" y="722" type="line" smooth="yes"/>
      <point x="472" y="598"/>
      <point x="401" y="473"/>
      <point x="292" y="399" type="curve"/>
      <point x="535" y="305" type="line"/>
      <point x="715" y="399"/>
      <point x="808" y="564"/>
    </contour>
  </outline>
</glyph>
<glyph name="matrashortE.mlm" format="2">
  <advance width="1528"/>
  <unicode hex="0D46"/>
  <outline>
    <contour>
      <point x="751" y="925" type="curve" smooth="yes"/>
      <point x="990" y="925"/>
      <point x="1110" y="802.36"/>
      <point x="1110" y="551" type="curve" smooth="yes"/>
      <point x="1110" y="455" type="line" smooth="yes"/>
      <point x="1110" y="284.122"/>
      <point x="1079" y="133.467"/>
      <point x="1017" y="0" type="curve"/>
      <point x="1359" y="0" type="line"/>
      <point x="1418" y="111.18"/>
      <point x="1450" y="291.09"/>
      <point x="1450" y="471" type="curve" smooth="yes"/>
      <point x="1450" y="575" type="line" smooth="yes"/>
      <point x="1450" y="989.272"/>
      <point x="1216" y="1208"/>
      <point x="759" y="1208" type="curve" smooth="yes"/>
      <point x="300" y="1208"/>
      <point x="72" y="980.772"/>
      <point x="72" y="556" type="curve" smooth="yes"/>
      <point x="72" y="412" type="line" smooth="yes"/>
      <point x="72" y="118.682"/>
      <point x="220" y="-33"/>
      <point x="507" y="-33" type="curve" smooth="yes"/>
      <point x="790" y="-33"/>
      <point x="933" y="99.0234"/>
      <point x="933" y="354" type="curve" smooth="yes"/>
      <point x="933" y="421" type="line" smooth="yes"/>
      <point x="933" y="665.535"/>
      <point x="837" y="778"/>
      <point x="662" y="778" type="curve" smooth="yes"/>
      <point x="506" y="778"/>
      <point x="419" y="698"/>
      <point x="393" y="539" type="curve"/>
      <point x="397" y="447" type="line"/>
      <point x="418.807" y="484"/>
      <point x="457.465" y="507"/>
      <point x="510" y="507" type="curve" smooth="yes"/>
      <point x="575.32" y="507"/>
      <point x="606" y="470.321"/>
      <point x="606" y="399" type="curve" smooth="yes"/>
      <point x="606" y="354" type="line" smooth="yes"/>
      <point x="606" y="275.649"/>
      <point x="572.337" y="238"/>
      <point x="506" y="238" type="curve" smooth="yes"/>
      <point x="434.673" y="238"/>
      <point x="400" y="277.538"/>
      <point x="400" y="385" type="curve" smooth="yes"/>
      <point x="400" y="469" type="line"/>
      <point x="400.273" y="473.862"/>
      <point x="404.758" y="553.689"/>
      <point x="405" y="558" type="curve"/>
      <point x="404.076" y="558"/>
      <point x="387.036" y="558"/>
      <point x="386" y="558" type="curve"/>
      <point x="386" y="566" type="line" smooth="yes"/>
      <point x="386" y="809.39"/>
      <point x="511" y="925"/>
    </contour>
  </outline>
</glyph>
<glyph name="Virama.mlm" format="2">
  <unicode hex="0D4D"/>
  <outline>
    <contour>
      <point x="-290" y="1504" type="curve" smooth="yes"/>
      <point x="-387" y="1504"/>
      <point x="-424" y="1564.16"/>
      <point x="-424" y="1643" type="curve" smooth="yes"/>
      <point x="-424" y="1677" type="line"/>
      <point x="-714" y="1677" type="line"/>
      <point x="-714" y="1638" type="line" smooth="yes"/>
      <point x="-714" y="1403.94"/>
      <point x="-582" y="1256"/>
      <point x="-291" y="1256" type="curve" smooth="yes"/>
      <point x="2" y="1256"/>
      <point x="134" y="1403.94"/>
      <point x="134" y="1638" type="curve" smooth="yes"/>
      <point x="134" y="1677" type="line"/>
      <point x="-157" y="1677" type="line"/>
      <point x="-157" y="1643" type="line" smooth="yes"/>
      <point x="-157" y="1564.16"/>
      <point x="-193" y="1504"/>
    </contour>
  </outline>
</glyph>
<glyph name="dotreph.mlm" format="2">
  <unicode hex="0D4E"/>
  <outline>
    <contour>
      <point x="-1107" y="1490" type="line" smooth="yes"/>
      <point x="-1107" y="1370"/>
      <point x="-1038" y="1305"/>
      <point x="-915" y="1305" type="curve" smooth="yes"/>
      <point x="-792" y="1305"/>
      <point x="-723" y="1370"/>
      <point x="-723" y="1490" type="curve" smooth="yes"/>
      <point x="-723" y="1500" type="line" smooth="yes"/>
      <point x="-723" y="1621"/>
      <point x="-792" y="1686"/>
      <point x="-915" y="1686" type="curve" smooth="yes"/>
      <point x="-1038" y="1686"/>
      <point x="-1107" y="1621"/>
      <point x="-1107" y="1500" type="curve" smooth="yes"/>
    </contour>
  </outline>
</glyph>
<glyph name="parasign.mlm" format="2">
  <advance width="2697"/>
  <unicode hex="0D4F"/>
  <outline>
    <contour>
      <point x="416" y="438" type="curve" smooth="yes"/>
      <point x="416" y="488" type="line" smooth="yes"/>
      <point x="416" y="752.044"/>
      <point x="485" y="967.449"/>
      <point x="645" y="1163" type="curve"/>
      <point x="295" y="1163" type="line"/>
      <point x="150.339" y="992.257"/>
      <point x="78" y="757.982"/>
      <point x="78" y="484" type="curve" smooth="yes"/>
      <point x="78" y="435" type="line" smooth="yes"/>
      <point x="78" y="-201.885"/>
      <point x="451" y="-524"/>
      <point x="1349" y="-524" type="curve" smooth="yes"/>
      <point x="2242" y="-524"/>
      <point x="2618" y="-209.473"/>
      <point x="2618" y="431" type="curve" smooth="yes"/>
      <point x="2618" y="633" type="line" smooth="yes"/>
      <point x="2618" y="1013.67"/>
      <point x="2461.33" y="1204"/>
      <point x="2146" y="1204" type="curve" smooth="yes"/>
      <point x="1918" y="1204"/>
      <point x="1790" y="1098"/>
      <point x="1768" y="913" type="curve"/>
      <point x="1679" y="913" type="line"/>
      <point x="1679" y="538" type="line"/>
      <point x="1935" y="529" type="line"/>
      <point x="1935" y="704" type="line" smooth="yes"/>
      <point x="1935" y="835"/>
      <point x="1985.69" y="898"/>
      <point x="2096" y="898" type="curve" smooth="yes"/>
      <point x="2217.33" y="898"/>
      <point x="2278" y="812.708"/>
      <point x="2278" y="634" type="curve" smooth="yes"/>
      <point x="2278" y="431" type="line" smooth="yes"/>
      <point x="2278" y="-25.7167"/>
      <point x="2018" y="-243"/>
      <point x="1349" y="-243" type="curve" smooth="yes"/>
      <point x="680" y="-243"/>
      <point x="416" y="-24.566"/>
    </contour>
    <contour>
      <point x="1598" y="4" type="line"/>
      <point x="1935" y="4" type="line"/>
      <point x="1935" y="666" type="line"/>
      <point x="1598" y="595" type="line"/>
    </contour>
    <contour>
      <point x="1244" y="1204" type="curve" smooth="yes"/>
      <point x="810" y="1204"/>
      <point x="595" y="976.516"/>
      <point x="595" y="551" type="curve" smooth="yes"/>
      <point x="595" y="413" type="line" smooth="yes"/>
      <point x="595" y="119.367"/>
      <point x="743" y="-33"/>
      <point x="1028" y="-33" type="curve" smooth="yes"/>
      <point x="1309" y="-33"/>
      <point x="1452" y="99.7102"/>
      <point x="1452" y="355" type="curve" smooth="yes"/>
      <point x="1452" y="418" type="line" smooth="yes"/>
      <point x="1452" y="662.893"/>
      <point x="1356" y="776"/>
      <point x="1183" y="776" type="curve" smooth="yes"/>
      <point x="1028" y="776"/>
      <point x="942" y="696"/>
      <point x="916" y="538" type="curve"/>
      <point x="920" y="446" type="line"/>
      <point x="940.812" y="482"/>
      <point x="979.464" y="505"/>
      <point x="1031" y="505" type="curve" smooth="yes"/>
      <point x="1094.33" y="505"/>
      <point x="1125" y="467.629"/>
      <point x="1125" y="396" type="curve" smooth="yes"/>
      <point x="1125" y="355" type="line" smooth="yes"/>
      <point x="1125" y="276.31"/>
      <point x="1091.34" y="238"/>
      <point x="1027" y="238" type="curve" smooth="yes"/>
      <point x="957.667" y="238"/>
      <point x="923" y="278.083"/>
      <point x="923" y="386" type="curve" smooth="yes"/>
      <point x="923" y="468" type="line"/>
      <point x="928" y="557" type="line"/>
      <point x="909" y="557" type="line"/>
      <point x="909" y="559" type="line"/>
      <point x="909" y="804.771"/>
      <point x="1030" y="922"/>
      <point x="1262" y="922" type="curve" smooth="yes"/>
      <point x="1486" y="922"/>
      <point x="1598" y="826"/>
      <point x="1598" y="632" type="curve" smooth="yes"/>
      <point x="1598" y="550" type="line"/>
      <point x="1760" y="550" type="line"/>
      <point x="1759" y="913" type="line"/>
      <point x="1715" y="1093"/>
      <point x="1553" y="1204"/>
    </contour>
  </outline>
</glyph>
<glyph name="chilluM.mlm" format="2">
  <advance width="1509"/>
  <unicode hex="0D54"/>
  <outline>
    <contour>
      <point x="260" y="247" type="line"/>
      <point x="118" y="0" type="line"/>
      <point x="1375" y="0" type="line"/>
      <point x="1308" y="247" type="line"/>
    </contour>
    <contour>
      <point x="1415" y="583" type="line" smooth="yes"/>
      <point x="1415" y="920.298"/>
      <point x="1328" y="1032.06"/>
      <point x="1328" y="1317" type="curve" smooth="yes"/>
      <point x="1328" y="1392"/>
      <point x="1339" y="1460"/>
      <point x="1353" y="1527" type="curve"/>
      <point x="1052" y="1527" type="line"/>
      <point x="1036" y="1473"/>
      <point x="1023" y="1409"/>
      <point x="1023" y="1337" type="curve" smooth="yes"/>
      <point x="1023" y="1255"/>
      <point x="1044" y="1188"/>
      <point x="1099" y="1115" type="curve"/>
      <point x="1092" y="1106" type="line"/>
      <point x="1010" y="1173"/>
      <point x="904" y="1208"/>
      <point x="734" y="1208" type="curve" smooth="yes"/>
      <point x="316" y="1208"/>
      <point x="95" y="996.304"/>
      <point x="95" y="584" type="curve" smooth="yes"/>
      <point x="95" y="0" type="line"/>
      <point x="416" y="0" type="line"/>
      <point x="416" y="583" type="line" smooth="yes"/>
      <point x="416" y="837.596"/>
      <point x="513" y="937"/>
      <point x="755" y="937" type="curve" smooth="yes"/>
      <point x="976" y="937"/>
      <point x="1092" y="836.578"/>
      <point x="1092" y="584" type="curve" smooth="yes"/>
      <point x="1092" y="0" type="line"/>
      <point x="1415" y="0" type="line"/>
    </contour>
    <contour>
      <point x="942" y="616" type="line" smooth="yes"/>
      <point x="942" y="817.067"/>
      <point x="820.718" y="935"/>
      <point x="599" y="935" type="curve" smooth="yes"/>
      <point x="549.092" y="935"/>
      <point x="489.234" y="926.231"/>
      <point x="432" y="899" type="curve"/>
      <point x="396" y="731" type="line"/>
      <point x="430.438" y="755.444"/>
      <point x="466.531" y="765"/>
      <point x="502" y="765" type="curve" smooth="yes"/>
      <point x="586.926" y="765"/>
      <point x="616" y="700.174"/>
      <point x="616" y="618" type="curve" smooth="yes"/>
      <point x="616" y="603" type="line" smooth="yes"/>
      <point x="616" y="467.622"/>
      <point x="554.573" y="335.252"/>
      <point x="472" y="245" type="curve"/>
      <point x="750" y="198" type="line"/>
      <point x="868.618" y="289.915"/>
      <point x="942" y="434.352"/>
      <point x="942" y="600" type="curve" smooth="yes"/>
    </contour>
  </outline>
</glyph>
<glyph name="lengthAu.mlm" format="2">
  <advance width="1568"/>
  <unicode hex="0D57"/>
  <outline>
    <contour>
      <point x="736" y="254" type="curve" smooth="yes"/>
      <point x="600" y="254"/>
      <point x="506" y="263"/>
      <point x="387" y="290" type="curve"/>
      <point x="444" y="0" type="line"/>
      <point x="552" y="-23"/>
      <point x="661" y="-34"/>
      <point x="786" y="-34" type="curve" smooth="yes"/>
      <point x="1250" y="-34"/>
      <point x="1490" y="182.644"/>
      <point x="1490" y="625" type="curve" smooth="yes"/>
      <point x="1490" y="744" type="line" smooth="yes"/>
      <point x="1490" y="1050.33"/>
      <point x="1355" y="1204"/>
      <point x="1089" y="1204" type="curve" smooth="yes"/>
      <point x="890" y="1204"/>
      <point x="794" y="1103"/>
      <point x="772" y="946" type="curve"/>
      <point x="764" y="946" type="line"/>
      <point x="742" y="1103"/>
      <point x="647" y="1204"/>
      <point x="449" y="1204" type="curve" smooth="yes"/>
      <point x="188" y="1204"/>
      <point x="59" y="1059.31"/>
      <point x="59" y="775" type="curve" smooth="yes"/>
      <point x="59" y="741" type="line" smooth="yes"/>
      <point x="59" y="637.031"/>
      <point x="73" y="543.255"/>
      <point x="96" y="477" type="curve"/>
      <point x="425" y="477" type="line"/>
      <point x="407" y="544.381"/>
      <point x="392" y="626.054"/>
      <point x="392" y="721" type="curve" smooth="yes"/>
      <point x="392" y="757" type="line" smooth="yes"/>
      <point x="392" y="853.419"/>
      <point x="425" y="898"/>
      <point x="495" y="898" type="curve" smooth="yes"/>
      <point x="565" y="898"/>
      <point x="597" y="851"/>
      <point x="600" y="755" type="curve" smooth="yes"/>
      <point x="609" y="484" type="line"/>
      <point x="925" y="484" type="line"/>
      <point x="934" y="755" type="line" smooth="yes"/>
      <point x="937" y="852"/>
      <point x="966" y="898"/>
      <point x="1037" y="898" type="curve" smooth="yes"/>
      <point x="1113" y="898"/>
      <point x="1151" y="849.423"/>
      <point x="1151" y="744" type="curve" smooth="yes"/>
      <point x="1151" y="624" type="line" smooth="yes"/>
      <point x="1151" y="369.562"/>
      <point x="1022" y="254"/>
    </contour>
  </outline>
</glyph>
<glyph name="oneonehundredandsixtieth.mlm" format="2">
  <advance width="2458"/>
  <unicode hex="0D58"/>
  <outline>
    <contour>
      <point x="736" y="529" type="line"/>
      <point x="1074" y="524" type="line"/>
      <point x="1074" y="1151" type="line"/>
      <point x="736" y="1151" type="line"/>
    </contour>
    <contour>
      <point x="901" y="246" type="curve"/>
      <point x="921" y="641" type="line"/>
      <point x="736" y="635" type="line"/>
      <point x="736" y="466" type="line" smooth="yes"/>
      <point x="736" y="335"/>
      <point x="687" y="274"/>
      <point x="583" y="274" type="curve" smooth="yes"/>
      <point x="470" y="274"/>
      <point x="419" y="345.598"/>
      <point x="419" y="498" type="curve" smooth="yes"/>
      <point x="419" y="685" type="line" smooth="yes"/>
      <point x="419" y="865.904"/>
      <point x="461" y="1030.64"/>
      <point x="538" y="1160" type="curve"/>
      <point x="203" y="1160" type="line"/>
      <point x="119" y="1039.75"/>
      <point x="79" y="866.96"/>
      <point x="79" y="678" type="curve" smooth="yes"/>
      <point x="79" y="494" type="line" smooth="yes"/>
      <point x="79" y="139.638"/>
      <point x="228" y="-33"/>
      <point x="531" y="-33" type="curve" smooth="yes"/>
      <point x="761" y="-33"/>
      <point x="879" y="76"/>
    </contour>
    <contour>
      <point x="1223" y="-33" type="curve" smooth="yes"/>
      <point x="1414" y="-33"/>
      <point x="1517" y="78"/>
      <point x="1536" y="246" type="curve"/>
      <point x="1626" y="246" type="line"/>
      <point x="1633" y="614" type="line"/>
      <point x="1372" y="634" type="line"/>
      <point x="1372" y="456" type="line" smooth="yes"/>
      <point x="1372" y="333"/>
      <point x="1324" y="274"/>
      <point x="1223" y="274" type="curve" smooth="yes"/>
      <point x="1122" y="274"/>
      <point x="1074" y="333"/>
      <point x="1074" y="456" type="curve" smooth="yes"/>
      <point x="1074" y="634" type="line"/>
      <point x="812" y="614" type="line"/>
      <point x="820" y="246" type="line"/>
      <point x="910" y="246" type="line"/>
      <point x="928" y="78"/>
      <point x="1032" y="-33"/>
    </contour>
    <contour>
      <point x="1710" y="529" type="line"/>
      <point x="1710" y="1151" type="line"/>
      <point x="1372" y="1151" type="line"/>
      <point x="1372" y="524" type="line"/>
    </contour>
    <contour>
      <point x="2039" y="520" type="line" smooth="yes"/>
      <point x="2039" y="351.577"/>
      <point x="1984" y="274"/>
      <point x="1864" y="274" type="curve" smooth="yes"/>
      <point x="1759" y="274"/>
      <point x="1710" y="335"/>
      <point x="1710" y="466" type="curve" smooth="yes"/>
      <point x="1710" y="635" type="line"/>
      <point x="1537" y="635" type="line"/>
      <point x="1544" y="246" type="line"/>
      <point x="1567" y="76"/>
      <point x="1687" y="-33"/>
      <point x="1914" y="-33" type="curve" smooth="yes"/>
      <point x="2222" y="-33"/>
      <point x="2379" y="144.645"/>
      <point x="2379" y="507" type="curve" smooth="yes"/>
      <point x="2379" y="750" type="line" smooth="yes"/>
      <point x="2379" y="1321.23"/>
      <point x="2026" y="1633"/>
      <point x="1362" y="1633" type="curve" smooth="yes"/>
      <point x="1165" y="1633"/>
      <point x="967" y="1612"/>
      <point x="796" y="1562" type="curve"/>
      <point x="728" y="1282" type="line"/>
      <point x="886" y="1324"/>
      <point x="1101" y="1359"/>
      <point x="1338" y="1359" type="curve" smooth="yes"/>
      <point x="1802" y="1359"/>
      <point x="2039" y="1163.39"/>
      <point x="2039" y="751" type="curve" smooth="yes"/>
    </contour>
  </outline>
</glyph>
<glyph name="onetwentieth.mlm" format="2">
  <advance width="1825"/>
  <unicode hex="0D5B"/>
  <outline>
    <contour>
      <point x="433" y="0" type="line"/>
      <point x="433" y="1163" type="line"/>
      <point x="95" y="1163" type="line"/>
      <point x="95" y="0" type="line"/>
    </contour>
    <contour>
      <point x="800" y="900" type="line"/>
      <point x="1112" y="1163" type="line"/>
      <point x="136" y="1163" type="line"/>
      <point x="136" y="900" type="line"/>
    </contour>
    <contour>
      <point x="1209" y="255" type="curve" smooth="yes"/>
      <point x="1077" y="255"/>
      <point x="1013" y="338.621"/>
      <point x="1013" y="513" type="curve" smooth="yes"/>
      <point x="1013" y="702" type="line" smooth="yes"/>
      <point x="1013" y="870.898"/>
      <point x="1050" y="1022.6"/>
      <point x="1113" y="1147" type="curve"/>
      <point x="1113" y="1163" type="line"/>
      <point x="832" y="1163" type="line"/>
      <point x="725" y="1050.82"/>
      <point x="673" y="873.964"/>
      <point x="673" y="687" type="curve" smooth="yes"/>
      <point x="673" y="492" type="line" smooth="yes"/>
      <point x="673" y="138.704"/>
      <point x="854" y="-44"/>
      <point x="1209" y="-44" type="curve" smooth="yes"/>
      <point x="1563" y="-44"/>
      <point x="1746" y="142.688"/>
      <point x="1746" y="509" type="curve" smooth="yes"/>
      <point x="1746" y="703" type="line" smooth="yes"/>
      <point x="1746" y="883.967"/>
      <point x="1711" y="1054.82"/>
      <point x="1642" y="1163" type="curve"/>
      <point x="1305" y="1163" type="line"/>
      <point x="1368" y="1036.63"/>
      <point x="1406" y="877.908"/>
      <point x="1406" y="702" type="curve" smooth="yes"/>
      <point x="1406" y="513" type="line" smooth="yes"/>
      <point x="1406" y="338.621"/>
      <point x="1340" y="255"/>
    </contour>
  </outline>
</glyph>
<glyph name="onetenth.mlm" format="2">
  <advance width="2952"/>
  <unicode hex="0D5C"/>
  <outline>
    <contour>
      <point x="1907" y="422" type="curve" smooth="yes"/>
      <point x="1907" y="118.674"/>
      <point x="2065" y="-34"/>
      <point x="2383" y="-34" type="curve" smooth="yes"/>
      <point x="2707" y="-34"/>
      <point x="2873" y="133.657"/>
      <point x="2873" y="472" type="curve" smooth="yes"/>
      <point x="2873" y="666" type="line" smooth="yes"/>
      <point x="2873" y="859.963"/>
      <point x="2831" y="1037.76"/>
      <point x="2740" y="1160" type="curve"/>
      <point x="2405" y="1160" type="line"/>
      <point x="2488" y="1025.62"/>
      <point x="2533" y="858.909"/>
      <point x="2533" y="673" type="curve" smooth="yes"/>
      <point x="2533" y="474" type="line" smooth="yes"/>
      <point x="2533" y="330.569"/>
      <point x="2486" y="265"/>
      <point x="2384" y="265" type="curve" smooth="yes"/>
      <point x="2290" y="265"/>
      <point x="2245" y="318.566"/>
      <point x="2245" y="436" type="curve" smooth="yes"/>
      <point x="2245" y="550.369"/>
      <point x="2254" y="634.692"/>
      <point x="2254" y="751" type="curve" smooth="yes"/>
      <point x="2254" y="1053.33"/>
      <point x="2095" y="1205"/>
      <point x="1778" y="1205" type="curve" smooth="yes"/>
      <point x="1461" y="1205"/>
      <point x="1301" y="1053.33"/>
      <point x="1301" y="751" type="curve" smooth="yes"/>
      <point x="1301" y="634.67"/>
      <point x="1310" y="549.361"/>
      <point x="1310" y="434" type="curve" smooth="yes"/>
      <point x="1310" y="318.585"/>
      <point x="1268" y="265"/>
      <point x="1177" y="265" type="curve" smooth="yes"/>
      <point x="1086" y="265"/>
      <point x="1043" y="318.585"/>
      <point x="1043" y="434" type="curve" smooth="yes"/>
      <point x="1043" y="548.38"/>
      <point x="1052" y="633.681"/>
      <point x="1052" y="750" type="curve" smooth="yes"/>
      <point x="1052" y="1053.33"/>
      <point x="893" y="1205"/>
      <point x="575" y="1205" type="curve" smooth="yes"/>
      <point x="247" y="1205"/>
      <point x="79" y="1035.35"/>
      <point x="79" y="691" type="curve" smooth="yes"/>
      <point x="79" y="489" type="line" smooth="yes"/>
      <point x="79" y="299.058"/>
      <point x="119" y="114.167"/>
      <point x="197" y="0" type="curve"/>
      <point x="542" y="0" type="line"/>
      <point x="465" y="133.372"/>
      <point x="419" y="302.108"/>
      <point x="419" y="486" type="curve" smooth="yes"/>
      <point x="419" y="688" type="line" smooth="yes"/>
      <point x="419" y="837.427"/>
      <point x="471" y="906"/>
      <point x="574" y="906" type="curve" smooth="yes"/>
      <point x="670" y="906"/>
      <point x="714" y="852.443"/>
      <point x="714" y="734" type="curve" smooth="yes"/>
      <point x="714" y="620.6"/>
      <point x="706" y="534.338"/>
      <point x="706" y="419" type="curve" smooth="yes"/>
      <point x="706" y="117.674"/>
      <point x="864" y="-34"/>
      <point x="1177" y="-34" type="curve" smooth="yes"/>
      <point x="1491" y="-34"/>
      <point x="1648" y="117.674"/>
      <point x="1648" y="419" type="curve" smooth="yes"/>
      <point x="1648" y="534.338"/>
      <point x="1639" y="620.6"/>
      <point x="1639" y="734" type="curve" smooth="yes"/>
      <point x="1639" y="852.443"/>
      <point x="1684" y="906"/>
      <point x="1778" y="906" type="curve" smooth="yes"/>
      <point x="1873" y="906"/>
      <point x="1916" y="852.443"/>
      <point x="1916" y="734" type="curve" smooth="yes"/>
      <point x="1916" y="621.602"/>
      <point x="1907" y="536.335"/>
    </contour>
  </outline>
</glyph>
<glyph name="onefifth.mlm" format="2">
  <advance width="2850"/>
  <unicode hex="0D5E"/>
  <outline>
    <contour>
      <point x="2021" y="911" type="line"/>
      <point x="2325" y="1162" type="line"/>
      <point x="1497" y="1162" type="line"/>
      <point x="1711" y="911" type="line"/>
    </contour>
    <contour>
      <point x="2395" y="760" type="curve" smooth="yes"/>
      <point x="2314" y="760"/>
      <point x="2280" y="806.979"/>
      <point x="2280" y="904" type="curve" smooth="yes"/>
      <point x="2280" y="928" type="line" smooth="yes"/>
      <point x="2280" y="1007.83"/>
      <point x="2295" y="1081.52"/>
      <point x="2325" y="1146" type="curve"/>
      <point x="2325" y="1162" type="line"/>
      <point x="2105" y="1162" type="line"/>
      <point x="2020.07" y="1082.33"/>
      <point x="1975" y="963.353"/>
      <point x="1975" y="855" type="curve" smooth="yes"/>
      <point x="1975" y="844" type="line" smooth="yes"/>
      <point x="1975" y="596"/>
      <point x="2119" y="481"/>
      <point x="2393" y="481" type="curve" smooth="yes"/>
      <point x="2676" y="481"/>
      <point x="2822" y="605.628"/>
      <point x="2822" y="878" type="curve" smooth="yes"/>
      <point x="2822" y="906" type="line" smooth="yes"/>
      <point x="2822" y="1001.11"/>
      <point x="2801" y="1096.23"/>
      <point x="2764" y="1162" type="curve"/>
      <point x="2466" y="1162" type="line"/>
      <point x="2495" y="1093.54"/>
      <point x="2509" y="1013.83"/>
      <point x="2509" y="928" type="curve" smooth="yes"/>
      <point x="2509" y="904" type="line" smooth="yes"/>
      <point x="2509" y="806.979"/>
      <point x="2475" y="760"/>
    </contour>
    <contour>
      <point x="1545" y="898" type="line" smooth="yes"/>
      <point x="1545" y="802.324"/>
      <point x="1505" y="755"/>
      <point x="1428" y="755" type="curve" smooth="yes"/>
      <point x="1296" y="755" type="line"/>
      <point x="1393" y="502" type="line"/>
      <point x="1475" y="502" type="line" smooth="yes"/>
      <point x="1722" y="502"/>
      <point x="1849" y="615.341"/>
      <point x="1849" y="846" type="curve" smooth="yes"/>
      <point x="1849" y="855" type="line" smooth="yes"/>
      <point x="1849" y="963.353"/>
      <point x="1805.71" y="1082.33"/>
      <point x="1720" y="1162" type="curve"/>
      <point x="1497" y="1162" type="line"/>
      <point x="1497" y="1146" type="line"/>
      <point x="1529" y="1078.5"/>
      <point x="1545" y="1003.84"/>
      <point x="1545" y="921" type="curve" smooth="yes"/>
    </contour>
    <contour>
      <point x="784" y="925" type="curve" smooth="yes"/>
      <point x="1006" y="925"/>
      <point x="1119" y="815.275"/>
      <point x="1119" y="607" type="curve" smooth="yes"/>
      <point x="1119" y="384" type="line" smooth="yes"/>
      <point x="1119" y="281.597"/>
      <point x="1089" y="238"/>
      <point x="1019" y="238" type="curve" smooth="yes"/>
      <point x="954" y="238"/>
      <point x="920" y="279.726"/>
      <point x="920" y="353" type="curve" smooth="yes"/>
      <point x="920" y="385" type="line" smooth="yes"/>
      <point x="920" y="462.322"/>
      <point x="952" y="502"/>
      <point x="1024" y="502" type="curve" smooth="yes"/>
      <point x="1319" y="502" type="line"/>
      <point x="1355" y="755" type="line"/>
      <point x="967" y="755" type="line" smooth="yes"/>
      <point x="724" y="755"/>
      <point x="595" y="636.339"/>
      <point x="595" y="396" type="curve" smooth="yes"/>
      <point x="595" y="351" type="line" smooth="yes"/>
      <point x="595" y="99.6911"/>
      <point x="740" y="-33"/>
      <point x="1017" y="-33" type="curve" smooth="yes"/>
      <point x="1298" y="-33"/>
      <point x="1438" y="115.687"/>
      <point x="1438" y="400" type="curve" smooth="yes"/>
      <point x="1438" y="566" type="line" smooth="yes"/>
      <point x="1438" y="997.359"/>
      <point x="1215" y="1208"/>
      <point x="770" y="1208" type="curve" smooth="yes"/>
      <point x="311" y="1208"/>
      <point x="78" y="982.295"/>
      <point x="78" y="546" type="curve" smooth="yes"/>
      <point x="78" y="450" type="line" smooth="yes"/>
      <point x="78" y="278.09"/>
      <point x="110" y="107.191"/>
      <point x="169" y="0" type="curve"/>
      <point x="512" y="0" type="line"/>
      <point x="451" y="129.451"/>
      <point x="418" y="278.118"/>
      <point x="418" y="446" type="curve" smooth="yes"/>
      <point x="418" y="537" type="line" smooth="yes"/>
      <point x="418" y="800.394"/>
      <point x="541" y="925"/>
    </contour>
  </outline>
</glyph>
<glyph name="archaicIi.mlm" format="2">
  <advance width="3073"/>
  <unicode hex="0D5F"/>
  <outline>
    <component base="Ra.mlm" xOffset="767" yOffset="1"/>
    <contour>
      <point x="469" y="547" type="curve" smooth="yes"/>
      <point x="469" y="514" type="line" smooth="yes"/>
      <point x="469" y="457"/>
      <point x="443" y="431"/>
      <point x="394" y="431" type="curve" smooth="yes"/>
      <point x="347" y="431"/>
      <point x="322" y="457"/>
      <point x="322" y="514" type="curve" smooth="yes"/>
      <point x="322" y="547" type="line" smooth="yes"/>
      <point x="322" y="605"/>
      <point x="347" y="633"/>
      <point x="394" y="633" type="curve" smooth="yes"/>
      <point x="443" y="633"/>
      <point x="469" y="605"/>
    </contour>
    <contour>
      <point x="394" y="864" type="curve" smooth="yes"/>
      <point x="157" y="864"/>
      <point x="34" y="757"/>
      <point x="34" y="548" type="curve" smooth="yes"/>
      <point x="34" y="515" type="line" smooth="yes"/>
      <point x="34" y="304"/>
      <point x="157" y="198"/>
      <point x="394" y="198" type="curve" smooth="yes"/>
      <point x="632" y="198"/>
      <point x="755" y="304"/>
      <point x="755" y="515" type="curve" smooth="yes"/>
      <point x="755" y="548" type="line" smooth="yes"/>
      <point x="755" y="757"/>
      <point x="632" y="864"/>
    </contour>
    <contour>
      <point x="2752" y="547" type="curve" smooth="yes"/>
      <point x="2752" y="514" type="line" smooth="yes"/>
      <point x="2752" y="457"/>
      <point x="2726" y="431"/>
      <point x="2677" y="431" type="curve" smooth="yes"/>
      <point x="2630" y="431"/>
      <point x="2605" y="457"/>
      <point x="2605" y="514" type="curve" smooth="yes"/>
      <point x="2605" y="547" type="line" smooth="yes"/>
      <point x="2605" y="605"/>
      <point x="2630" y="633"/>
      <point x="2677" y="633" type="curve" smooth="yes"/>
      <point x="2726" y="633"/>
      <point x="2752" y="605"/>
    </contour>
    <contour>
      <point x="2317" y="548" type="curve" smooth="yes"/>
      <point x="2317" y="515" type="line" smooth="yes"/>
      <point x="2317" y="304"/>
      <point x="2440" y="198"/>
      <point x="2677" y="198" type="curve" smooth="yes"/>
      <point x="2915" y="198"/>
      <point x="3038" y="304"/>
      <point x="3038" y="515" type="curve" smooth="yes"/>
      <point x="3038" y="548" type="line" smooth="yes"/>
      <point x="3038" y="757"/>
      <point x="2915" y="864"/>
      <point x="2677" y="864" type="curve" smooth="yes"/>
      <point x="2440" y="864"/>
      <point x="2317" y="757"/>
    </contour>
  </outline>
</glyph>
<glyph name="vowelLruu.mlm" format="2">
  <advance width="2908"/>
  <unicode hex="0D61"/>
  <outline>
    <contour>
      <point x="2295" y="599" type="line"/>
      <point x="2459" y="586.92"/>
      <point x="2526" y="476.184"/>
      <point x="2526" y="298" type="curve" smooth="yes"/>
      <point x="2526" y="267" type="line" smooth="yes"/>
      <point x="2526" y="-2.34335"/>
      <point x="2394" y="-134"/>
      <point x="2066" y="-134" type="curve" smooth="yes"/>
      <point x="1914" y="-134"/>
      <point x="1789" y="-118"/>
      <point x="1656" y="-73" type="curve"/>
      <point x="1716" y="-339" type="line"/>
      <point x="1834" y="-379"/>
      <point x="1964" y="-396"/>
      <point x="2102" y="-396" type="curve" smooth="yes"/>
      <point x="2611" y="-396"/>
      <point x="2848" y="-184.348"/>
      <point x="2848" y="253" type="curve" smooth="yes"/>
      <point x="2848" y="289" type="line" smooth="yes"/>
      <point x="2848" y="619.188"/>
      <point x="2655" y="827.939"/>
      <point x="2295" y="845" type="curve"/>
    </contour>
    <contour>
      <point x="1755" y="921" type="curve" smooth="yes"/>
      <point x="1909" y="921"/>
      <point x="2011" y="876"/>
      <point x="2062" y="795" type="curve"/>
      <point x="2082" y="683" type="line"/>
      <point x="2082" y="648"/>
      <point x="2082" y="628"/>
      <point x="2082" y="592" type="curve" smooth="yes"/>
      <point x="2082" y="433" type="line" smooth="yes"/>
      <point x="2082" y="324.592"/>
      <point x="2053" y="279"/>
      <point x="1978" y="279" type="curve" smooth="yes"/>
      <point x="1910" y="279"/>
      <point x="1878" y="322.717"/>
      <point x="1878" y="401" type="curve" smooth="yes"/>
      <point x="1878" y="426" type="line" smooth="yes"/>
      <point x="1878" y="532.243"/>
      <point x="1931" y="597"/>
      <point x="2059" y="597" type="curve" smooth="yes"/>
      <point x="2091" y="597"/>
      <point x="2119" y="596"/>
      <point x="2152" y="594" type="curve"/>
      <point x="2174" y="834" type="line"/>
      <point x="2144" y="839"/>
      <point x="2079" y="846"/>
      <point x="2029" y="846" type="curve" smooth="yes"/>
      <point x="1733" y="846"/>
      <point x="1555" y="696.304"/>
      <point x="1555" y="416" type="curve" smooth="yes"/>
      <point x="1555" y="396" type="line" smooth="yes"/>
      <point x="1555" y="142.691"/>
      <point x="1700" y="9"/>
      <point x="1974" y="9" type="curve" smooth="yes"/>
      <point x="2263" y="9"/>
      <point x="2400" y="160.699"/>
      <point x="2400" y="443" type="curve" smooth="yes"/>
      <point x="2400" y="586" type="line" smooth="yes"/>
      <point x="2400" y="621"/>
      <point x="2400" y="646"/>
      <point x="2400" y="679" type="curve"/>
      <point x="2389" y="745" type="line" smooth="yes"/>
      <point x="2340" y="1038"/>
      <point x="2135" y="1203"/>
      <point x="1770" y="1203" type="curve" smooth="yes"/>
      <point x="1457" y="1203"/>
      <point x="1293" y="1087"/>
      <point x="1248" y="903" type="curve"/>
      <point x="1191" y="903" type="line"/>
      <point x="1204" y="543" type="line"/>
      <point x="1411" y="512" type="line"/>
      <point x="1411" y="616" type="line" smooth="yes"/>
      <point x="1411" y="823"/>
      <point x="1527" y="921"/>
    </contour>
    <contour>
      <point x="724" y="1204" type="curve" smooth="yes"/>
      <point x="288" y="1204"/>
      <point x="72" y="978.607"/>
      <point x="72" y="557" type="curve" smooth="yes"/>
      <point x="72" y="411" type="line" smooth="yes"/>
      <point x="72" y="118.683"/>
      <point x="220" y="-33"/>
      <point x="505" y="-33" type="curve" smooth="yes"/>
      <point x="786" y="-33"/>
      <point x="929" y="99.0261"/>
      <point x="929" y="353" type="curve" smooth="yes"/>
      <point x="929" y="420" type="line" smooth="yes"/>
      <point x="929" y="663.525"/>
      <point x="833" y="776"/>
      <point x="660" y="776" type="curve" smooth="yes"/>
      <point x="505" y="776"/>
      <point x="419" y="696"/>
      <point x="393" y="538" type="curve"/>
      <point x="397" y="446" type="line"/>
      <point x="417.812" y="482"/>
      <point x="456.464" y="505"/>
      <point x="508" y="505" type="curve" smooth="yes"/>
      <point x="571.326" y="505"/>
      <point x="602" y="468.314"/>
      <point x="602" y="398" type="curve" smooth="yes"/>
      <point x="602" y="353" type="line" smooth="yes"/>
      <point x="602" y="275.655"/>
      <point x="568.343" y="238"/>
      <point x="504" y="238" type="curve" smooth="yes"/>
      <point x="434.667" y="238"/>
      <point x="400" y="277.542"/>
      <point x="400" y="384" type="curve" smooth="yes"/>
      <point x="400" y="468" type="line"/>
      <point x="405" y="557" type="line"/>
      <point x="386" y="557" type="line"/>
      <point x="386" y="565" type="line" smooth="yes"/>
      <point x="386" y="806.708"/>
      <point x="507" y="922"/>
      <point x="738" y="922" type="curve" smooth="yes"/>
      <point x="962" y="922"/>
      <point x="1074" y="824"/>
      <point x="1074" y="626" type="curve" smooth="yes"/>
      <point x="1074" y="546" type="line"/>
      <point x="1237" y="546" type="line"/>
      <point x="1239" y="904" type="line"/>
      <point x="1195" y="1089"/>
      <point x="1030" y="1204"/>
    </contour>
    <contour>
      <point x="1074" y="4" type="line"/>
      <point x="1411" y="4" type="line"/>
      <point x="1411" y="638" type="line"/>
      <point x="1074" y="604" type="line"/>
    </contour>
  </outline>
</glyph>
<glyph name="uni0D63" format="2">
  <unicode hex="0D63"/>
  <outline>
    <contour>
      <point x="-97" y="-95" type="curve"/>
      <point x="-117" y="-263" type="line"/>
      <point x="-26" y="-277"/>
      <point x="17" y="-312"/>
      <point x="17" y="-392" type="curve" smooth="yes"/>
      <point x="17" y="-398" type="line" smooth="yes"/>
      <point x="17" y="-512"/>
      <point x="-73" y="-572"/>
      <point x="-286" y="-572" type="curve" smooth="yes"/>
      <point x="-385" y="-572"/>
      <point x="-466" y="-563"/>
      <point x="-552" y="-538" type="curve"/>
      <point x="-514" y="-704" type="line"/>
      <point x="-437" y="-726"/>
      <point x="-353" y="-736"/>
      <point x="-262" y="-736" type="curve" smooth="yes"/>
      <point x="76" y="-736"/>
      <point x="239" y="-624"/>
      <point x="239" y="-408" type="curve" smooth="yes"/>
      <point x="239" y="-397" type="line" smooth="yes"/>
      <point x="239" y="-217"/>
      <point x="113" y="-115"/>
    </contour>
    <contour>
      <point x="-491" y="-47" type="curve" smooth="yes"/>
      <point x="-382" y="-47"/>
      <point x="-314" y="-67.24"/>
      <point x="-278" y="-113" type="curve"/>
      <point x="-265" y="-156" type="line"/>
      <point x="-263" y="-178"/>
      <point x="-262" y="-196"/>
      <point x="-262" y="-221" type="curve" smooth="yes"/>
      <point x="-262" y="-255" type="line" smooth="yes"/>
      <point x="-262" y="-304"/>
      <point x="-284.432" y="-334"/>
      <point x="-341" y="-334" type="curve" smooth="yes"/>
      <point x="-382.29" y="-334"/>
      <point x="-405" y="-318.452"/>
      <point x="-405" y="-288" type="curve" smooth="yes"/>
      <point x="-405" y="-285" type="line" smooth="yes"/>
      <point x="-405" y="-254.4"/>
      <point x="-380" y="-239"/>
      <point x="-326" y="-239" type="curve" smooth="yes"/>
      <point x="-286" y="-239"/>
      <point x="-234" y="-240"/>
      <point x="-193" y="-244" type="curve"/>
      <point x="-199" y="-100" type="line"/>
      <point x="-240" y="-92"/>
      <point x="-294" y="-86"/>
      <point x="-353" y="-86" type="curve" smooth="yes"/>
      <point x="-534" y="-86"/>
      <point x="-631" y="-156"/>
      <point x="-631" y="-294" type="curve" smooth="yes"/>
      <point x="-631" y="-297" type="line" smooth="yes"/>
      <point x="-631" y="-432"/>
      <point x="-533" y="-498"/>
      <point x="-343" y="-498" type="curve" smooth="yes"/>
      <point x="-145" y="-498"/>
      <point x="-47" y="-416"/>
      <point x="-47" y="-259" type="curve" smooth="yes"/>
      <point x="-47" y="-224" type="line" smooth="yes"/>
      <point x="-47" y="-206"/>
      <point x="-48" y="-183"/>
      <point x="-50" y="-164" type="curve"/>
      <point x="-53" y="-144" type="line"/>
      <point x="-85" y="30"/>
      <point x="-236" y="126"/>
      <point x="-481" y="126" type="curve" smooth="yes"/>
      <point x="-671.729" y="126"/>
      <point x="-804.249" y="77.4892"/>
      <point x="-848.203" y="-38.1021" type="curve"/>
      <point x="-908.287" y="-37.8805" type="line"/>
      <point x="-881" y="-286" type="line"/>
      <point x="-733" y="-288" type="line"/>
      <point x="-733" y="-249" type="line" smooth="yes"/>
      <point x="-733" y="-114.333"/>
      <point x="-652" y="-47"/>
    </contour>
    <contour>
      <point x="-969" y="-528" type="line"/>
      <point x="-733" y="-528" type="line"/>
      <point x="-733" y="-221" type="line"/>
      <point x="-969" y="-243" type="line"/>
    </contour>
    <contour>
      <point x="-1227.16" y="126" type="curve" smooth="yes"/>
      <point x="-1534.16" y="126"/>
      <point x="-1693.16" y="-2.01871"/>
      <point x="-1693.16" y="-251" type="curve" smooth="yes"/>
      <point x="-1693.16" y="-276" type="line" smooth="yes"/>
      <point x="-1693.16" y="-461.617"/>
      <point x="-1588.16" y="-550"/>
      <point x="-1380.16" y="-550" type="curve" smooth="yes"/>
      <point x="-1180.16" y="-550"/>
      <point x="-1074.16" y="-475"/>
      <point x="-1074.16" y="-325" type="curve" smooth="yes"/>
      <point x="-1074.16" y="-307" type="line" smooth="yes"/>
      <point x="-1074.16" y="-178"/>
      <point x="-1150.16" y="-108"/>
      <point x="-1280.16" y="-108" type="curve" smooth="yes"/>
      <point x="-1381.16" y="-108"/>
      <point x="-1447.16" y="-154"/>
      <point x="-1467.16" y="-242" type="curve"/>
      <point x="-1465.16" y="-306" type="line"/>
      <point x="-1448.16" y="-284"/>
      <point x="-1418.16" y="-270"/>
      <point x="-1379.16" y="-270" type="curve" smooth="yes"/>
      <point x="-1330.16" y="-270"/>
      <point x="-1306.16" y="-288"/>
      <point x="-1306.16" y="-325" type="curve" smooth="yes"/>
      <point x="-1306.16" y="-331" type="line" smooth="yes"/>
      <point x="-1306.16" y="-368"/>
      <point x="-1334.16" y="-386"/>
      <point x="-1381.16" y="-386" type="curve" smooth="yes"/>
      <point x="-1433.16" y="-386"/>
      <point x="-1460.16" y="-363"/>
      <point x="-1460.16" y="-319" type="curve" smooth="yes"/>
      <point x="-1460.16" y="-267" type="line"/>
      <point x="-1456.16" y="-228" type="line"/>
      <point x="-1469.16" y="-228" type="line"/>
      <point x="-1469" y="-111.725"/>
      <point x="-1378.8" y="-48"/>
      <point x="-1220.16" y="-48" type="curve" smooth="yes"/>
      <point x="-1051.16" y="-48"/>
      <point x="-969.158" y="-111"/>
      <point x="-969.158" y="-233" type="curve" smooth="yes"/>
      <point x="-969.158" y="-279" type="line"/>
      <point x="-831.158" y="-224" type="line"/>
      <point x="-854.362" y="-37.6244" type="line"/>
      <point x="-898.173" y="77.4472"/>
      <point x="-1031.74" y="126"/>
    </contour>
  </outline>
</glyph>
<glyph name="two.mlm" format="2">
  <advance width="1560"/>
  <unicode hex="0D68"/>
  <outline>
    <contour>
      <point x="1060" y="264" type="line"/>
      <point x="755" y="0" type="line"/>
      <point x="1500" y="0" type="line"/>
      <point x="1538" y="264" type="line"/>
    </contour>
    <contour>
      <point x="628" y="909" type="curve" smooth="yes"/>
      <point x="768" y="909"/>
      <point x="835" y="822.359"/>
      <point x="835" y="645" type="curve" smooth="yes"/>
      <point x="835" y="454" type="line" smooth="yes"/>
      <point x="835" y="288.106"/>
      <point x="798" y="138.397"/>
      <point x="735" y="16" type="curve"/>
      <point x="735" y="0" type="line"/>
      <point x="1011" y="0" type="line"/>
      <point x="1122" y="113.191"/>
      <point x="1175" y="289.043"/>
      <point x="1175" y="475" type="curve" smooth="yes"/>
      <point x="1175" y="664" type="line" smooth="yes"/>
      <point x="1175" y="1020.27"/>
      <point x="990" y="1208"/>
      <point x="628" y="1208" type="curve" smooth="yes"/>
      <point x="266" y="1208"/>
      <point x="79" y="1019.32"/>
      <point x="79" y="648" type="curve" smooth="yes"/>
      <point x="79" y="460" type="line" smooth="yes"/>
      <point x="79" y="280.044"/>
      <point x="112" y="109.187"/>
      <point x="178" y="0" type="curve"/>
      <point x="520" y="0" type="line"/>
      <point x="458" y="125.381"/>
      <point x="419" y="281.096"/>
      <point x="419" y="454" type="curve" smooth="yes"/>
      <point x="419" y="645" type="line" smooth="yes"/>
      <point x="419" y="822.359"/>
      <point x="489" y="909"/>
    </contour>
  </outline>
</glyph>
<glyph name="four.mlm" format="2">
  <advance width="1538"/>
  <unicode hex="0D6A"/>
  <outline>
    <contour>
      <point x="602" y="479" type="curve" smooth="yes"/>
      <point x="602" y="384" type="line" smooth="yes"/>
      <point x="602" y="112.048"/>
      <point x="746" y="-34"/>
      <point x="1031" y="-34" type="curve" smooth="yes"/>
      <point x="1318" y="-34"/>
      <point x="1466" y="114.048"/>
      <point x="1466" y="390" type="curve" smooth="yes"/>
      <point x="1466" y="554" type="line" smooth="yes"/>
      <point x="1466" y="784.327"/>
      <point x="1387" y="942.929"/>
      <point x="1259" y="1049" type="curve"/>
      <point x="1152" y="1116" type="line"/>
      <point x="1042" y="1175"/>
      <point x="914" y="1206"/>
      <point x="767" y="1206" type="curve" smooth="yes"/>
      <point x="312" y="1206"/>
      <point x="78" y="979.261"/>
      <point x="78" y="554" type="curve" smooth="yes"/>
      <point x="78" y="450" type="line" smooth="yes"/>
      <point x="78" y="278.09"/>
      <point x="110" y="107.191"/>
      <point x="169" y="0" type="curve"/>
      <point x="512" y="0" type="line"/>
      <point x="451" y="126.447"/>
      <point x="418" y="273.125"/>
      <point x="418" y="437" type="curve" smooth="yes"/>
      <point x="418" y="544" type="line" smooth="yes"/>
      <point x="418" y="807.412"/>
      <point x="538" y="930"/>
      <point x="770" y="930" type="curve" smooth="yes"/>
      <point x="834" y="930"/>
      <point x="892" y="921"/>
      <point x="941" y="902" type="curve"/>
      <point x="1039" y="838" type="line"/>
      <point x="1101" y="773.91"/>
      <point x="1135" y="681.336"/>
      <point x="1135" y="544" type="curve" smooth="yes"/>
      <point x="1135" y="385" type="line" smooth="yes"/>
      <point x="1135" y="287.95"/>
      <point x="1103" y="243"/>
      <point x="1034" y="243" type="curve" smooth="yes"/>
      <point x="965" y="243"/>
      <point x="933" y="286.949"/>
      <point x="933" y="382" type="curve" smooth="yes"/>
      <point x="933" y="481" type="line" smooth="yes"/>
      <point x="933" y="635.297"/>
      <point x="988" y="732.11"/>
      <point x="1148" y="838" type="curve"/>
      <point x="1236" y="931" type="line"/>
      <point x="1365" y="1034"/>
      <point x="1440" y="1152"/>
      <point x="1440" y="1309" type="curve" smooth="yes"/>
      <point x="1440" y="1395"/>
      <point x="1420" y="1462"/>
      <point x="1392" y="1522" type="curve"/>
      <point x="1097" y="1522" type="line"/>
      <point x="1128" y="1455"/>
      <point x="1141" y="1389"/>
      <point x="1141" y="1315" type="curve" smooth="yes"/>
      <point x="1141" y="1222"/>
      <point x="1109" y="1142"/>
      <point x="1020" y="1066" type="curve"/>
      <point x="936" y="978" type="line"/>
      <point x="727" y="864.317"/>
      <point x="602" y="734.536"/>
    </contour>
  </outline>
</glyph>
<glyph name="seven.mlm" format="2">
  <advance width="1541"/>
  <unicode hex="0D6D"/>
  <outline>
    <contour>
      <point x="393" y="539" type="curve"/>
      <point x="397" y="447" type="line"/>
      <point x="418.807" y="484"/>
      <point x="457.465" y="507"/>
      <point x="510" y="507" type="curve" smooth="yes"/>
      <point x="575.32" y="507"/>
      <point x="606" y="470.321"/>
      <point x="606" y="399" type="curve" smooth="yes"/>
      <point x="606" y="354" type="line" smooth="yes"/>
      <point x="606" y="275.649"/>
      <point x="572.337" y="238"/>
      <point x="506" y="238" type="curve" smooth="yes"/>
      <point x="434.673" y="238"/>
      <point x="400" y="277.538"/>
      <point x="400" y="385" type="curve" smooth="yes"/>
      <point x="400" y="469" type="line"/>
      <point x="405" y="558" type="line"/>
      <point x="386" y="558" type="line"/>
      <point x="386" y="566" type="line" smooth="yes"/>
      <point x="386" y="809.39"/>
      <point x="513" y="925"/>
      <point x="756" y="925" type="curve" smooth="yes"/>
      <point x="1002" y="925"/>
      <point x="1125" y="794.363"/>
      <point x="1125" y="526" type="curve" smooth="yes"/>
      <point x="1125" y="322" type="line" smooth="yes"/>
      <point x="1125" y="12.6447"/>
      <point x="986" y="-139"/>
      <point x="688" y="-139" type="curve" smooth="yes"/>
      <point x="582" y="-139"/>
      <point x="493" y="-127"/>
      <point x="422" y="-109" type="curve"/>
      <point x="486" y="-372" type="line"/>
      <point x="569" y="-397"/>
      <point x="660" y="-405"/>
      <point x="750" y="-405" type="curve" smooth="yes"/>
      <point x="1232" y="-405"/>
      <point x="1463" y="-148.256"/>
      <point x="1463" y="331" type="curve" smooth="yes"/>
      <point x="1463" y="525" type="line" smooth="yes"/>
      <point x="1463" y="971.267"/>
      <point x="1226" y="1208"/>
      <point x="764" y="1208" type="curve" smooth="yes"/>
      <point x="302" y="1208"/>
      <point x="72" y="980.772"/>
      <point x="72" y="556" type="curve" smooth="yes"/>
      <point x="72" y="412" type="line" smooth="yes"/>
      <point x="72" y="118.682"/>
      <point x="220" y="-33"/>
      <point x="507" y="-33" type="curve" smooth="yes"/>
      <point x="790" y="-33"/>
      <point x="933" y="99.0234"/>
      <point x="933" y="354" type="curve" smooth="yes"/>
      <point x="933" y="421" type="line" smooth="yes"/>
      <point x="933" y="665.535"/>
      <point x="837" y="778"/>
      <point x="662" y="778" type="curve" smooth="yes"/>
      <point x="506" y="778"/>
      <point x="419" y="698"/>
    </contour>
  </outline>
</glyph>
<glyph name="nine.mlm" format="2">
  <advance width="2183"/>
  <unicode hex="0D6F"/>
  <outline>
    <contour>
      <point x="757" y="605" type="line"/>
      <point x="757" y="4" type="line"/>
      <point x="1095" y="4" type="line"/>
      <point x="1095" y="657" type="line"/>
    </contour>
    <contour>
      <point x="593" y="898" type="curve" smooth="yes"/>
      <point x="706" y="898"/>
      <point x="757" y="835"/>
      <point x="757" y="704" type="curve" smooth="yes"/>
      <point x="757" y="525" type="line"/>
      <point x="931" y="531" type="line"/>
      <point x="925" y="914" type="line"/>
      <point x="902" y="1098"/>
      <point x="775" y="1204"/>
      <point x="543" y="1204" type="curve" smooth="yes"/>
      <point x="233" y="1204"/>
      <point x="79" y="1024.69"/>
      <point x="79" y="663" type="curve" smooth="yes"/>
      <point x="79" y="486" type="line" smooth="yes"/>
      <point x="79" y="296.092"/>
      <point x="114" y="115.374"/>
      <point x="187" y="0" type="curve"/>
      <point x="529" y="0" type="line"/>
      <point x="459" y="133.77"/>
      <point x="419" y="299.195"/>
      <point x="419" y="483" type="curve" smooth="yes"/>
      <point x="419" y="664" type="line" smooth="yes"/>
      <point x="419" y="823.83"/>
      <point x="474" y="898"/>
    </contour>
    <contour>
      <point x="1421" y="929" type="curve" smooth="yes"/>
      <point x="1478" y="929"/>
      <point x="1541" y="921"/>
      <point x="1585" y="903" type="curve"/>
      <point x="1683" y="838" type="line"/>
      <point x="1747" y="775.911"/>
      <point x="1780" y="684.303"/>
      <point x="1780" y="553" type="curve" smooth="yes"/>
      <point x="1780" y="385" type="line" smooth="yes"/>
      <point x="1780" y="287.95"/>
      <point x="1751" y="243"/>
      <point x="1685" y="243" type="curve" smooth="yes"/>
      <point x="1620" y="243"/>
      <point x="1589" y="284.939"/>
      <point x="1589" y="377" type="curve" smooth="yes"/>
      <point x="1589" y="479" type="line" smooth="yes"/>
      <point x="1589" y="634.298"/>
      <point x="1639" y="731.107"/>
      <point x="1793" y="838" type="curve"/>
      <point x="1880" y="931" type="line"/>
      <point x="2009" y="1034"/>
      <point x="2085" y="1152"/>
      <point x="2085" y="1309" type="curve" smooth="yes"/>
      <point x="2085" y="1395"/>
      <point x="2064" y="1462"/>
      <point x="2036" y="1522" type="curve"/>
      <point x="1741" y="1522" type="line"/>
      <point x="1772" y="1455"/>
      <point x="1785" y="1388"/>
      <point x="1785" y="1315" type="curve" smooth="yes"/>
      <point x="1785" y="1222"/>
      <point x="1745" y="1136"/>
      <point x="1663" y="1066" type="curve"/>
      <point x="1580" y="978" type="line"/>
      <point x="1378" y="863.312"/>
      <point x="1259" y="735.545"/>
      <point x="1259" y="478" type="curve" smooth="yes"/>
      <point x="1259" y="380" type="line" smooth="yes"/>
      <point x="1259" y="111.051"/>
      <point x="1402" y="-34"/>
      <point x="1683" y="-34" type="curve" smooth="yes"/>
      <point x="1964" y="-34"/>
      <point x="2111" y="114.048"/>
      <point x="2111" y="390" type="curve" smooth="yes"/>
      <point x="2111" y="558" type="line" smooth="yes"/>
      <point x="2111" y="786.306"/>
      <point x="2031" y="946.929"/>
      <point x="1901" y="1053" type="curve"/>
      <point x="1794" y="1122" type="line"/>
      <point x="1689" y="1177"/>
      <point x="1569" y="1204"/>
      <point x="1430" y="1204" type="curve" smooth="yes"/>
      <point x="1138" y="1204"/>
      <point x="979" y="1091"/>
      <point x="933" y="914" type="curve"/>
      <point x="881" y="914" type="line"/>
      <point x="890" y="541" type="line"/>
      <point x="1095" y="541" type="line"/>
      <point x="1095" y="632" type="line" smooth="yes"/>
      <point x="1095" y="832"/>
      <point x="1204" y="929"/>
    </contour>
  </outline>
</glyph>
<glyph name="ten.mlm" format="2">
  <advance width="1877"/>
  <unicode hex="0D70"/>
  <outline>
    <contour>
      <point x="704" y="-33" type="curve" smooth="yes"/>
      <point x="865" y="-33"/>
      <point x="952" y="78"/>
      <point x="968" y="246" type="curve"/>
      <point x="1057" y="246" type="line"/>
      <point x="1064" y="614" type="line"/>
      <point x="803" y="634" type="line"/>
      <point x="803" y="455" type="line" smooth="yes"/>
      <point x="803" y="333"/>
      <point x="755" y="274"/>
      <point x="654" y="274" type="curve" smooth="yes"/>
      <point x="554" y="274"/>
      <point x="506" y="333"/>
      <point x="506" y="455" type="curve" smooth="yes"/>
      <point x="506" y="634" type="line"/>
      <point x="245" y="614" type="line"/>
      <point x="254" y="134" type="line"/>
      <point x="469" y="134" type="line"/>
      <point x="491" y="33"/>
      <point x="567" y="-33"/>
    </contour>
    <contour>
      <point x="1141" y="529" type="line"/>
      <point x="1141" y="1151" type="line"/>
      <point x="803" y="1151" type="line"/>
      <point x="803" y="524" type="line"/>
    </contour>
    <contour>
      <point x="168" y="130" type="line" smooth="yes"/>
      <point x="168" y="-29"/>
      <point x="102" y="-85"/>
      <point x="-37" y="-85" type="curve" smooth="yes"/>
      <point x="-98" y="-85"/>
      <point x="-159" y="-77"/>
      <point x="-206" y="-65" type="curve"/>
      <point x="-143" y="-331" type="line"/>
      <point x="-90" y="-348"/>
      <point x="-31" y="-354"/>
      <point x="22" y="-354" type="curve" smooth="yes"/>
      <point x="311" y="-354"/>
      <point x="460" y="-204"/>
      <point x="460" y="105" type="curve" smooth="yes"/>
      <point x="460" y="186" type="line"/>
      <point x="506" y="238" type="line"/>
      <point x="506" y="1163" type="line"/>
      <point x="168" y="1163" type="line"/>
    </contour>
    <contour>
      <point x="976" y="246" type="line"/>
      <point x="999" y="76"/>
      <point x="1119" y="-33"/>
      <point x="1347" y="-33" type="curve" smooth="yes"/>
      <point x="1648" y="-33"/>
      <point x="1798" y="139.638"/>
      <point x="1798" y="494" type="curve" smooth="yes"/>
      <point x="1798" y="678" type="line" smooth="yes"/>
      <point x="1798" y="866.96"/>
      <point x="1756" y="1039.75"/>
      <point x="1674" y="1160" type="curve"/>
      <point x="1338" y="1160" type="line"/>
      <point x="1415" y="1030.64"/>
      <point x="1458" y="865.904"/>
      <point x="1458" y="685" type="curve" smooth="yes"/>
      <point x="1458" y="498" type="line" smooth="yes"/>
      <point x="1458" y="345.598"/>
      <point x="1406" y="274"/>
      <point x="1295" y="274" type="curve" smooth="yes"/>
      <point x="1190" y="274"/>
      <point x="1141" y="335"/>
      <point x="1141" y="467" type="curve" smooth="yes"/>
      <point x="1141" y="635" type="line"/>
      <point x="968" y="635" type="line"/>
    </contour>
  </outline>
</glyph>
<glyph name="onehundred.mlm" format="2">
  <advance width="1846"/>
  <unicode hex="0D71"/>
  <outline>
    <contour>
      <point x="1246" y="898" type="curve" smooth="yes"/>
      <point x="1367" y="898"/>
      <point x="1427" y="812.385"/>
      <point x="1427" y="633" type="curve" smooth="yes"/>
      <point x="1427" y="348" type="line" smooth="yes"/>
      <point x="1427" y="20.639"/>
      <point x="1283" y="-139"/>
      <point x="978" y="-139" type="curve" smooth="yes"/>
      <point x="869" y="-139"/>
      <point x="775" y="-127"/>
      <point x="702" y="-109" type="curve"/>
      <point x="766" y="-372" type="line"/>
      <point x="852" y="-397"/>
      <point x="945" y="-405"/>
      <point x="1038" y="-405" type="curve" smooth="yes"/>
      <point x="1525" y="-405"/>
      <point x="1767" y="-141.256"/>
      <point x="1767" y="351" type="curve" smooth="yes"/>
      <point x="1767" y="632" type="line" smooth="yes"/>
      <point x="1767" y="1014.34"/>
      <point x="1612" y="1204"/>
      <point x="1297" y="1204" type="curve" smooth="yes"/>
      <point x="1066" y="1204"/>
      <point x="952" y="1094"/>
      <point x="924" y="924" type="curve"/>
      <point x="894" y="924" type="line"/>
      <point x="908" y="519" type="line"/>
      <point x="1089" y="525" type="line"/>
      <point x="1089" y="702" type="line" smooth="yes"/>
      <point x="1089" y="835"/>
      <point x="1138" y="898"/>
    </contour>
    <contour>
      <point x="751" y="633" type="line"/>
      <point x="751" y="4" type="line"/>
      <point x="1089" y="4" type="line"/>
      <point x="1089" y="633" type="line"/>
    </contour>
    <contour>
      <point x="79" y="668" type="curve" smooth="yes"/>
      <point x="79" y="481" type="line" smooth="yes"/>
      <point x="79" y="293.046"/>
      <point x="115" y="114.187"/>
      <point x="188" y="0" type="curve"/>
      <point x="530" y="0" type="line"/>
      <point x="459" y="132.385"/>
      <point x="419" y="296.097"/>
      <point x="419" y="478" type="curve" smooth="yes"/>
      <point x="419" y="669" type="line" smooth="yes"/>
      <point x="419" y="825.415"/>
      <point x="474" y="898"/>
      <point x="591" y="898" type="curve" smooth="yes"/>
      <point x="701" y="898"/>
      <point x="751" y="834"/>
      <point x="751" y="703" type="curve" smooth="yes"/>
      <point x="751" y="525" type="line"/>
      <point x="924" y="525" type="line"/>
      <point x="916" y="916" type="line"/>
      <point x="889" y="1092"/>
      <point x="775" y="1204"/>
      <point x="541" y="1204" type="curve" smooth="yes"/>
      <point x="233" y="1204"/>
      <point x="79" y="1026.34"/>
    </contour>
  </outline>
</glyph>
<glyph name="onehalf.mlm" format="2">
  <advance width="1914"/>
  <unicode hex="0D74"/>
  <outline>
    <contour>
      <point x="1414" y="-34" type="curve" smooth="yes"/>
      <point x="1695" y="-34"/>
      <point x="1842" y="114.048"/>
      <point x="1842" y="390" type="curve" smooth="yes"/>
      <point x="1842" y="527" type="line" smooth="yes"/>
      <point x="1842" y="828.479"/>
      <point x="1699.89" y="1033.85"/>
      <point x="1419" y="1135" type="curve" smooth="yes"/>
      <point x="1377.92" y="1149.79"/>
      <point x="1335.96" y="1162.8"/>
      <point x="1289" y="1173" type="curve" smooth="yes"/>
      <point x="1188.66" y="1194.8"/>
      <point x="1077.37" y="1208"/>
      <point x="950" y="1208" type="curve" smooth="yes"/>
      <point x="365.334" y="1208"/>
      <point x="72" y="974.88"/>
      <point x="72" y="525" type="curve" smooth="yes"/>
      <point x="72" y="406" type="line" smooth="yes"/>
      <point x="72" y="116.682"/>
      <point x="218" y="-33"/>
      <point x="500" y="-33" type="curve" smooth="yes"/>
      <point x="775" y="-33"/>
      <point x="915" y="96.6825"/>
      <point x="915" y="347" type="curve" smooth="yes"/>
      <point x="915" y="422" type="line" smooth="yes"/>
      <point x="915" y="660.214"/>
      <point x="823" y="770"/>
      <point x="655" y="770" type="curve" smooth="yes"/>
      <point x="503" y="770"/>
      <point x="418" y="692"/>
      <point x="393" y="538" type="curve"/>
      <point x="397" y="445" type="line"/>
      <point x="416.813" y="480"/>
      <point x="453.467" y="502"/>
      <point x="503" y="502" type="curve" smooth="yes"/>
      <point x="562.326" y="502"/>
      <point x="591" y="467.313"/>
      <point x="591" y="401" type="curve" smooth="yes"/>
      <point x="591" y="345" type="line" smooth="yes"/>
      <point x="591" y="270.648"/>
      <point x="559.344" y="235"/>
      <point x="499" y="235" type="curve" smooth="yes"/>
      <point x="432.67" y="235"/>
      <point x="400" y="272.532"/>
      <point x="400" y="376" type="curve" smooth="yes"/>
      <point x="400" y="468" type="line"/>
      <point x="405" y="557" type="line"/>
      <point x="386" y="557" type="line"/>
      <point x="386" y="557" type="line"/>
      <point x="386" y="810.377"/>
      <point x="577.341" y="925"/>
      <point x="947" y="925" type="curve" smooth="yes"/>
      <point x="1035.38" y="925"/>
      <point x="1111.72" y="918"/>
      <point x="1177" y="906" type="curve"/>
      <point x="1213" y="894"/>
      <point x="1315" y="857"/>
      <point x="1333" y="850" type="curve"/>
      <point x="1458" y="793.111"/>
      <point x="1511" y="684.413"/>
      <point x="1511" y="530" type="curve" smooth="yes"/>
      <point x="1511" y="385" type="line" smooth="yes"/>
      <point x="1511" y="287.95"/>
      <point x="1482" y="243"/>
      <point x="1416" y="243" type="curve" smooth="yes"/>
      <point x="1351" y="243"/>
      <point x="1320" y="284.939"/>
      <point x="1320" y="377" type="curve" smooth="yes"/>
      <point x="1320" y="507" type="line" smooth="yes"/>
      <point x="1320" y="654.115"/>
      <point x="1356" y="784.099"/>
      <point x="1420" y="903" type="curve"/>
      <point x="1429" y="929"/>
      <point x="1478" y="1051"/>
      <point x="1486" y="1077" type="curve"/>
      <point x="1513" y="1149"/>
      <point x="1525" y="1214"/>
      <point x="1525" y="1283" type="curve" smooth="yes"/>
      <point x="1525" y="1385"/>
      <point x="1505" y="1461"/>
      <point x="1469" y="1531" type="curve"/>
      <point x="1171" y="1531" type="line"/>
      <point x="1209" y="1452"/>
      <point x="1228" y="1368"/>
      <point x="1228" y="1277" type="curve" smooth="yes"/>
      <point x="1228" y="1220"/>
      <point x="1217.95" y="1172.02"/>
      <point x="1202" y="1120" type="curve" smooth="yes"/>
      <point x="1194.95" y="1097.01"/>
      <point x="1157" y="1007"/>
      <point x="1149" y="982" type="curve"/>
      <point x="1054" y="845.143"/>
      <point x="990" y="710.298"/>
      <point x="990" y="503" type="curve" smooth="yes"/>
      <point x="990" y="380" type="line" smooth="yes"/>
      <point x="990" y="111.051"/>
      <point x="1133" y="-34"/>
    </contour>
  </outline>
</glyph>
<glyph name="threequarters.mlm" format="2">
  <advance width="2499"/>
  <unicode hex="0D75"/>
  <outline>
    <contour>
      <point x="724" y="1204" type="curve" smooth="yes"/>
      <point x="288" y="1204"/>
      <point x="72" y="978.607"/>
      <point x="72" y="557" type="curve" smooth="yes"/>
      <point x="72" y="411" type="line" smooth="yes"/>
      <point x="72" y="118.683"/>
      <point x="220" y="-33"/>
      <point x="505" y="-33" type="curve" smooth="yes"/>
      <point x="786" y="-33"/>
      <point x="929" y="99.0261"/>
      <point x="929" y="353" type="curve" smooth="yes"/>
      <point x="929" y="420" type="line" smooth="yes"/>
      <point x="929" y="663.525"/>
      <point x="833" y="776"/>
      <point x="660" y="776" type="curve" smooth="yes"/>
      <point x="505" y="776"/>
      <point x="419" y="696"/>
      <point x="393" y="538" type="curve"/>
      <point x="397" y="446" type="line"/>
      <point x="417.812" y="482"/>
      <point x="456.464" y="505"/>
      <point x="508" y="505" type="curve" smooth="yes"/>
      <point x="571.326" y="505"/>
      <point x="602" y="468.314"/>
      <point x="602" y="398" type="curve" smooth="yes"/>
      <point x="602" y="353" type="line" smooth="yes"/>
      <point x="602" y="275.655"/>
      <point x="568.343" y="238"/>
      <point x="504" y="238" type="curve" smooth="yes"/>
      <point x="434.667" y="238"/>
      <point x="400" y="277.542"/>
      <point x="400" y="384" type="curve" smooth="yes"/>
      <point x="400" y="468" type="line"/>
      <point x="405" y="557" type="line"/>
      <point x="386" y="557" type="line"/>
      <point x="386" y="565" type="line" smooth="yes"/>
      <point x="386" y="806.708"/>
      <point x="507" y="922"/>
      <point x="738" y="922" type="curve" smooth="yes"/>
      <point x="962" y="922"/>
      <point x="1074" y="824"/>
      <point x="1074" y="626" type="curve" smooth="yes"/>
      <point x="1074" y="546" type="line"/>
      <point x="1237" y="546" type="line"/>
      <point x="1239" y="904" type="line"/>
      <point x="1195" y="1089"/>
      <point x="1030" y="1204"/>
    </contour>
    <contour>
      <point x="1074" y="4" type="line"/>
      <point x="1411" y="4" type="line"/>
      <point x="1411" y="638" type="line"/>
      <point x="1074" y="604" type="line"/>
    </contour>
    <contour>
      <point x="1736" y="929" type="curve" smooth="yes"/>
      <point x="1788" y="929"/>
      <point x="1831" y="922"/>
      <point x="1869" y="910" type="curve"/>
      <point x="1942" y="882" type="line"/>
      <point x="2048" y="825.159"/>
      <point x="2096" y="711.477"/>
      <point x="2096" y="544" type="curve" smooth="yes"/>
      <point x="2096" y="385" type="line" smooth="yes"/>
      <point x="2096" y="287.95"/>
      <point x="2067" y="243"/>
      <point x="2001" y="243" type="curve" smooth="yes"/>
      <point x="1936" y="243"/>
      <point x="1905" y="284.939"/>
      <point x="1905" y="377" type="curve" smooth="yes"/>
      <point x="1905" y="507" type="line" smooth="yes"/>
      <point x="1905" y="657.117"/>
      <point x="1940" y="788.092"/>
      <point x="2000" y="910" type="curve"/>
      <point x="2006" y="935"/>
      <point x="2044" y="1052"/>
      <point x="2050" y="1077" type="curve"/>
      <point x="2077" y="1149"/>
      <point x="2089" y="1214"/>
      <point x="2089" y="1283" type="curve" smooth="yes"/>
      <point x="2089" y="1385"/>
      <point x="2069" y="1461"/>
      <point x="2033" y="1531" type="curve"/>
      <point x="1735" y="1531" type="line"/>
      <point x="1773" y="1452"/>
      <point x="1792" y="1368"/>
      <point x="1792" y="1277" type="curve" smooth="yes"/>
      <point x="1792" y="1220"/>
      <point x="1783" y="1171"/>
      <point x="1766" y="1120" type="curve"/>
      <point x="1762" y="1097"/>
      <point x="1735" y="1008"/>
      <point x="1729" y="982" type="curve"/>
      <point x="1636" y="845.143"/>
      <point x="1575" y="710.298"/>
      <point x="1575" y="503" type="curve" smooth="yes"/>
      <point x="1575" y="379" type="line" smooth="yes"/>
      <point x="1575" y="110.046"/>
      <point x="1718" y="-34"/>
      <point x="1999" y="-34" type="curve" smooth="yes"/>
      <point x="2280" y="-34"/>
      <point x="2427" y="114.048"/>
      <point x="2427" y="390" type="curve" smooth="yes"/>
      <point x="2427" y="554" type="line" smooth="yes"/>
      <point x="2427" y="857.483"/>
      <point x="2301" y="1081.32"/>
      <point x="1997" y="1165" type="curve"/>
      <point x="1883" y="1191" type="line" smooth="yes"/>
      <point x="1842" y="1200"/>
      <point x="1796" y="1204"/>
      <point x="1747" y="1204" type="curve" smooth="yes"/>
      <point x="1448" y="1204"/>
      <point x="1290" y="1089"/>
      <point x="1247" y="904" type="curve"/>
      <point x="1191" y="904" type="line"/>
      <point x="1203" y="544" type="line"/>
      <point x="1410" y="513" type="line"/>
      <point x="1410" y="617" type="line" smooth="yes"/>
      <point x="1410" y="827"/>
      <point x="1520" y="929"/>
    </contour>
  </outline>
</glyph>
<glyph name="onesixteenth.mlm" format="2">
  <advance width="2597"/>
  <unicode hex="0D76"/>
  <outline>
    <contour>
      <point x="748" y="260" type="line"/>
      <point x="689" y="0" type="line"/>
      <point x="1390" y="0" type="line"/>
      <point x="1390" y="260" type="line"/>
    </contour>
    <contour>
      <point x="532" y="806" type="curve" smooth="yes"/>
      <point x="224" y="806"/>
      <point x="68" y="653.33"/>
      <point x="68" y="349" type="curve" smooth="yes"/>
      <point x="68" y="300" type="line" smooth="yes"/>
      <point x="68" y="182.034"/>
      <point x="85" y="74.2373"/>
      <point x="118" y="0" type="curve"/>
      <point x="444" y="0" type="line"/>
      <point x="416" y="81.3793"/>
      <point x="396" y="177"/>
      <point x="396" y="295" type="curve" smooth="yes"/>
      <point x="396" y="343" type="line" smooth="yes"/>
      <point x="396" y="461.343"/>
      <point x="438" y="520"/>
      <point x="531" y="520" type="curve" smooth="yes"/>
      <point x="625" y="520"/>
      <point x="667" y="461.343"/>
      <point x="667" y="343" type="curve" smooth="yes"/>
      <point x="667" y="295" type="line" smooth="yes"/>
      <point x="667" y="187.066"/>
      <point x="647" y="95.4234"/>
      <point x="614" y="16" type="curve"/>
      <point x="614" y="0" type="line"/>
      <point x="841" y="0" type="line"/>
      <point x="945" y="95.3056"/>
      <point x="998" y="236.236"/>
      <point x="998" y="365" type="curve" smooth="yes"/>
      <point x="998" y="388" type="line" smooth="yes"/>
      <point x="998" y="665.317"/>
      <point x="842" y="806"/>
    </contour>
    <contour>
      <point x="1348" y="247" type="line"/>
      <point x="1206" y="0" type="line"/>
      <point x="2463" y="0" type="line"/>
      <point x="2396" y="247" type="line"/>
    </contour>
    <contour>
      <point x="1843" y="937" type="curve" smooth="yes"/>
      <point x="2064" y="937"/>
      <point x="2180" y="836.578"/>
      <point x="2180" y="584" type="curve" smooth="yes"/>
      <point x="2180" y="0" type="line"/>
      <point x="2503" y="0" type="line"/>
      <point x="2503" y="583" type="line" smooth="yes"/>
      <point x="2503" y="996.306"/>
      <point x="2286" y="1208"/>
      <point x="1843" y="1208" type="curve" smooth="yes"/>
      <point x="1401" y="1208"/>
      <point x="1183" y="996.304"/>
      <point x="1183" y="584" type="curve" smooth="yes"/>
      <point x="1183" y="0" type="line"/>
      <point x="1504" y="0" type="line"/>
      <point x="1504" y="584" type="line" smooth="yes"/>
      <point x="1504" y="838.606"/>
      <point x="1602" y="937"/>
    </contour>
    <contour>
      <point x="2029.07" y="616" type="line" smooth="yes"/>
      <point x="2029.07" y="817.067"/>
      <point x="1907.78" y="935"/>
      <point x="1686.07" y="935" type="curve" smooth="yes"/>
      <point x="1636.16" y="935"/>
      <point x="1576.3" y="926.231"/>
      <point x="1519.07" y="899" type="curve"/>
      <point x="1483.07" y="731" type="line"/>
      <point x="1517.5" y="755.444"/>
      <point x="1553.6" y="765"/>
      <point x="1589.07" y="765" type="curve" smooth="yes"/>
      <point x="1673.99" y="765"/>
      <point x="1703.07" y="700.174"/>
      <point x="1703.07" y="618" type="curve" smooth="yes"/>
      <point x="1703.07" y="603" type="line" smooth="yes"/>
      <point x="1703.07" y="467.622"/>
      <point x="1641.64" y="335.252"/>
      <point x="1559.07" y="245" type="curve"/>
      <point x="1837.07" y="198" type="line"/>
      <point x="1955.68" y="289.915"/>
      <point x="2029.07" y="434.352"/>
      <point x="2029.07" y="600" type="curve" smooth="yes"/>
    </contour>
  </outline>
</glyph>
